<svg xmlns="http://www.w3.org/2000/svg" xmlns:xlink="http://www.w3.org/1999/xlink" width="228" height="241" xmlns:v="https://vecta.io/nano"><defs><clipPath id="A"><path d="M0 0h982v239H0z"/></clipPath><linearGradient id="B" gradientUnits="userSpaceOnUse"/><linearGradient id="C" x2="982" href="#B" x1="0" y1="192" y2="192"><stop stop-color="#f0070c"/><stop offset=".53" stop-color="#cc26d5"/><stop offset="1" stop-color="#7702ff"/></linearGradient><radialGradient id="D" cx="0" cy="0" r="1" href="#B" gradientTransform="matrix(-97.001,181.499,-181.499,-97.001,305.5,-61.5)"><stop stop-color="#ff41f8"/><stop offset=".71" stop-color="#ff41f8" stop-opacity=".5"/><stop offset="1" stop-color="#ff41f8" stop-opacity="0"/></radialGradient><path id="E" d="M375.4 152.3h-60l-13.2 39.3h-30.9l56.3-159.8h35.7l56.2 159.8h-30.8zm-7.8-23.3L346 64.7h-1.2L323.2 129zm82.4-7.5v70.2h-28.3V71.9h27v20.4h1.4q4.2-10.1 13.3-16c6-3.9 13.6-5.9 22.5-5.9 8.3 0 15.5 1.8 21.7 5.3 6.1 3.6 10.9 8.7 14.3 15.4s5.1 14.8 5 24.4v76.2h-28.2v-71.9c0-8.1-2.1-14.3-6.3-18.9-4.1-4.5-9.8-6.7-17.1-6.7-4.9 0-9.3 1-13.1 3.2-3.9 2.2-6.8 5.3-9 9.4-2.1 4-3.2 8.9-3.2 14.7zm139.2 117.6c-10.2 0-18.9-1.4-26.1-4.1-7.3-2.7-13.1-6.4-17.6-11-4.4-4.6-7.5-9.7-9.1-15.2l25.4-6.2c1.2 2.4 2.8 4.7 5 7s5.2 4.3 8.9 5.8c3.6 1.6 8.4 2.3 14 2.3 8 0 14.7-2 19.9-5.8 5.3-3.9 7.9-10.2 7.9-19.1v-22.6h-1.4c-1.5 2.9-3.6 5.9-6.4 9s-6.5 5.6-11 7.7c-4.6 2-10.2 3.1-17.1 3.1-9.1 0-17.5-2.2-25-6.6-7.5-4.3-13.4-10.9-17.8-19.5s-6.6-19.4-6.6-32.5 2.2-24.3 6.6-33.4c4.5-9.1 10.3-16 17.9-20.7 7.5-4.7 15.8-7 25-7 7 0 12.9 1.1 17.4 3.5s8.1 5.2 10.8 8.5q4.1 4.9 6.2 9.3h1.5V71.8h27.9v121.8c0 10.2-2.5 18.7-7.4 25.4s-11.5 11.7-20.1 15.1c-8.5 3.3-18.1 5-28.8 5zm.2-71.3c6 0 11-1.5 15.3-4.3 4.2-3 7.5-7.2 9.6-12.6 2.2-5.4 3.3-12 3.3-19.6s-1.1-14.2-3.3-19.8c-2.1-5.6-5.3-10.1-9.5-13.3-4.2-3.1-9.3-4.7-15.4-4.7s-11.5 1.6-15.8 4.9c-4.2 3.3-7.4 7.8-9.5 13.4q-3.2 8.6-3.2 19.4c0 7.2 1.1 13.8 3.3 19.2q3.2 8.3 9.6 12.8c4.1 3 9.4 4.6 15.6 4.6zM731 141.3V71.9h28.2v119.8h-27.4v-21.3h-1.2c-2.7 6.7-7.2 12.2-13.4 16.5-6.1 4.2-13.7 6.3-22.7 6.3-7.9 0-14.8-1.7-20.8-5.2s-10.7-8.6-14.1-15.4c-3.3-6.7-5.1-14.9-5.1-24.4V71.9h28.3v71.9c0 7.6 2.1 13.7 6.3 18.1 4.1 4.5 9.6 6.7 16.3 6.7 4.2 0 8.2-1 12.1-3 4-2.1 7.2-5.1 9.7-9.1 2.5-4.1 3.8-9.2 3.8-15.2zm65.7-109.4v159.8h-28.3V31.9h28.3zm44.8 162.2c-7.6 0-14.4-1.4-20.4-4.1-6.1-2.7-10.9-6.8-14.4-12.1-3.5-5.4-5.2-12-5.2-19.8 0-6.8 1.2-12.4 3.8-16.8 2.5-4.4 5.9-8 10.2-10.7 4.3-2.6 9.2-4.6 14.6-6s11.1-2.4 16.9-3l17.1-2c4.3-.6 7.5-1.6 9.6-2.8 1.9-1.3 3-3.3 3-6v-.4c0-5.9-1.7-10.4-5.2-13.7-3.6-3.2-8.6-4.8-15.1-4.8-7 0-12.4 1.4-16.4 4.5-4.1 3-6.8 6.5-8.2 10.7l-26.4-3.8c2.1-7.3 5.5-13.3 10.3-18.3 4.8-4.9 10.7-8.6 17.5-11.1 7-2.4 14.6-3.6 23-3.6 5.8 0 11.5.6 17.2 2s11 3.6 15.7 6.7c4.8 3.1 8.5 7.3 11.5 12.6 2.9 5.3 4.3 12 4.3 19.9v80.2h-27.1v-16.5h-.9c-1.8 3.4-4.1 6.5-7.2 9.4-3.2 2.8-7 5.2-11.7 6.9-4.8 1.7-10.2 2.6-16.5 2.6zm7.4-20.7c5.6 0 10.5-1.2 14.7-3.4 4.2-2.3 7.4-5.2 9.7-9s3.3-7.9 3.3-12.3v-14.1c-.9.7-2.4 1.4-4.5 2-2.1.7-4.4 1.2-7 1.7-2.6.4-5.2.9-7.7 1.2-2.6.3-4.8.6-6.6.9-4.2.6-8.1 1.5-11.3 2.8q-5.1 1.9-7.9 5.4c-2 2.3-2.9 5.3-2.9 8.9 0 5.2 1.9 9.1 5.8 11.8 3.7 2.7 8.5 4.1 14.4 4.1zm64.6 18.3V71.9h27.4v20h1.3c2.2-7 5.9-12.3 11.2-16.1 5.4-3.7 11.5-5.6 18.4-5.6 1.5 0 3.3.1 5.2.1 2 .2 3.6.4 4.9.6v26c-1.2-.5-3.1-.9-5.6-1.2q-.9-.1-1.9-.2-.9-.1-1.8-.2-1 0-1.9-.1-.9 0-1.9 0c-5.1 0-9.7 1.2-13.8 3.4s-7.3 5.2-9.7 9.1c-2.3 4-3.5 8.5-3.5 13.5v70.5zM222 39.2l-8 126L137.3.1zM168.9 202L111 235l-57.9-33 11.7-28.6h92.3zM111 62.7l30.4 73.8H80.6zM7.9 165.1L0 39.2 84.7 0z"/></defs><g clip-path="url(#A)" fill-rule="evenodd"><use xlink:href="#E" fill="url(#C)"/><use xlink:href="#E" fill="url(#D)"/></g></svg>