<svg version="1.2" xmlns="http://www.w3.org/2000/svg" viewBox="0 0 128 128" width="128" height="128">
	<title>favicon-svg</title>
	<style>
		.s0 { fill: #000000 } 
	</style>
	<path id="B" class="s0" aria-label="B"  d="m45.6 50.2h17.9q7.6 0 11.6-3.4 3.9-3.4 3.9-9.9 0-6.5-3.9-9.8-4-3.5-11.6-3.5h-17.9zm0 54.9h19q9.7 0 14.6-4.2 4.9-4.1 4.9-12.4 0-8.1-4.8-12.2-4.9-4.1-14.7-4.1h-19zm49-45.1q10.4 3 16.1 11.2 5.8 8.1 5.8 20 0 18.1-12.3 27-12.3 8.9-37.3 8.9h-53.7v-125.4h48.6q26.1 0 37.8 7.9 11.7 7.9 11.7 25.3 0 9.2-4.3 15.6-4.2 6.4-12.4 9.5z"/>
</svg>