<?xml version="1.0" encoding="utf-8"?>
<!-- Generator: Adobe Illustrator 23.0.4, SVG Export Plug-In . SVG Version: 6.00 Build 0)  -->
<svg version="1.1" id="Laag_1" xmlns="http://www.w3.org/2000/svg" xmlns:xlink="http://www.w3.org/1999/xlink" x="0px" y="0px"
     viewBox="0 0 661 227" style="enable-background:new 0 0 661 227;" xml:space="preserve">
<style type="text/css">
	.st0{fill:#2CD5C4;}
	.st1{fill:#FFB81C;}
	.st2{fill:#F4364C;}
	.st3{fill:#1F2A44;}
</style>
    <g>
	<path class="st0" d="M149.97,67.82H18.16c-3.08,0-5.58,2.5-5.58,5.58v91c0,3.08,2.5,5.58,5.58,5.58h86.09l19.83,19.83
		c1.17,1.17,3.18,0.34,3.18-1.32v-18.51h22.7c3.08,0,5.58-2.5,5.58-5.58v-91C155.55,70.32,153.05,67.82,149.97,67.82z"/>
        <path class="st1" d="M123.02,142.75L17.84,168.69c-2.67,0.66-5.26-1.36-5.26-4.12V72.2c0-2.57,1.75-4.8,4.25-5.42l103.52-25.53
		c3.52-0.87,6.92,1.8,6.92,5.42v90.66C127.26,139.89,125.51,142.13,123.02,142.75z"/>
        <path class="st2" d="M16.09,65.52l70.87-46.4c5.16-3.38,12.02,0.32,12.02,6.5v83.6c0,2.62-1.32,5.06-3.51,6.5l-78.4,51.33
		c-1.93,1.26-4.49-0.12-4.49-2.43V72.02C12.58,69.4,13.9,66.96,16.09,65.52z"/>
</g>
    <g>
	<path class="st3" d="M212.2,168.66c-0.77-0.77-1.15-1.7-1.15-2.8V58.33c0-1.21,0.38-2.17,1.15-2.89c0.77-0.71,1.7-1.07,2.8-1.07
		h15.5c1.21,0,2.17,0.36,2.89,1.07c0.71,0.72,1.07,1.68,1.07,2.89v91.69h52.28c1.21,0,2.2,0.39,2.97,1.15
		c0.77,0.77,1.15,1.71,1.15,2.8v11.87c0,1.1-0.39,2.04-1.15,2.8c-0.77,0.77-1.76,1.15-2.97,1.15h-71.73
		C213.91,169.81,212.97,169.43,212.2,168.66z"/>
        <path class="st3" d="M300.35,200.15c-0.72-0.66-1.07-1.43-1.07-2.31c0-0.77,0.22-1.65,0.66-2.64l13.03-30.51L281.3,90
		c-0.44-0.99-0.66-1.76-0.66-2.31c0.11-0.99,0.49-1.84,1.15-2.56c0.66-0.71,1.48-1.07,2.47-1.07h13.69c1.98,0,3.41,1.05,4.29,3.13
		l21.93,53.76l22.26-53.76c1.1-2.09,2.64-3.13,4.62-3.13h13.36c0.99,0,1.81,0.33,2.47,0.99c0.66,0.66,0.99,1.43,0.99,2.31
		c0,0.77-0.22,1.65-0.66,2.64l-46.67,108.01c-0.88,2.09-2.42,3.13-4.62,3.13h-13.19C301.86,201.14,301.06,200.81,300.35,200.15z"/>
        <path class="st3" d="M384.61,161.4c-7.2-6.71-11.02-16-11.46-27.87l-0.17-6.6l0.17-6.6c0.44-11.87,4.26-21.16,11.46-27.87
		c7.2-6.7,16.85-10.06,28.94-10.06c8.68,0,16.02,1.54,22.01,4.62c5.99,3.08,10.44,6.84,13.36,11.3c2.91,4.45,4.48,8.71,4.7,12.78
		c0.11,1.1-0.25,2.04-1.07,2.8c-0.82,0.77-1.79,1.15-2.89,1.15h-14.68c-1.21,0-2.09-0.25-2.64-0.74c-0.55-0.5-1.1-1.4-1.65-2.72
		c-1.65-4.18-3.82-7.2-6.51-9.07c-2.69-1.87-6.13-2.8-10.31-2.8c-5.61,0-9.98,1.76-13.11,5.28c-3.13,3.52-4.81,8.91-5.03,16.16
		l-0.17,6.1l0.17,5.44c0.66,14.29,6.71,21.44,18.14,21.44c4.29,0,7.75-0.91,10.39-2.72c2.64-1.81,4.78-4.87,6.43-9.15
		c0.44-1.21,0.96-2.09,1.57-2.64c0.6-0.55,1.51-0.83,2.72-0.83h14.68c1.1,0,2.06,0.39,2.89,1.15c0.82,0.77,1.18,1.71,1.07,2.8
		c-0.22,3.85-1.76,8-4.62,12.45c-2.86,4.45-7.26,8.27-13.19,11.46c-5.94,3.19-13.36,4.78-22.26,4.78
		C401.46,171.46,391.81,168.11,384.61,161.4z"/>
        <path class="st3" d="M476.13,160.91c-7.2-7.03-11.02-17.04-11.46-30.01l-0.17-4.12c0-13.74,3.6-24.57,10.8-32.49
		c7.2-7.92,17.18-11.87,29.93-11.87c13.08,0,23.17,3.96,30.26,11.87c7.09,7.92,10.64,18.47,10.64,31.66v3.46
		c0,1.1-0.39,2.04-1.15,2.8c-0.77,0.77-1.76,1.15-2.97,1.15h-54.75v1.32c0.22,6.16,2.39,11.39,5.82,14.46
		c3.43,3.07,6.99,4.99,12.15,4.99s10.25-0.71,14.21-5.76c0.99-1.21,1.76-1.95,2.31-2.23c0.55-0.27,1.48-0.41,2.8-0.41h15.64
		c0.99,0,1.84,0.28,2.56,0.82c0.71,0.55,1.07,1.32,1.07,2.31c0,2.64-1.57,5.75-4.7,9.32c-3.13,3.57-7.61,6.68-13.44,9.32
		c-5.83,2.64-12.59,3.96-20.28,3.96C493.09,171.46,483.33,167.94,476.13,160.91z M523.38,119.35v-0.33c0-6.49-1.62-11.68-4.87-15.58
		c-3.24-3.9-7.67-5.85-13.27-5.85c-5.61,0-10.01,1.95-13.19,5.85c-3.19,3.9-4.78,9.1-4.78,15.58v0.33H523.38z"/>
        <path class="st3" d="M569.22,161.57c-7.04-6.6-10.83-15.72-11.38-27.38l-0.17-7.26l0.17-7.26c0.55-11.54,4.4-20.64,11.54-27.29
		c7.15-6.65,17.09-9.98,29.85-9.98c12.64,0,22.54,3.33,29.68,9.98c7.15,6.65,10.99,15.75,11.54,27.29c0.11,1.32,0.17,3.74,0.17,7.26
		c0,3.52-0.06,5.94-0.17,7.26c-0.55,11.65-4.34,20.78-11.38,27.38c-7.04,6.6-16.99,9.89-29.85,9.89
		C586.26,171.46,576.26,168.16,569.22,161.57z M612.68,149.36c3.13-3.63,4.81-8.96,5.03-16c0.11-1.1,0.17-3.24,0.17-6.43
		c0-3.19-0.06-5.33-0.17-6.43c-0.22-7.03-1.92-12.39-5.11-16.08c-3.19-3.68-7.64-5.52-13.36-5.52c-5.83,0-10.33,1.84-13.52,5.52
		c-3.19,3.68-4.89,9.04-5.11,16.08l-0.17,6.43l0.17,6.43c0.22,7.04,1.92,12.37,5.11,16c3.19,3.63,7.69,5.44,13.52,5.44
		C605.06,154.8,609.54,152.99,612.68,149.36z"/>
</g>
</svg>
