<svg xmlns="http://www.w3.org/2000/svg" width="131" height="38" stroke="none" stroke-linecap="round"
     stroke-linejoin="round" fill="#fff" fill-rule="nonzero">
    <path d="M28.4757 10.3486H1.1565C.5182 10.3486 0 10.8662 0 11.5039v18.8415c0 .6377.5182 1.1553 1.1565 1.1553h17.8432l4.11 4.1058c.2425.2422.6591.0704.6591-.2733v-3.8325h4.7048c.6384 0 1.1566-.5176 1.1566-1.1553V11.5039c.002-.6377-.5161-1.1553-1.1545-1.1553z"
          fill="#2cd5c4"/>
    <path d="M22.89 25.8627L1.0902 31.2335C.5368 31.3702 0 30.9519 0 30.3805V11.2554c0-.5321.3627-.9938.8809-1.1222l21.4557-5.2859c.7296-.1802 1.4343.3727 1.4343 1.1221v18.7711c-.0021.53-.3648.9938-.8809 1.1222z"
          fill="#ffb81c"/>
    <path d="M.7275 9.8724L15.4161.2653c1.0695-.6998 2.4913.0663 2.4913 1.3458v17.3093c0 .5424-.2736 1.0476-.7275 1.3458L.9306 30.894c-.4.2609-.9306-.0249-.9306-.5031V11.2182a1.61 1.61 0 0 1 .7275-1.3458z"
          fill="#f4364c"/>
    <path d="M41.3731 31.2275c-.1596-.1594-.2383-.352-.2383-.5797V8.3839c0-.2506.0787-.4493.2383-.5984s.3524-.2216.5804-.2216h3.2125c.2508 0 .4498.0746.599.2216s.2218.3478.2218.5984v18.9842h10.8356c.2508 0 .456.0808.6156.2381a.79.79 0 0 1 .2383.5798v2.4576c0 .2278-.0808.4224-.2383.5798s-.3648.2381-.6156.2381H41.9555a.774.774 0 0 1-.5824-.234zm18.2706 6.5202c-.1492-.1367-.2217-.2961-.2217-.4783 0-.1594.0456-.3416.1368-.5466l2.7006-6.3171-6.564-15.4644c-.0912-.205-.1368-.3644-.1368-.4783.0228-.205.1016-.381.2384-.53s.3067-.2216.5119-.2216h2.8374c.4104 0 .7068.2174.8892.6481l4.5452 11.1309 4.6137-11.1309c.2279-.4328.5471-.6481.9575-.6481h2.769c.2052 0 .3752.0683.512.205s.2052.2961.2052.4783c0 .1594-.0456.3416-.1368.5466l-9.6729 22.3633c-.1824.4327-.5016.648-.9576.648H60.137c-.1803 0-.3461-.0683-.4933-.2049zm17.4631-8.0232c-1.4923-1.3893-2.2841-3.3128-2.3753-5.7705l-.0352-1.3665.0352-1.3665c.0912-2.4577.883-4.3811 2.3753-5.7704s3.4923-2.0829 5.9981-2.0829c1.799 0 3.3203.3188 4.5618.9565s2.1639 1.4162 2.7691 2.3397.9285 1.8034.9741 2.6461c.0228.2277-.0518.4223-.2218.5797a.848.848 0 0 1-.599.2381h-3.0426c-.2507 0-.4331-.0518-.5471-.1532s-.228-.2899-.342-.5632c-.342-.8655-.7918-1.4907-1.3493-1.8779s-1.2705-.5798-2.1369-.5798c-1.1627 0-2.0684.3644-2.7172 1.0933s-.9969 1.8448-1.0425 3.3459l-.0352 1.263.0352 1.1263c.1368 2.9587 1.3907 4.4391 3.7597 4.4391.8892 0 1.6063-.1884 2.1535-.5632s.9907-1.0083 1.3327-1.8944c.0912-.2506.199-.4328.3254-.5467s.313-.1718.5637-.1718h3.0426c.228 0 .427.0807.599.2381s.2446.3541.2218.5797c-.0456.7972-.3648 1.6564-.9576 2.5778s-1.5047 1.7123-2.7337 2.3728-2.7691.9897-4.6137.9897c-2.5058.0041-4.5059-.6895-5.9981-2.0788zm18.9687-.1017c-1.4923-1.4555-2.284-3.5281-2.3752-6.2135l-.0352-.8531c0-2.8448.7461-5.0871 2.2384-6.727s3.5611-2.4576 6.2031-2.4576c2.711 0 4.802.8199 6.272 2.4576s2.205 3.8242 2.205 6.5552v.7164a.793.793 0 0 1-.238.5797c-.16.1594-.365.2381-.616.2381h-11.347v.2733c.045 1.2754.495 2.3583 1.206 2.9939s1.449 1.0332 2.518 1.0332 2.125-.147 2.945-1.1926c.206-.2505.365-.4037.479-.4617s.307-.0849.581-.0849h3.241c.205 0 .381.058.531.1698s.221.2733.221.4783c0 .5466-.325 1.1905-.974 1.9297s-1.577 1.383-2.785 1.9296-2.61.82-4.204.82c-2.551 0-4.574-.7288-6.0661-2.1844zm9.7931-8.6049v-.0684c0-1.3437-.336-2.4183-1.009-3.2258s-1.59-1.2112-2.751-1.2112-2.074.4037-2.733 1.2112-.991 1.8842-.991 3.2258v.0684h7.484zm9.501 8.7418c-1.459-1.3665-2.245-3.2548-2.359-5.669l-.035-1.5032.035-1.5031c.114-2.3894.912-4.2735 2.392-5.6504s3.542-2.0663 6.187-2.0663c2.62 0 4.671.6894 6.151 2.0663s2.278 3.261 2.392 5.6504c.023.2733.035.7743.035 1.5031l-.035 1.5032c-.114 2.4121-.899 4.3025-2.359 5.669s-3.521 2.0477-6.186 2.0477c-2.686 0-4.759-.6833-6.218-2.0477zm9.007-2.5281c.649-.7516.997-1.8551 1.043-3.3128.023-.2277.035-.6708.035-1.3313l-.035-1.3313c-.046-1.4555-.398-2.5653-1.059-3.3293s-1.584-1.1429-2.769-1.1429c-1.208 0-2.141.3809-2.802 1.1429s-1.014 1.8717-1.059 3.3293l-.036 1.3313.036 1.3313c.045 1.4577.398 2.5612 1.059 3.3128s1.594 1.1264 2.802 1.1264 2.135-.3748 2.785-1.1264z"
          fill="#f5f5f5"/>
</svg>