<svg xmlns="http://www.w3.org/2000/svg" xmlns:xlink="http://www.w3.org/1999/xlink" width="584" height="393">
    <path d="m3 323c0-8.3 6.7-15 15-15h548c8.3 0 15 6.7 15 15v53c0 8.3-6.7 15-15 15h-548c-8.3 0-15-6.7-15-15z"
          fill="#1a1825" stroke="#31303b" stroke-miterlimit="100" stroke-width="1.5"/>
    <g fill="#a3a3a8">
        <path d="M52 349a6.02 6.02 0 0 1 6-6h22a6.02 6.02 0 0 1 6 6 6.02 6.02 0 0 1-6 6H58a6.02 6.02 0 0 1-6-6zm82 0a6.02 6.02 0 0 1 6-6h394a6.02 6.02 0 0 1 6 6 6.02 6.02 0 0 1-6 6H140a6.02 6.02 0 0 1-6-6z"/>
        <g stroke-miterlimit="100" stroke="#1a1825" stroke-width="4">
            <use xlink:href="#B"/>
            <use xlink:href="#B" x="77"/>
            <use xlink:href="#B" x="157"/>
        </g>
    </g>
    <path d="m3 18c0-8.3 6.7-15 15-15h548c8.3 0 15 6.7 15 15v261c0 8.3-6.7 15-15 15h-548c-8.3 0-15-6.7-15-15z"
          fill="#1a1825" stroke="#31303b" stroke-miterlimit="100" stroke-width="1.5"/>
    <path d="M52 212c0-1.7 1.3-3 3-3s3 1.3 3 3v31c0 1.7-1.3 3-3 3s-3-1.3-3-3zm19-12c0-1.7 1.3-3 3-3s3 1.3 3 3v43c0 1.7-1.3 3-3 3s-3-1.3-3-3zm18-23c0-1.7 1.3-3 3-3s3 1.3 3 3v66c0 1.7-1.3 3-3 3s-3-1.3-3-3zm18-72c0-1.7 1.3-3 3-3s3 1.3 3 3v138c0 1.7-1.3 3-3 3s-3-1.3-3-3zm18 48c0-1.7 1.3-3 3-3s3 1.3 3 3v90c0 1.7-1.3 3-3 3s-3-1.3-3-3zm18-72c0-1.7 1.3-3 3-3s3 1.3 3 3v162c0 1.7-1.3 3-3 3s-3-1.3-3-3zm18-24c0-1.7 1.3-3 3-3s3 1.3 3 3v186c0 1.7-1.3 3-3 3s-3-1.3-3-3zm18 48c0-1.7 1.3-3 3-3s3 1.3 3 3v138c0 1.7-1.3 3-3 3s-3-1.3-3-3zm18-25c0-1.7 1.3-3 3-3s3 1.3 3 3v163c0 1.7-1.3 3-3 3s-3-1.3-3-3zm18 49c0-1.7 1.3-3 3-3s3 1.3 3 3v114c0 1.7-1.3 3-3 3s-3-1.3-3-3zm18 47c0-1.7 1.3-3 3-3s3 1.3 3 3v67c0 1.7-1.3 3-3 3s-3-1.3-3-3zm18 36c0-1.7 1.3-3 3-3s3 1.3 3 3v31c0 1.7-1.3 3-3 3s-3-1.3-3-3zm18 13c0-1.7 1.3-3 3-3s3 1.3 3 3v18c0 1.7-1.3 3-3 3s-3-1.3-3-3zm18 10c0-1.7 1.3-3 3-3s3 1.3 3 3v8c0 1.7-1.3 3-3 3s-3-1.3-3-3zm18 7c0-1.7 1.3-3 3-3s3 1.3 3 3v1c0 1.7-1.3 3-3 3s-3-1.3-3-3zm18 0c0-1.7 1.3-3 3-3s3 1.3 3 3v1c0 1.7-1.3 3-3 3s-3-1.3-3-3zm18 0c0-1.7 1.3-3 3-3s3 1.3 3 3v1c0 1.7-1.3 3-3 3s-3-1.3-3-3zm18 0c0-1.7 1.3-3 3-3s3 1.3 3 3v1c0 1.7-1.3 3-3 3s-3-1.3-3-3zm17 0c0-1.7 1.3-3 3-3s3 1.3 3 3v1c0 1.7-1.3 3-3 3s-3-1.3-3-3zm19 0c0-1.7 1.3-3 3-3s3 1.3 3 3v1c0 1.7-1.3 3-3 3s-3-1.3-3-3zm17 0c0-1.7 1.3-3 3-3s3 1.3 3 3v1c0 1.7-1.3 3-3 3s-3-1.3-3-3zm19 0c0-1.7 1.3-3 3-3s3 1.3 3 3v1c0 1.7-1.3 3-3 3s-3-1.3-3-3zm18 0c0-1.7 1.3-3 3-3s3 1.3 3 3v1c0 1.7-1.3 3-3 3s-3-1.3-3-3zm18-18c0-1.7 1.3-3 3-3s3 1.3 3 3v19c0 1.7-1.3 3-3 3s-3-1.3-3-3zm17 18c0-1.7 1.3-3 3-3s3 1.3 3 3v1c0 1.7-1.3 3-3 3s-3-1.3-3-3zm37 0c0-1.7 1.3-3 3-3s3 1.3 3 3v1c0 1.7-1.3 3-3 3s-3-1.3-3-3zm-18-5c0-1.7 1.3-3 3-3s3 1.3 3 3v6c0 1.7-1.3 3-3 3s-3-1.3-3-3z"
          fill="#9333ea"/>
    <defs>
        <path id="B" d="m314 342c0-2.8 2.2-5 5-5h13c2.8 0 5 2.2 5 5v14c0 2.8-2.2 5-5 5h-13c-2.8 0-5-2.2-5-5z"/>
    </defs>
</svg>