<svg xmlns="http://www.w3.org/2000/svg" width="1200" height="518"><path fill-rule="evenodd" d="M129.5 43.1L171 43v238h-51l.1-74.8.8-91.2.7-16.7c-.1-.1-3.7 3-8.1 7s-13.8 11.9-21 17.6l-14 11.3c-.6.5-5.9-5.1-13.5-14.3C52.6 105 52.5 104.8 54.5 103c1.1-1 18.4-14.9 38.5-30.9zm170.7-.1H347v150h28v39h-28v49h-50v-49h-98l-.4-34.9zm149.8.3c29.5.3 49.3.9 54 1.6 4.1.7 11.8 2.4 17 3.7 5.2 1.4 13.6 4.4 18.5 6.7 5 2.4 11.7 6.1 15 8.2 3.3 2.2 9.2 7 13 10.6 3.9 3.6 9.3 9.9 12.1 14 2.9 4.1 6.5 10.1 8.2 13.4 1.6 3.3 4.1 9.6 5.5 14 1.5 4.4 3.3 11.8 4.2 16.5s1.9 14.1 2.2 21c.4 7.5.1 17.3-.6 24.5-.7 6.6-2.3 16.3-3.6 21.5s-3.8 13.1-5.7 17.5c-1.8 4.4-5.9 11.8-8.9 16.5-3.1 4.7-9.1 11.7-13.3 15.7s-10.8 9.4-14.8 12-10.4 6.1-14.3 7.9c-3.8 1.8-10.8 4.3-15.5 5.7s-12.5 3.3-17.5 4.3c-7.6 1.5-16.1 1.8-103.5 2.4l-.1-118.4.7-119c.5-.5 21.8-.6 47.4-.3zm3 195.7c29 0 35.9-.5 42.5-1.9 5.1-1 12.5-3.5 17-5.6 6-2.9 9.8-5.6 15.1-10.9 5.2-5.2 8.1-9.2 10.7-14.6 2-4.1 4.7-11.6 5.9-16.5 2-7.9 2.3-11.4 2.2-29 0-17.3-.3-21.1-2.2-28-1.2-4.4-4.1-11.8-6.4-16.5q-4.2-8.5-9.7-14.1c-3.5-3.5-8.4-6.9-13.1-9.2-4.1-2-10.2-4.4-13.5-5.3-4.3-1.2-11.9-1.8-27.1-2.2l-21.2-.4zM708 96.4c17.2.2 21.8.6 28.3 2.4 4.3 1.2 10.8 3.7 14.5 5.5 3.7 1.9 8.8 5.1 11.2 7.2 2.5 2 6.5 6.2 8.8 9.3s5.3 8.8 6.7 12.7c1.4 3.8 3 10.1 3.5 14 .6 3.9 1 34.6 1 133.5h-35.5l-2.9-7.8A269.69 269.69 0 0 0 737 257l-9.2 8.7c-5.9 5.5-11.7 10-15.8 12-3.5 1.8-9.8 4-14 4.9-4.5 1-12.6 1.6-20.5 1.7-9.3 0-14.8-.5-19.5-1.7-3.5-1-9.2-3.2-12.5-4.9-3.3-1.8-8.2-5.5-11-8.2-2.7-2.8-6.4-7.7-8.2-11-1.7-3.3-3.9-9.2-4.9-13-1-4.5-1.7-11.1-1.7-18 0-7.3.6-13.3 1.7-17.5 1-3.6 3.2-9 4.9-11.9 1.8-3 5.7-7.6 8.7-10.3 3.1-2.7 8.7-6.4 12.5-8.3 3.9-1.9 11.3-4.6 16.5-5.9 5.3-1.4 13.6-2.9 18.5-3.5 5-.6 18.2-1.4 49.6-2.6V161c0-3.6-.7-8.9-1.5-11.8-.9-2.9-2.8-6.7-4.3-8.4s-4.6-4.1-6.8-5.2c-3.4-1.9-5.6-2.1-17-2.1-10.8 0-14.5.4-22.5 2.6-5.2 1.5-13.4 4.3-27 9.9l-1.5-2.8c-.8-1.5-4.6-9.2-15.5-31.2l4.8-2.4c2.6-1.3 7.9-3.5 11.7-4.9 3.9-1.4 10-3.3 13.5-4.3 3.6-.9 9.9-2.3 14-3 5.2-.9 14-1.2 28-1zM854.5 99l18.3 54.7c13.7 40.8 18.7 57.3 19.9 64.8.9 5.5 1.8 10.6 2.1 11.5.3.8 1.1-2.1 1.9-6.5.7-4.4 3.2-13.9 5.4-21 2.2-7.2 10.7-33.3 33.7-103L989 99l-.3 2.2c-.2 1.2-18 49.3-39.6 106.8l-43.9 112.8c-2.5 4.6-7.8 11.8-11.7 16s-10 9.5-13.5 11.9c-3.6 2.3-9.2 5.3-12.5 6.6-3.3 1.4-9.4 3.2-13.7 4.1-4.3.8-11.9 1.6-17 1.6s-13-.6-25.8-2.5v-40l3.8.7c2.1.4 6.7 1 10.2 1.3 3.9.4 8.9.2 12.5-.5 3.3-.7 8.2-2.4 10.9-3.9s6.8-4.7 9.1-7.1c2.3-2.5 5.4-6.8 6.8-9.5 1.4-2.8 3.7-8.3 7.7-19.5l-36-90-36-90.5c0-.3 12.3-.5 54.5-.5zm153.5 0h136l.1 32.5-80.9 110 83.8.5v39h-139l.1-36.5 78.7-107-78.8-.5zm-715.2 16.7c-3.5 7.3-13.4 23.6-26.3 43.3l-21.1 32.7c-.3 1 5.3 1.3 25.6 1.3h26c0-32.6.6-52.1 1.2-64.3s.9-22.8.7-23.5c-.2-.8-3 4-6.1 10.5zM711 198c-6.3.3-14.2 1.4-17.5 2.4S686 203 684 204c-1.9 1-4.9 3.3-6.7 5.1-1.7 1.9-3.9 5.4-4.7 7.9-.9 2.4-1.6 7-1.6 10.2s.7 7.2 1.4 9 3 4.7 5 6.5c2.6 2.3 5.4 3.6 9.4 4.4 3.2.6 8.4.8 11.7.5s8.5-1.4 11.5-2.5c3.3-1.2 7.8-4 10.9-6.8 3.2-2.9 6.4-7 8-10.3 2.3-5 2.6-6.9 2.8-18.3l.3-12.7c-7.3.2-14.6.6-21 1zM313 374h15v76h-15zm618 0h15l-.5 45.5 2.5-3c1.4-1.7 6.1-7 18.5-20.6h17l-4.5 5-16.8 18.6L985 450h-17.5l-7.5-10.5c-4.1-5.8-7.7-10.5-8-10.6-.2 0-1.7.9-3.2 2-2.6 2-2.8 2.4-2.8 19.1h-15zm-484.6 10h9.9l.2 11.5 15.5.5v11h-16l.1 13.2c0 8.8.4 14.1 1.3 15.8 1.2 2.3 1.7 2.4 14.6 2v5.5c0 4.9-.2 5.6-2.5 6.5-1.3.5-5.9 1-10.2 1-6-.1-8.5-.5-11-2-1.8-1.1-4-3.5-5-5.3-1.4-2.7-1.8-6.3-2.3-36.7h-3.5c-3.2 0-3.5-.2-3.5-3.3 0-2.8.7-3.6 4.3-5.8 3.5-2.1 4.6-3.5 6.2-8.3zm275.8 0h9.8v12h15v11h-15v13.8c0 11.5.3 14.1 1.8 16.1 1.6 2.3 2.2 2.4 14.2 1.1l-.2 5.7c-.2 5.2-.5 5.8-2.8 6.4-1.3.4-5.8.8-10 .8-5.8.1-8.2-.3-10.7-1.9-1.8-1.1-4.1-3.2-5-4.7-1.5-2.2-1.8-5.5-2.3-37.3h-3.5c-3.2 0-3.5-.2-3.5-3.2 0-2.8.6-3.6 4-5.5s4.4-3.2 6.1-8.3zM74.5 395.1c4.4-.1 10.4.6 13.3 1.4 2.9.9 5.5 2 5.7 2.5.3.6-.4 3.3-3.5 11l-5.7-2c-3.2-1.1-7.4-2-9.5-2-2 0-4.3.7-5.2 1.5-1.1 1.1-1.3 2-.6 3.3.5 1 5.6 4 11.2 6.7 6.5 3.2 11 6.1 12.3 7.9 1.3 1.7 2.1 4.8 2.3 8 .2 3.9-.2 6.1-2 9.1-1.3 2.2-4 4.7-6.3 6-3.1 1.6-6.2 2.1-14 2.3-6.3.2-11.6-.2-19-2.3l-.2-6.3c-.2-3.4.1-6.2.5-6.1.4 0 3.5.9 7 2 3.4 1 8.4 1.9 11.2 1.9 3 0 5.5-.5 6.5-1.5.8-.8 1.5-2 1.6-2.7 0-.7-.8-2-1.8-2.9-1-1-5.1-3.3-9.3-5.2-4.1-1.8-8.9-4.6-10.7-6-2.1-1.7-3.6-4.1-4.3-6.7-.5-2.2-.7-5.6-.3-7.7s1.5-4.8 2.4-6.1 3.6-3.2 6-4.3c3-1.2 7-1.8 12.4-1.8zm100.3 0c4.3 0 7.4.5 10.2 1.9 2.2 1.1 4.5 3.1 6.2 6.5l3.2-3.1c1.7-1.8 4.4-3.7 5.9-4.3s5.5-1.1 9-1.1c4.8 0 7 .5 9.6 2.3 1.9 1.2 4.4 3.5 5.5 5.1 2 2.6 2.1 4.2 2.6 47.6h-15v-17.2c.1-9.5-.4-18.7-1-20.5-.5-1.8-1.9-3.7-3-4.3-1.1-.5-3.2-1-4.7-1s-3.9.8-5.3 1.8c-1.5 1.2-3 3.8-3.7 6.6-.8 2.7-1.3 10.8-1.3 34.6h-15l-.2-19.6c-.3-19.5-.3-19.5-2.8-21.5-1.3-1.1-3.7-1.9-5.2-1.9s-3.7.5-4.8 1c-1.1.6-2.7 2.5-3.7 4.3-1.3 2.6-1.7 6.6-2.3 37.7h-15v-54h6c5.9 0 6 .1 8 6.5l2.8-2.7c1.5-1.4 3.9-3.1 5.2-3.6 1.4-.6 5.3-1.1 8.8-1.1zm101.7 0c4.2 0 7.1.6 9.5 2 2 1.1 4.5 3.5 5.8 5.2 1.2 1.8 2.9 5 3.7 7.2.8 2.3 1.5 7.7 1.5 12.5s-.6 10.8-1.5 13.8c-.8 2.9-3 6.9-4.8 9-1.9 2.1-4.7 4.3-6.3 5.1-1.8.8-5.4 1.2-9.4 1-5.3-.3-7.3-.9-14-5.9v29h-15v-78h6.5c6.5 0 6.5.1 7 3 .3 1.7.9 3.1 1.3 3.1s1.3-.7 1.9-1.7c.7-.9 2.7-2.5 4.5-3.5 2.2-1.2 5.4-1.8 9.3-1.8zm93.5-.1q7.5.1 11.5 1.9c2.2 1 5.5 3.6 7.3 5.7 1.8 2.2 3.7 5.5 4.2 7.4.6 2 1 6.6 1 17h-35l.6 2.8c.4 1.5 1.3 3.8 2 5 .8 1.2 3 2.9 4.9 3.7 2 .9 5.2 1.5 7.3 1.5 2 0 6-.6 8.7-1.3l6.8-2c1.5-.6 1.7 0 1.7 11.3l-4.7 1.6c-2.9.9-8.4 1.4-13.8 1.4-6.8 0-10-.5-13.5-2-2.4-1.2-5.8-3.3-7.3-4.8-1.6-1.4-3.8-4.5-4.9-6.7-1.5-2.7-2.3-6.5-2.6-12-.2-4.4.1-9.8.7-12s2.5-6 4.3-8.6c2-2.8 5.2-5.6 8.3-7.2 4.2-2.2 6.3-2.7 12.5-2.7zm181.8.1c4.3 0 7.4.5 10.2 1.9 2.2 1.1 4.5 3.1 6.2 6.5l3.2-3.1c1.7-1.8 4.4-3.7 5.9-4.3s5.5-1.1 9-1.1c4.8 0 7 .5 9.6 2.3 1.9 1.2 4.4 3.5 5.5 5.1 2 2.6 2.1 4.2 2.6 47.6h-15v-17.2c.1-9.5-.4-18.7-1-20.5-.5-1.8-1.9-3.7-3-4.3-1.1-.5-3.2-1-4.7-1s-3.9.8-5.3 1.8c-1.5 1.2-3 3.8-3.7 6.6-.8 2.7-1.3 10.8-1.3 34.6h-15l-.2-19.6c-.3-19.5-.3-19.5-2.8-21.5-1.3-1.1-3.7-1.9-5.2-1.9s-3.7.5-4.8 1c-1.1.6-2.7 2.5-3.7 4.3-1.3 2.6-1.7 6.6-2.3 37.7h-15v-54h6c5.9 0 6 .1 8 6.5l2.8-2.7c1.5-1.4 3.9-3.1 5.2-3.6 1.4-.6 5.3-1.1 8.8-1.1zm95.4.2c7.8.2 9 .5 13 3.3 2.4 1.7 5.4 5 6.8 7.5 1.8 3.3 2.6 6.5 3.5 21l-17.7-.1c-16.3 0-17.8.2-17.8 1.8 0 1 1 3.3 2.3 5.2 1.3 2 3.4 4.1 4.8 4.8 1.3.7 4.6 1.2 7.2 1.2s7.5-.9 11-1.9c3.4-1.1 6.3-2 6.5-2 .1-.1.2 2.6.2 11.9l-5.2 1.5c-2.9.9-8.9 1.6-13.3 1.6s-10-.7-12.5-1.5c-2.4-.8-6.2-3.1-8.2-5-2.1-2-4.5-5-5.5-6.8-1-2.1-1.8-6.5-2.1-12.3-.3-6.9 0-10.2 1.4-14.5 1.2-3.5 3.2-6.9 5.9-9.5 2.2-2.2 5.6-4.6 7.5-5.2 2-.6 7.4-1.1 12.2-1zm145.6-.3c4.8 0 5.2.2 5.2 2.3 0 1.2-.3 4.4-1.5 11.8h-4.2c-2.4-.1-5.9.7-7.9 1.7s-4.3 3-5 4.5c-1 2-1.4 7.3-1.4 34.7h-16v-54h12l2 9 2.3-3.1c1.3-1.7 3.9-4 5.8-5 2.1-1.1 5.5-1.9 8.7-1.9zm40.7.1c7.4-.1 9.8.3 13.5 2.2 2.4 1.2 5.2 3.4 6.2 4.7 1.1 1.4 2.3 4.3 2.8 6.5.6 2.2 1 12.5 1 41.5h-5.5c-5.1 0-5.5-.1-6.7-3-.7-1.6-1.5-3-1.8-3-.2 0-1.1.7-2 1.6-.8.9-3.2 2.5-5.2 3.6-2.6 1.2-6 1.8-10.5 1.9-5.4 0-7.5-.5-10.3-2.3-1.9-1.3-4.3-3.9-5.2-5.8-1.1-2-1.8-5.7-1.8-9 0-3.7.7-6.5 2-8.7 1.1-1.8 3.9-4.2 6.3-5.4 2.8-1.4 7.8-2.5 25.9-4.4l-.6-3c-.3-1.6-1.6-3.8-2.8-4.8-1.4-1-3.8-1.7-6.3-1.7-2.2.1-6.4.9-14.6 3.5l-2.4-4.7c-1.4-2.6-2.2-5.1-1.9-5.5.4-.4 3-1.5 5.8-2.5 3.3-1.1 8.4-1.7 14.1-1.7zm65.3 0c4 0 9.3.5 11.9 1.2 2.5.7 4.8 1.7 5 2.2.2.6-.5 3.3-1.6 6-1.1 2.8-2.5 5-3.2 4.9-.8-.1-3.4-.7-5.9-1.4-3.1-1-5.6-1.1-8.4-.4-2.4.6-4.7 2-6 3.8-1.6 2.1-2.1 4.6-2.4 10.5-.2 5.8.1 8.5 1.5 11.1 1 1.9 3 4.1 4.3 4.8 1.5.8 4.7 1.2 7.5 1s6.6-1.1 8.5-2.1c2-.9 3.9-1.7 4.3-1.7s.6 2.8.5 6.3c-.3 5.8-.5 6.3-3.3 7.7-1.7.9-6.7 1.6-12 1.8-6.4.3-10.2-.1-13.2-1.2-2.6-1-5.6-3.2-7.8-5.8-1.9-2.3-4-6.3-4.7-8.8-.6-2.4-1.2-7.6-1.2-11.5 0-3.8.6-9.2 1.4-11.9.9-3 3.1-6.7 5.5-9.3 2.2-2.4 5.8-5 8-5.8 2.2-.7 7.3-1.4 11.3-1.4zm163 0c4.3 0 7.5.6 10.2 1.9 2.3 1.2 5 3.6 6.3 5.8 2.1 3.5 2.2 4.9 2.7 47.2h-15v-16.7c0-9.2-.4-18.4-1-20.5-.5-2.1-1.9-4.2-3-4.8-1.1-.5-3.4-1-5.2-1s-4.4.8-5.7 1.8c-1.4.9-3 3.2-3.8 5-.9 2.2-1.3 8.5-1.3 36.2h-16v-54h6c4.5 0 6.2.4 6.5 1.5.3.9.8 2.3 1 3.3.5 1.6.8 1.5 2.8-.5 1.2-1.2 3.8-2.8 5.7-3.7 2-.8 6.3-1.5 9.8-1.5zm55.5 0c3.3 0 7.1.6 9 1.6 1.8.8 4.1 2.4 5.2 3.4 2 1.9 2 1.9 2.8-1.1.7-2.9.8-3 13.7-3l-.5 62.5-2.7 4.8q-2.8 4.7-7.5 7.5c-4.3 2.5-5.9 2.8-15.8 3-6.7.2-12.9-.2-21-2.3l-.3-6.5c-.3-6-.2-6.4 1.5-5.6 1 .5 4.3 1.5 7.3 2.3 3.1.7 8 1.3 11 1.4 4 0 6.3-.5 8.3-2 1.5-1.2 3.2-3.7 3.7-5.8.6-2.1 1-5.6 1.1-11.8l-2.8 2.7c-1.5 1.4-3.8 3.1-5 3.7-1.3.6-4.9 1.1-8 1.1-4.1 0-6.9-.6-9.7-2.2-2.5-1.5-4.9-4.2-7-7.8-3-5.3-3.1-5.8-3.1-18 0-10.9.3-13 2.2-16.5 1.2-2.2 3.4-5.1 5-6.6 1.5-1.4 3.7-3.1 4.8-3.7s4.6-1.1 7.8-1.1zM110 396h15v54h-15zm377 0h15v54h-15zm509 0h16v54h-16zm-730.9 13.8c-2.1 2-3 4.1-3.6 8.2-.4 3.2-.2 8 .4 11.3.9 4.4 1.8 6.2 3.9 7.8 1.5 1.1 4.1 2 5.7 2 1.7 0 4.2-.8 5.5-1.9 1.5-1.1 3-3.7 3.8-6.5.7-2.6 1.2-6.3 1.2-8.4s-.4-5.4-1-7.5c-.5-2.1-2.2-4.6-3.7-5.8-1.5-1.1-4.3-2-6.1-2-2.3 0-4.2.9-6.1 2.8zm851.8-.9c-1.3 1-2.9 3.8-3.6 6.5-.7 2.5-1.3 6.3-1.3 8.4s.5 5.4 1 7.5c.6 2.1 1.9 4.6 3 5.7 1.4 1.4 3.4 2 6.5 2 2.5 0 5.3-.3 6.2-.7s2.3-2.1 3.2-3.8c1-2 1.5-5.6 1.5-11s-.6-9-1.7-11.2c-.9-1.8-2.8-3.7-4.2-4.3-1.3-.5-3.8-1-5.3-1-1.6 0-4 .9-5.3 1.9zm-749.7-3.1c-1.2.2-3.3 1.7-4.7 3.3-1.3 1.6-2.5 4.1-2.5 5.4v2.5l20.5.1c-1.2-5.1-2.5-7.6-3.8-8.8-1.2-1.2-3.3-2.3-4.8-2.5-1.4-.1-3.5-.1-4.7 0zm275.2.4c-1.6.5-3.6 1.9-4.5 3.1s-1.8 3.4-2 4.7l-.4 2.5c16.6.4 20.5.2 20.5-.5 0-.5-.6-2.5-1.5-4.5-.8-1.9-2-3.8-2.7-4.1-.7-.4-2.4-1-3.9-1.4-1.4-.3-3.9-.3-5.5.2zm190.1 19.5c-1.1.3-3.2 1-4.8 1.6-1.5.7-3.2 2.5-3.7 4-.6 1.6-.6 3.7-.1 5 .4 1.2 1.6 2.6 2.5 3s3.2.7 5.1.7c2.4 0 4.5-.8 6.5-2.7 2.2-2 3.2-4.1 3.8-7.5l.7-4.8c-6.2.2-8.9.5-10 .7z" fill="#fff"/><path d="M8 60c0-27.6 22.4-50 50-50h1081c27.6 0 50 22.4 50 50v399c0 27.6-22.4 50-50 50H58c-27.6 0-50-22.4-50-50z" fill="none" stroke="#fff" stroke-miterlimit="100" stroke-width="5"/></svg>