<svg xmlns="http://www.w3.org/2000/svg" width="865" height="99"><path fill-rule="evenodd" d="M21.9 4H41v7.3c0 4.8 2.2 18.5 6.5 41C51.1 70.8 54 88 54 95H38.5l.8-6.7c.5-3.8.9-7.7.8-8.8 0-1.1-.2-3.5-.5-5.3C39 71 39 71 33 71c-4.9 0-6.1.3-6.5 1.7-.2 1-.5 3.4-.6 5.3 0 1.9.3 6.3 1.6 16H12v-4.3c0-2.3 2.3-18.8 5.1-36.7 3.6-22.5 5.1-35 5-40.8zm129.2.8c10.7.1 19.4.3 19.5.5.1.1.3 1.6.4 3.2.1 1.7.1 6.9 0 20h-15V16h-12l-.1 23.5 6.3 1.8c3.4 1 9.8 2.6 21.8 5.2v22c-.1 12.1-.3 23.1-.6 24.3-.4 2.2-.5 2.2-20.9 2.2-18.7 0-20.6-.1-20.9-1.7-.3-1-.4-6.7-.4-23.8H144V81h12V68.5c0-11.2-.2-12.5-1.8-12.5-1 0-4.9-1.1-8.7-2.5-3.9-1.3-9-2.6-11.3-2.9-3.2-.4-4.2-1-4.2-2.3 0-1-.2-10.9-.5-22.1-.4-16.9-.3-20.4.9-21 .8-.3 10.1-.6 20.7-.4zm97.4-.7l14.4-.1-.2 36.5 12.8.7-1.6-36.1H289v90h-15l1.5-42.1h-14l1.5 42.1h-14.5zm134.1.6L408 5l1.5 5.3c.9 2.9 1.9 5.9 2.2 6.7.5 1.3-.6 1.4-16.7 0v77h-15l-.1-3.2.1-73.8-8.5.8c-5.6.5-8.6.4-8.5-.3 0-.5.7-3.2 1.5-6l1.8-6c.3-.6 6.5-.9 16.3-.8zM526 5v90h-42l-.3-44.9c-.2-43.4-.2-44.9 1.7-45.2 1-.2 10.6-.2 40.6.1zm119-1l-.5 90.5h-15v-9c0-8.2-.4-10-10-36.5l-.7 18.8L618 95h-15l-.3-4.2c-.1-2.3-.1-22.6.3-85.8h15v6c0 4.9 1 8.7 5 19.3 2.8 7.3 5.6 13.7 6.2 14.2.7.7.8-5.2.3-19.1-.4-11.1-.4-20.5 0-20.8.5-.3 4.1-.6 15.5-.6zm77.2 0H737v90l-14.5.1-.8-3.8c-.4-2.1-.7-20-.7-39.8l.6-41.2zm100.4 0h19.3v7c0 4.5 2.4 19.3 6.5 41 3.6 18.7 6.5 36 6.5 43h-15.5l.9-6.2c.5-3.5.9-7.9.8-9.8 0-1.9-.3-4.5-.6-5.8-.5-2-1.2-2.2-6.6-2.2-4.8 0-6 .3-6.4 1.7-.3 1-.6 3.4-.6 5.3-.1 1.9.2 6.3 1.5 16h-16l.7-6.7c.4-3.8 3-21.2 5.7-38.8 3.9-24.7 4.9-33.4 4.4-38.3zM499.9 81h11V16h-11zm332.7-39c-.3 2-1.1 6.2-1.6 9.5-.6 3.3-1.1 6.8-1.1 7.8 0 1.3.9 1.7 3.5 1.7 3 0 3.5-.3 3.5-2.2 0-1.2-.9-6.3-1.9-11.3-1.5-8-1.8-8.6-2.4-5.5zm-801 0a158.39 158.39 0 0 0-1.6 9c-.6 3.6-1 7.3-1 8.3-.1 1.3.8 1.7 3.4 1.7 2.7 0 3.5-.4 3.5-1.7 0-1-.9-5.8-1.9-10.8-1.3-6.7-1.9-8.3-2.4-6.5z" fill="#fff"/></svg>