<svg xmlns="http://www.w3.org/2000/svg" width="1019" height="365" fill="#fff"><path d="M408.2 162H403l28.8-65.8h1.4L462 162h-10.5l-7.3-17.5h-28.8zm21.6-52.5l-13 31.4h25.8zm74.9 53.7q-7.2 0-11.7-1.9-4.6-2-7.2-5.1-2.5-3.1-3.6-6.5-1.1-3.4-1.4-6.5-.2-3-.2-4.7V97.9h9.9v41.4q0 1.8.1 4.4.2 2.6 1 5.2.8 2.6 2.5 4.9 1.9 2.4 5.1 3.8 3.2 1.4 8.2 1.4 8.4 0 13.2-4.5 5-4.5 5-14.9V97.9h4.2v39.3q0 2.4-.3 5.7-.2 3.3-1.3 6.8-1.1 3.5-3.8 6.6-2.6 3.1-7.4 5.1-4.7 1.8-12.3 1.8zm73.4-1.1h-9.4v-59.6q-1.5-.4-3.1-.6-1.5-.2-3.5-.2l-13.1 3-.5-6.8h49.9l-.5 6.8-13.2-3q-1.9 0-3.5.2-1.5.2-3.1.6zm64 1.2q-8.1 0-14.7-3.6-6.6-3.7-10.5-10.7-3.8-7.1-3.8-17.3 0-7.9 2.1-13.8 2.1-5.9 5.7-9.9 3.7-4.1 8.2-6.5 4.5-2.5 9.3-3.6 4.8-1.2 9.3-1.2 8.1 0 14.7 3.6 6.6 3.6 10.5 10.6 3.9 7 3.9 17.2 0 7.9-2.2 13.8-2.1 6-5.8 10-3.7 4.1-8.2 6.6-4.5 2.5-9.3 3.7-4.8 1.1-9.2 1.1zm2.8-3.2q5.8 0 9.9-2.8 4.1-2.9 6.7-7.3 2.6-4.5 3.7-9.7 1.3-5.3 1.3-10 0-6-1.3-11.4-1.1-5.4-3.9-9.5-2.8-4-7.4-6.4-4.6-2.3-11.5-2.3-6.5 2.2-10.7 6.8-4.3 4.6-6.3 10.5-2.1 5.9-2.1 12.3 0 5.9 1.2 11.3 1.3 5.4 3.8 9.5 2.5 4.2 6.6 6.6 4.2 2.4 10 2.4zm105 2l-11.2 1.4-22.5-32h-7.5v30.6h-9.5V97.9h20.9q6.3 0 11.4 1.9 5 1.9 7.9 5.6 3.1 3.6 3.1 8.9 0 6.9-5.3 10.9-5.2 4-13.3 5.5zm-41.2-59v25.4h6.2q7.1 0 10.8-2 3.8-2.1 5.2-5.2 1.5-3.2 1.5-6.6 0-.4-.3-2.1-.2-1.7-1.2-3.9-1-2.2-3.2-4.1-2.1-2.1-6-3.1-2.8 0-6.7.4-3.8.5-6.3 1.2zm71.7 59h-8.9V97.9h8.9zm49.7 0h-9.4v-59.6q-1.5-.4-3.1-.6-1.5-.2-3.5-.2l-13.1 3-.5-6.8h49.9l-.5 6.8-13.2-3q-1.9 0-3.5.2-1.5.2-3.1.6zm78.9 0h-38.5V97.9h38.9l-1 6.5-18-3q-2.8 0-5.3.5-2.4.4-5.2 1.1v23.6h21.5v3.7h-21.5v28.3l30.1-3zm35.3 0h-8.9V97.9h8.9zm49.7 0h-9.4v-59.6q-1.5-.3-3.1-.5-1.5-.2-3.5-.2l-13.1 3-.5-6.9h49.9l-.5 6.9-13.2-3q-1.9 0-3.5.2-1.5.2-3.1.5zm-574.4 109h-8.9v-64.2h8.9zm76.6 1.1h-1.6L452.1 219h-.4v52.1h-4.3v-64.2h7.2l37 46.7h.4v-46.7h4.2zm57.5.1q-7 0-13.4-1.8-6.4-2-11.5-5.9-4.9-3.9-7.8-9.8-2.9-6-2.9-14 0-9.3 3.3-15.9 3.4-6.7 8.9-10.9 5.5-4.3 12.1-6.2 6.6-2 13-2 3 0 6.3.5 3.3.4 6.1 1.1 2.8.7 4.4 1.3l-1 6.6q-5.2-2.3-10.4-3.9-5-1.7-11.3-1.7-10.3 2.4-15.7 10.2-5.5 7.8-5.5 19.3 0 9.7 3.5 16.4 3.6 6.6 9.7 10 6.2 3.3 14 3.3 5.1 0 10.2-1.2 5-1.4 8-4v5.3q-2.9 1.2-6.5 2-3.5.6-7.1 1-3.5.3-6.4.3zm39.5-1.2H588l28.8-65.7h1.5l28.8 65.7h-10.6l-7.3-17.4h-28.8zm21.6-52.6l-12.9 31.4h25.8zm68.9 53.8q-5.7 0-10.8-1.4-5.1-1.3-7.9-2.4v-4.6q1.6.8 4.5 2.1 2.8 1.1 6.2 2 3.4.9 6.6.9 6.4 0 10.2-3.3 4-3.4 4-9.5 0-3.8-2.2-6.5-2.2-2.7-5.8-5-3.5-2.2-7.5-4.2-4-2.2-7.6-4.6-3.5-2.5-5.7-5.8-2.2-3.4-2.2-8 0-3.8 2-7.4 2.1-3.8 6.5-6.3 4.5-2.6 11.8-2.6 3.9 0 8.6 1 4.6 1 8 2l-.9 6.6q-5.7-2.4-11.2-3.9-5.5-1.7-11.2-1.7-2.8 1.4-4 3.6-1.1 2.1-1.1 4.8 0 3.8 2.3 6.8 2.4 3 6.1 5.5 3.7 2.4 7.8 4.7 4.2 2.4 7.9 5.1 3.8 2.7 6.1 6.1 2.3 3.4 2.3 7.9 0 5.1-2.5 9.2-2.5 4.1-7.6 6.5-5 2.4-12.7 2.4zm64.3 0q-5.7 0-10.8-1.4-5.1-1.3-7.9-2.4v-4.6q1.7.8 4.5 2.1 2.8 1.1 6.2 2 3.4.9 6.6.9 6.4 0 10.3-3.3 3.9-3.4 3.9-9.5 0-3.8-2.2-6.5-2.2-2.7-5.8-5-3.5-2.2-7.5-4.2-4-2.2-7.6-4.6-3.4-2.5-5.7-5.8-2.2-3.4-2.2-8 0-3.8 2-7.4 2.1-3.8 6.5-6.3 4.5-2.6 11.8-2.6 3.9 0 8.6 1 4.7 1 8.1 2l-1 6.6q-5.6-2.4-11.2-3.9-5.5-1.7-11.2-1.7-2.8 1.4-4 3.6-1.1 2.1-1.1 4.8 0 3.8 2.4 6.8 2.3 3 6 5.5 3.8 2.4 7.8 4.7 4.2 2.4 7.9 5.1 3.8 2.7 6.1 6.1 2.3 3.4 2.3 7.9 0 5.1-2.5 9.2-2.5 4.1-7.6 6.5-5 2.4-12.7 2.4zm71.2 0q-8 0-14.6-3.6-6.6-3.7-10.5-10.7-3.9-7.1-3.9-17.2 0-8 2.2-13.9 2.1-5.9 5.7-9.9 3.7-4.1 8.1-6.5 4.6-2.5 9.3-3.6 4.9-1.2 9.4-1.2 8.1 0 14.7 3.6 6.6 3.6 10.5 10.6 3.9 7 3.9 17.2 0 7.9-2.2 13.8-2.1 6-5.8 10-3.7 4.1-8.2 6.6-4.5 2.5-9.4 3.7-4.7 1.1-9.2 1.1zm2.8-3.2q5.9 0 9.9-2.8 4.2-2.9 6.7-7.3 2.6-4.5 3.8-9.7 1.3-5.3 1.3-10 0-6-1.3-11.4-1.2-5.4-4-9.5-2.7-4-7.3-6.4-4.6-2.3-11.5-2.3-6.5 2.2-10.7 6.8-4.3 4.6-6.4 10.5-2 5.9-2 12.3 0 5.9 1.2 11.3 1.2 5.4 3.8 9.6 2.5 4.1 6.6 6.5 4.1 2.4 9.9 2.4z"/><path d="m327 43h9v281h-9z" opacity=".6"/><path d="M157 137l18-35h51zm-80 0l-18-35H8zM91 33l26-25 26 25-26 47zM79 163l38 7 39-7-39 41zm38 57l-66 39 67-12 66 12zm0 70l-22 47 22 22 23-22z"/></svg>