<svg xmlns="http://www.w3.org/2000/svg" width="561" height="135" fill="#fff" ><path d="M42.6 88.5q-11.5 0-20.3-4.9-8.7-4.9-13.8-13.7-5-9.1-5-21.1 0-12.9 4.9-21.9 5-9.1 12.8-13.8 8-4.9 16.8-4.9 6.5 0 12.6 2.1 6.1 2 10.8 6.5 4.9 4.3 7.8 10.8 3.1 6.5 3.4 15.5 0 1.2-.9 2.3-.9.9-2.1.9H7.1l-.9-5.8h61.7l-1.6 1.4v-2.8q-.7-8.1-5.2-13.6-4.2-5.5-10.4-8.3-6.1-2.9-12.7-2.9-4.6 0-9.6 2.2-5.1 2-9.3 6.2-4.3 4.2-7.1 10.6-2.6 6.4-2.6 15 0 9.3 3.7 17.1 3.8 7.8 11.2 12.6 7.5 4.7 18.3 4.7 5.2 0 9.8-1.7 4.6-1.8 8.3-4.7 3.6-2.9 5.9-6.3 1.3-1.4 2.6-1.4 1.1 0 1.9 1 .7.7.7 1.8 0 1.1-.6 1.8-4.7 6.1-12.2 10.7-7.3 4.6-16.4 4.6zM87.1 8.2q-1.1 0-1.6.7-.6.6-.6 1.5v75.1q0 1.2.8 1.9.7.6 1.6.6.4 0 1-.2.5-.3.8-.7L142 14.8l-1.6-.8v72.1q0 .8.7 1.3.6.6 1.5.6 1 0 1.6-.6.5-.5.5-1.3V10.5q0-1.3-.6-1.7-.7-.6-1.4-.6-.5 0-.9.2-.5.1-.8.6L88.3 80.8l.9 2.3V10.4q0-.9-.7-1.5-.6-.7-1.4-.7zm178 .8q1.8 0 2.7.8 1 .8 1 2.1 0 .7-.4 1.6l-49.9 106.4q-.5 1-1.4 1.6-.9.5-2 .5-1.1 0-2.2-.5-.9-.6-1.3-1.6L162.1 14q-.2-.3-.4-.8-.1-.5-.1-1.1 0-1.3 1-2.1 1.1-1 2.4-1 2.7 0 4 2.6l47.3 101-2.1-.1 47.5-101.4q1.2-2.1 3.4-2.1zm228.2-1.5h62.2q1.3 0 2.3 1 1 1 1 2.3 0 1.5-1 2.5-1 .8-2.3.8h-60.2l1.6-2.8v51.1l-1.9-2.3h53.1q1.3 0 2.3 1 1 1 1 2.3 0 1.5-1 2.5-1 .8-2.3.8h-52.8l1.6-1.8v52.3l-.6-.8h59.2q1.3 0 2.3 1 1 1 1 2.3 0 1.5-1 2.5-1 .8-2.3.8h-62.2q-1.3 0-2.3-1-1-1-1-2.3V10.8q0-1.3 1-2.3 1-1 2.3-1zM291.9 13v108.5q-.1 1.5-1.1 2.5-1 1-2.3 1-1.7 0-2.7-1-.8-1-.8-2.5V13q0-1.5 1-2.5 1-1 2.5-1 1.5 0 2.4 1 1 1 1 2.5zm63.6-5.4q12.2 0 19.8 5.7 7.8 5.7 11.4 15.5 3.7 9.8 3.7 21.9v69.7q0 1.9-1.2 3.2-1.2 1.4-2.7 1.4-1.8 0-3-1.4-.9-1.3-.9-3.2V51.6q0-9.8-3-17.8-2.7-8-8.9-12.8-6.1-4.8-16-4.8-8.6 0-16.8 4.8-8.2 4.8-13.6 12.8-5.3 8-5.3 17.8v68.8q0 1.9-1.2 3.2-1.2 1.4-2.7 1.4-1.8 0-2.9-1.4-1-1.3-1-3.2V15.8q0-1.8 1.2-3.2 1.1-1.4 2.7-1.4 1.7 0 2.7 1.4 1.2 1.4 1.2 3.2V31s-2.6 5.1-.1 0c2.5-5 4.6-7.1 8.7-10.9q6-5.9 13.2-9.1 7.4-3.4 14.7-3.4zm118 117.2q-1.1 0-1.9-1.1L430.7 62l4.4-5.3 40.8 62.4q.7 1.1.7 2.3 0 1.9-1.2 2.8-1.1.6-1.9.6zM471.1 9.2q1 0 1.9.9.8 1 .8 2.4 0 1.3-.8 2.3l-63.1 71.6-1.2-7.1 60.5-69.2q.8-.9 1.9-.9zM407.9 124q-1.4 0-2.2-1-.7-1-.7-2.5V12q0-1.5.8-2.5.9-1 2.1-1 1.2 0 2 1 .8 1 .8 2.5v108.5q-.1 1.5-.9 2.5-.8 1-1.9 1z"/></svg>