<svg xmlns="http://www.w3.org/2000/svg" width="747" height="167" ><g fill="#fff"><path d="M59.2 90.3q-1-.7-2-1.3-1-.5-2.1-1.1-2-1.1-4-2.1-2-1-4.2-1.8-2.3-.9-4.6-1.7v9.6q3-.1 6-.3 5.4-.5 10.9-1.3z" opacity=".4"/><g fill-rule="evenodd"><path d="M138.4 39.4v124.2H42.3V94.1q3.5-.1 7-.5 6-.6 11.8-1.6h.4l.9.6q1.8 1.4 3.4 2.8 1.6 1.3 3.2 3 3 2.9 5.6 6.4 2.7 3.6 4.7 7.2 1.3 2.3 2.1 4.3.8 2 1.5 3.9.7 1.9 1.3 4 .6 2.1 1.3 4.6.5 1.7.6 2.7.1 1 .3 1.8.3.8.8 1.6.6.8 1.8 2.3.9.5 1.7.1.8-.4.6-1.5-.8-2.4-1.1-3.4-.4-.9-.6-1.5-.2-.6-.4-1.5-.3-.9-.6-3.4-.1-.2-.1-.4 0 .3.1.4v1q-1.1-9.3-.3-18.4.8-9 2.2-18.2l.9-5.5L102 82q1.1 3 2.1 6.1 1.3 4.5 2.6 8.9 1.2 4.5 2.4 9.1.2.8.3 2 .2 1.1.4 2.2.2 1.2.7 2 .5.8 1.4 1.1 1-.1 1.4-.9.3-1 .1-2.2-.2-1.1 0-2.2.8-5.1 1.6-10.2.8-5.1 1.9-10.1l-.3 1.5q0 .2 0 0 .1-.2.1-.6.1-.3.2-.9 2.5-11 6.2-20.4 3.7-9.3 8.6-17.8 3.1-5.2 6.7-10.2zM42.3 79.5V6h96.1v30.1q-3.8 4.8-7.2 9.9-5.2 7.9-9.2 16.7-4 8.9-6.7 18.9-1.4 5.6-2.4 11.2-1 5.6-1.6 11.3-2.2-7.5-4.5-14.8-1.2-3.9-2.8-7.9l1.6-.4q.8-.3.6-1-.2-.7-1-.5-.9.2-1.8.4-.9-2.4-2-4.9-.8-1.7-1.9-3.9-1.2-2.2-2.3-4.1-1-1.9-1.8-3.3-.1-.3-.2-.5.3-1.5.7-3.1.4-1.6 1-4.5.7-2.8 1.5-6 .8-3.3 1.8-6.6.9-3.4 1.8-6.2.9-2.7 1.8-4.6.8-1.9 1.5-2.3.3.5 1 .3.7-.2.5-.9-.2-1.4-.9-1.3-.7.2-1.7 1.3-.9 1.1-2.1 2.9-1.1 1.8-2.1 3.5-.5 1.7-1.5 5.6-1 3.9-2.1 8.5-1.1 4.6-2.2 9.2-.3 1.1-.5 2.1-.3.1-.5.6-.1.4.1 1.2-.5 2.2-.9 4-.9 4-1.6 8.4-.8 4.4-1.6 8.4-6.3 1.7-12.6 3.3-6.3 1.6-12.8 2.6-5.9-4.2-12.8-7-4.4-1.8-8.7-3.1zm23.5 11.7q5.9-1.2 11.6-2.6 5.7-1.4 11.5-3-1.5 8.3-2.6 16.5-1 8.2-.9 16.6-2.4-6.5-6-11.8-3.6-5.3-8.1-10.4-2.6-2.9-5.5-5.3zm27-14.1q.4-2.8.8-5.4.5-2.7 1-5.5 0-.1 0-.2.2.3.4.7.9 1.6 1.7 3.1.9 1.4 1.2 2.1 1.9 3.9 3.4 8 .1.3.2.6-1.5.4-3 .8-3.3.8-6.8 1.8.6-3.2 1.1-6z" opacity=".7"/><path d="M161.2 76.5q.8-1.3 1.4-2.2.6-.8 1.1-1.6.1-.1.2-.3 0-.1.1-.2.5-.8 1-1.7.5-.8 1.1-2 1.9.4 3.2.6 1.3.2 2.5.4.6.1 1.1.1.6.1 1.3.2.8.1 1.8.2 1 .1 2.2.2 2.7-10.1 4-15.2 1.3-5 2.1-9 .2-.7.4-1.5.2-.7.3-1.6.2-1.1.4-2.4.2-1.3.5-2.7 1-.1 1.9-.2.9-.1 1.6-.2.8-.1 1.5-.1.7-.1 1.3-.2 1-.1 2.1-.4 1.2-.2 2.7-.5-1.2 4.4-2 7.5-.9 3-1.7 5.8-.1.4-.2.8-.1.3-.3.8-1 3.8-2.5 8.2-1.4 4.3-3.8 11.6 3.4.1 6.9.2 3.4 0 6.6 0 3 0 5.4 0 2.4-.1 4.8-.2 1.6 0 3.3-.1 1.6-.1 3.5-.2 2.5-8.1 5-16.1 2.6-8.1 5.1-16.1 1.5-.4 2.4-.6 1-.2 1.7-.4h.1l.1-.1q.8-.2 1.8-.4 1-.2 2.5-.7-.9 3-1.8 5.9-1 2.9-1.8 5.8-.6 2-1.3 4.5-.6 2.5-1.3 5.1-.1.4-.2.8-.1.4-.2.8-.8 3-1.5 5.9-.8 2.9-1.4 5.2 1.7-.1 3-.2 1.4 0 2.5-.1.1 0 .2 0 1.6-.1 3.6-.3 1.9-.1 5-.3-.8 1.5-1.6 2.7-.7 1.3-1.5 2.3-1.1 1.6-2.4 2.9-1.2 1.2-2.6 2.5-.8.4-1.5.9-.7.6-1.5 1.1l-.2-.2q1.1-1.6 1.8-2.7.7-1.1 1.3-2 .2-.1.3-.4.1-.2.2-.5.4-.6.8-1.4.4-.8.9-1.9l-9.3 1.5q-.9 3.3-1.5 5.7-.6 2.5-1.1 4.8-.2.9-.4 1.6-.2.8-.3 1.7-.5 2.4-1 5.3-.5 2.9-1.2 6.9-1.2.5-2.1.8-.9.3-1.6.8-.3.1-.6.2-.3.1-.5.3-1.1.6-2.3 1.3-1.2.7-2.9 1.9 0-.4 0-.7.1-.4.2-.8 0-.1 0-.4 0-.2 0-.5 0-1.4-1.1-5.6-1.1-4.1-5.5-9.1-1.3-1.5-2.7-2.7-1.3-1.1-2.7-2.1-4-2.8-7.7-3.9-3.7-1.1-6.1-1.7l-6.9 21.4q-1.5.5-2.4.8-1 .4-1.9.7h-.1q-.9.3-1.9.7-1.1.3-2.6.8 1.1-3.1 1.9-5.4.8-2.4 1.5-4.6.1-.4.2-.9.2-.4.4-.8.7-2.6 1.5-5.6.9-3.1 2.2-7.6zm47.1 0q-3 .3-5.6.5-2.7.2-5.7.3-3 .2-7.3.3 2.5.7 5.9 2.1 3.5 1.3 7.1 3.9 2.4 1.5 4.6 3.6 2.2 2.2 4.2 5 .5-2.6.9-4.3.4-1.8.8-3.3 0-.3.1-.6.1-.4.2-.6.3-1.7.8-3.5.5-1.8 1.3-4.3-4.3.5-7.3.9zm70.4-5.8q-.6.4-1.1.8-.5.4-.9.8-.8.6-1.8 1.1-.9.5-2.2.9-.7.3-1.5.5-.8.2-1.7.5.5.3 1.3.7.8.5 1.6 1.2 1.4 1.1 2.4 2.8 1.1 1.8 1.1 4.4 0 .5-.1.9 0 .5-.1 1-1 6-7.5 11-6.4 4.9-14.3 4.9-6.9 0-11.9-4-4.9-4.1-4.9-11 0-8.5 7.7-14.4 7.7-5.8 16.9-6.1.3 0 .5 0 .1 0 .3 0 .5 0 1 0 .5.1.8.1.8.1 1.5.2.8.1 1.7.3l-.3 1.6q-.8-.2-1.4-.3-.6-.2-1.1-.4-.4 0-.8 0-.4-.1-.8-.1-6.3 0-10.7 5-4.5 5-5.6 10.9-.1.9-.2 1.7-.1.8-.1 1.6 0 5.2 2.5 8.4 2.6 3.2 5.6 4.3.7.1 1.4.3.7.1 1.4.1 4.3 0 7.9-4.5 3.7-4.5 3.7-10.4 0-3-.8-4.9-.8-1.9-1.8-3.1-.4-.7-.9-1.1-.5-.5-.9-.7-.3 0-.7-.1-.3 0-.6 0-.7 0-1.2-.1-.6 0-1.1-.1-.7-.1-1.6-.2-.8-.2-2-.4.8-1.1 1.3-1.9.6-.7 1-1.3.1-.1.1-.2.4-.5.7-1 .3-.5.8-1.1.2.1.5.2.2.1.4.2 1.5.5 3.3.8 1.8.4 5.6.4 1 0 2-.1.9 0 1.8-.1l3.6-.3zm27.2-34.3q-.6 1.9-1 3.4-.5 1.4-.8 2.9-.1.2-.2.4 0 .1 0 .4-.8 2.9-1.8 6.8-1 3.9-2.9 11.4-3.1 12.3-4.5 17.9-1.3 5.7-2 10.1-.2 1.5-.4 3-.1 1.6-.3 3.4 0 .5 0 1.2-.1.6-.2 1.2.8-.1 1.6-.4.7-.2 1.3-.4.6-.1 1.2-.3.6-.2 1-.4 1.2-.5 2.5-1.1 1.3-.6 3.2-1.7l.7.8q-2.9 1.9-5.2 3.3-2.4 1.4-4.6 2.3-1.6.6-3.1.8-1.6.3-3.3.3-1.9 0-3.5-.8-1.6-.9-1.6-3.7 0-.3 0-.6 0-.2.1-.6 0-.3.1-.5 0-.3 0-.6.2-1.6 1-4.7.7-3.2 1.6-6.5.1-.5.2-.8.1-.4.3-.9.6-2.5 1.3-4.9.7-2.3 1.2-3.9 1.7-5.6 3.3-11.2 1.5-5.6 3.2-11.2.8-2.8 1.6-5.7.8-2.8 1.6-5.6zm24.6 0q-.5 1.9-1 3.4-.4 1.4-.8 2.9-.1.2-.1.3-.1.2-.1.5-.8 2.9-1.8 6.8-1 3.9-2.9 11.4-3.1 12.3-4.4 17.9-1.4 5.7-2 10.1-.3 1.5-.4 3-.2 1.6-.4 3.4 0 .5 0 1.2-.1.6-.1 1.2.8-.2 1.5-.4.7-.2 1.4-.4.5-.1 1.1-.3.6-.2 1-.4 1.2-.5 2.5-1.1 1.3-.6 3.2-1.7l.7.8q-2.8 1.9-5.2 3.3-2.3 1.4-4.6 2.3-1.6.6-3.1.8-1.5.3-3.3.3-1.9 0-3.4-.9-1.6-.8-1.6-3.6 0-.3 0-.6 0-.3.1-.6 0-.3 0-.6 0-.2 0-.5.2-1.6 1-4.8.8-3.1 1.7-6.4.1-.5.2-.9 0-.3.2-.8.7-2.5 1.3-4.9.7-2.3 1.2-3.9 1.7-5.6 3.3-11.2 1.6-5.6 3.2-11.3.8-2.8 1.6-5.6.9-2.8 1.7-5.6zm37.6 59.3q-.6.4-1.5 1-.8.5-1.6 1.1-2.4 1.5-5.5 2.8-3 1.3-6.2 1.3-1.6 0-2.5-1-.9-.9-.9-2.5 0-.9.2-2 .3-1.1.8-2.2.1-.3.3-.7.1-.3.3-.8.1-.2.2-.4.1-.2.2-.5.6-1.4 1.2-2.8.6-1.4 1.1-2.7.2-.5.4-.9.2-.5.3-.9.4-1 .8-1.9.4-1 .8-1.9-.3.5-1 1.8-.7 1.3-1.6 2.8-.8 1.4-1.5 2.7-.8 1.3-1.1 1.8-.3.5-.5.9-.3.4-.7.8-.9 1.3-1.9 2.6-1.1 1.2-2.2 2.4-.4.5-1.1 1.1-.7.7-1.7 1.5-1.5 1.2-3.5 2.1-2 .9-4.3.9-3.8 0-5.5-2.3-1.6-2.3-1.8-5.1-.1-.3-.1-.5 0-.3 0-.6 0-.1 0-.1 0 0 0-.1.2-9.1 8.5-16.9 8.3-7.7 18.3-9 .8-.1 1.5-.1.8-.1 1.5-.1.6 0 1 0 .5 0 1 .1.7.1 1.4.2.8.1 1.6.3l-.5 1.3q-.6-.1-1.2-.2-.6 0-1.2-.1-.5 0-1.1-.1-.6 0-1.2 0-5.9 0-10.5 4.5-4.5 4.6-6.9 10.1-1.3 2.8-2 5.5-.7 2.6-.7 4.7 0 .1 0 .3 0 .1 0 .2.1 1.7.7 3.1.6 1.5 2.1 1.5.9 0 1.6-.5.7-.4 1.3-1.1 1-.8 1.9-1.8.9-1 1.8-2 1.9-2.4 3.7-5.2 1.9-2.9 3.6-5.8 1.8-3 3.5-5.9 1.6-2.9 2.9-5.4 1.1-.2 1.9-.4.8-.2 1.4-.4.1 0 .2 0 .1 0 .2-.1.7-.1 1.4-.3.8-.2 1.8-.5-2.8 8-4.2 12.6-1.5 4.7-2.4 8.6-.2 1.2-.5 2.4-.2 1.2-.5 2.5-.1.7-.2 1.4-.1.7-.2 1.4.6-.1 1.1-.3.5-.1 1-.2.4-.2.8-.3.4-.2.8-.3.9-.4 1.9-.9.9-.5 2.4-1.4zm3.2-23.8q.7-.2 1.3-.6.7-.4 1.5-.7 1.2-.6 2.6-1.1 1.3-.5 2.6-.9 1.4-.4 2.8-.7 1.4-.2 2.6-.2 1.1 0 1.8.5.6.5.6 1.3 0 .3-.1.7 0 .5-.1 1-.1.1-.1.2 0 .2-.1.3 0 .3 0 .6-.1.3-.2.5-.3 1.5-.8 3.1-.4 1.7-1 3.3-.3 1.2-.7 2.3-.4 1.1-.7 2.3-.9 2.6-1.7 4.8-.9 2.2-1.5 3.6 3.4-5.8 5.9-9.7 2.4-3.9 4.7-6.7.8-1 1.7-1.8.9-.9 1.8-1.6.7-.6 1.4-1.1.7-.5 1.5-1 2-1.3 4.4-1.8 2.4-.6 6.5-.8-1.1 2.9-2 4.9-.8 2-1.4 3.9-.2.6-.4 1.1-.2.6-.3 1.2-.4 1.2-.8 2.5-.4 1.4-.9 3.1-.9 3.3-1.4 5.2-.5 2-.7 3.8-.1.6-.3 1.2-.1.6-.2 1.2-.1.5-.2 1.2-.1.7-.2 1.4 1-.5 1.8-1 .7-.4 1.3-.8.2-.1.4-.2.2-.2.3-.3.7-.5 1.4-1 .7-.6 1.7-1.4l.8.8q-.4.6-1 1.1-.5.5-1 1-2.1 2-4.7 3.6-2.5 1.6-5.5 1.6-.2 0-.8-.1-.6-.1-1.2-.4-.8-.3-1.5-1.1-.7-.9-.7-2.5 0-1 .3-2.4.3-1.3.6-2.8.2-.4.4-.9.1-.5.2-1 .3-1.1.7-2.2.4-1 .6-1.6 1.2-3.6 2.8-7.8 1.5-4.3 3.1-8.7-4.6 3.3-8.8 8.7-4.2 5.4-7.8 11.2-1.6 2.5-3 5-1.5 2.5-2.8 4.8-1 .1-1.8.3-.8.1-1.4.2-.1 0-.2 0-.2 0-.3.1-.8.1-1.6.3-.8.1-2.2.3 1-2.3 2-4.9.9-2.5 1.7-4.9 1.8-5.4 3-10.6 1.2-5.2 1.9-9.8-1 .3-1.6.5-.7.3-1.3.4h-.1q-.7.2-1.4.4-.6.3-1.8.6zM456.1 38q-.3 1.4-.7 2.5-.4 1.2-.6 2.3 0 .1-.1.3 0 .1-.1.3-.7 2.6-1.6 6.3-.9 3.7-2.8 11.1-.3 1.1-.6 2.1-.3 1.1-.5 2.1-.3 1-.6 2.1-.3 1.1-.5 2.1-.6 2.2-1.1 4.3-.6 2.2-1 4.2-1.9 8.4-2.5 12-.5 3.5-.6 6.1-.1.4-.1.9 0 .4 0 .9 0 .1 0 .2 0 .1 0 .2.6-.2 1.1-.4.5-.1 1-.2.8-.2 1.5-.4.6-.2 1.3-.5 1.2-.5 2.5-1.3.3-.1.6-.3-.6-1.8-.6-4.1 0-2.2.6-4.1.6-1.9 1.5-3.3 1.6-2.5 3.3-3.8 1.7-1.4 3.7-2.5.4-.2.7-.3.3-.2.6-.3l.5.8q-1.2.8-2 1.8-.8.9-1.3 1.9-1.3 2.1-1.5 3.9-.2 1.9-.2 2.4 0 .1 0 .4 0 .2 0 .4.1.5.2 1 0 .5.2 1.2.8-.7 1.6-1.4.8-.7 1.5-1.4.3-.2.5-.5.3-.3.7-.6 2.1-2 4.6-4.9 2.5-2.9 6.9-8.2 0-.5 0-.9 0-.4 0-.7 0-2 .4-4.2.5-2.2 2.2-5.1 2.5-4.2 4.8-5.8 2.3-1.6 4.5-2.6-.2.9-.4 1.7-.2.8-.4 1.5-.2 1.1-.5 2.1-.3.9-.6 1.8-.6 1.4-1.4 2.9-.7 1.6-2 3.8.2.4.4.9.2.4.4.9 1 2.2 1.9 4.5.9 2.4 1.4 4.8.2.9.3 1.9.1.9.1 1.9 0 6.7-5.4 12.3-5.4 5.5-11.8 6.9-.9.1-1.8.2-.8.1-1.7.1-.8 0-1.5-.1-.7-.1-1.4-.2-3.7-.7-6.6-3.3-1.2-1.1-1.9-2.5-1.4.9-2.8 1.7-1.4.8-2.9 1.5-2.2 1.1-4.5 1.8-2.2.7-4.2.7-1.7 0-2.7-1-1-.9-1-3 0-1.5.6-4.2.6-2.7 1.4-5.7.1-.6.3-1.2.2-.6.3-1.2.6-2 1.1-3.8.6-1.8.9-3.1-2.5 5.3-4.1 8.4-1.6 3.1-2.9 5.2-.5.7-1 1.4-.5.6-1 1.4-.1.1-.3.3-.1.1-.3.3-3.2 3.7-6.3 5.1-3 1.4-6 1.4-3.1 0-5-2-2-2.1-2-5.7 0-.1 0-.2 0-.1 0-.3.3-8.4 7-15.7 6.8-7.3 14.9-9.6 1.3-.4 2.8-.6 1.4-.2 2.8-.2.3 0 .7 0 .3 0 .6 0 .4.1.7.1.3 0 .7 0l-.2 1.2q-.3 0-.5 0-.2 0-.5-.1-.2 0-.4 0-.3 0-.6 0-2.2 0-4.7.9-2.4.9-5.3 4.1-1.6 1.8-3 4.3-1.4 2.5-2.4 5.1-1.2 2.9-1.8 5.5-.6 2.6-.6 4.4 0 2.1.7 3.3.7 1.2 1.6 1.5.2.1.4.2.3 0 .4 0 .8 0 1.6-.5.8-.6 1.6-1.5.6-.5 1.1-1.2.5-.6 1.1-1.2 1.1-1.5 1.9-2.7.8-1.3 1.1-1.7 5.7-9.1 8-15.3 2.3-6.3 3.5-10.2 1.6-5.5 2.5-8.7.9-3.1 1.7-5.8.5-2 1.1-4.2.7-2.1 1.5-5.2zm1.2 54.9q.3.6.7 1.3 1.1 1.9 3.1 3.6 2 1.6 5.8 1.6.6 0 1.3 0 .7 0 1.3-.1.2-.2.3-.5.2-.2.3-.4 1.5-2 2.7-4.8 1.1-2.8 1.1-7.7 0-2-.2-3.9-.2-1.9-.5-3.7-.1-.7-.2-1.3-.1-.6-.2-1.3-4.7 5.6-7.6 8.4-2.8 2.9-5.2 5-.4.2-.7.5-.4.3-.8.6-.4.3-.9.7-.4.3-.9.7.3.6.6 1.3zm114.3-56.5q-.1.1-.1.2-1.3 1.5-2.7 2.8-1.5 1.3-4 2.5-1.1.5-2.5 1-1.3.5-3 1.1 1.8 1.1 3.8 2.5 2 1.5 4 4.5 1.9 2.5 2.8 5.5.9 3 1 6.1 0 .3 0 .7 0 .3 0 .6 0 9.7-6.5 16.5-6.6 6.8-14.5 11-3.4 1.8-6.7 3.2-3.3 1.3-6.1 2.3-.9.3-3.4 1-2.5.7-5.4 1.5-.1.1-.1.1-.1 0-.2.1-2.9.7-5.5 1.4-2.5.7-3.6.9 1.3-2.8 2.4-5.8 1.1-3 2.1-6 3-9.8 4.7-18.8 1.6-9 1.6-13.9 0-8.6-3.4-13.3-3.5-4.6-9.1-4.6-4.9 0-8.6 2.8-3.6 2.8-6 6.2-1.1 1.4-2 2.9-.8 1.5-1.4 2.7-1.8 4-2.3 6.5-.5 2.5-.7 4.7 0 .1 0 .2 0 .2 0 .3-1.1.8-1.9 1.2-.7.4-1.2.8h-.1q-.6.3-1.1.6-.5.3-1.5.9.1-.3.2-.6 0-.3 0-.6.1-.4.2-.9.1-.5.2-1.1.3-1.4.8-3.1.5-1.6 1.3-3.8 4.2-10.2 11.3-15.9 7.1-5.7 14.7-7.1 1.3-.2 2.5-.3 1.2-.1 2.5-.2 8.5 0 12.3 5.2 3.8 5.1 4.1 11.3 0 .3 0 .5 0 .2 0 .5 0 2.9-.3 5.9-.3 3-1 5.9-1.3 6.2-3.3 12.4-2.1 6.1-4.5 11.5-1 2.5-2 4.8-1 2.3-1.9 4.4 4-1.1 10.1-3.4 6.1-2.3 13.1-8.3 4.4-3.7 7.9-9.3 3.6-5.6 3.6-13.4 0-5.3-1.8-8.8-1.8-3.6-3.9-5.8-1.4-1.5-2.7-2.4-1.3-.9-2.1-1.4-1 .1-2 .1-1 0-1.9 0-1 0-1.8-.1-.8 0-1.6-.1-.8 0-1.6-.2-.9-.1-1.9-.2.9-1.1 1.4-2 .6-.8 1.3-1.6.1-.2.2-.5.2-.2.4-.4.8-1.1 1.9-2.3 1.1-1.1 2.7-2.9l.7.5-1.8 2.5q.9 0 1.8.1.9.1 1.8.1.4.1.8.1.4 0 .9 0 1.3.1 2.6.2 1.3.1 2.7.1 4.8 0 7.2-.5 2.5-.5 4.4-1.4.4-.1.8-.3.3-.1.7-.3zM599.7 95q-.4.2-.8.6-.4.3-.7.6-2.8 2.2-6.4 4-3.5 1.7-8.4 1.7-5.5 0-8.6-3-3.1-3.1-3.1-8.4 0-8.5 6.9-14.8 6.9-6.2 15.1-6.9.5-.1 1-.1.5 0 .9 0 .5 0 1.2 0 .6.1 1.4.2 1 .2 2 .9.8.6.9 2 .4-.2.9-.5.7-.4 1.5-.7 1.2-.6 2.5-1.1 1.4-.5 2.7-.9 1.4-.4 2.8-.7 1.3-.2 2.6-.2 1.1 0 1.7.5.7.5.7 1.3 0 .3-.1.7 0 .5-.1 1-.1.1-.1.2 0 .2-.1.3 0 .3 0 .6-.1.3-.2.5-.3 1.5-.8 3.1-.4 1.7-1 3.3-.3 1.2-.7 2.3-.4 1.1-.7 2.3-.9 2.6-1.8 4.8-.8 2.2-1.4 3.6 3.3-5.8 5.8-9.7 2.5-3.9 4.8-6.7.8-1 1.7-1.8.8-.9 1.7-1.6.8-.6 1.5-1.1.7-.5 1.4-1 2-1.3 4.4-1.8 2.4-.6 6.6-.8-1.2 2.9-2 4.9-.8 2-1.4 3.9-.2.6-.4 1.1-.2.6-.4 1.2-.3 1.2-.7 2.5-.4 1.4-.9 3.1-.9 3.3-1.4 5.2-.5 2-.8 3.8-.1.6-.2 1.2-.1.6-.2 1.2-.1.5-.2 1.2-.1.7-.2 1.4 1-.5 1.7-1 .8-.4 1.4-.8.2-.1.4-.2.1-.2.3-.3.7-.5 1.4-1 .7-.6 1.7-1.4l.8.8q-.4.6-1 1.1-.5.5-1.1 1-2 2-4.6 3.6-2.5 1.6-5.5 1.6-.2 0-.8-.1-.6-.1-1.2-.4-.8-.3-1.5-1.1-.7-.9-.7-2.5 0-1 .3-2.4.3-1.3.6-2.8.2-.4.3-.9.2-.5.3-1 .3-1.1.7-2.2.4-1 .5-1.6 1.3-3.6 2.8-7.8 1.6-4.3 3.2-8.7-4.6 3.3-8.8 8.7-4.2 5.4-7.9 11.2-1.5 2.5-3 5-1.4 2.5-2.7 4.8-1.1.1-1.8.3-.8.1-1.4.2-.1 0-.3 0-.1 0-.2.1-.8.1-1.6.3-.8.1-2.2.3 1-2.3 2-4.9.9-2.5 1.7-4.9 1.7-5.4 3-10.6 1.2-5.2 1.9-9.8-1 .3-1.7.5-.6.3-1.2.4h-.2q-.6.2-1.3.4-.7.3-1.8.6l-.1-.2q-.1.6-.3 1.4-.5 1.6-2.1 3.6-2.1 2.7-4.7 4.2-2.7 1.6-5.4 2.5-1.9.5-3.8.9-1.9.4-3.6.7-.1.6-.2 1.3-.1.7-.2 1.3-.1.7-.2 1.3 0 .7 0 1.3 0 3.7 1.6 5.6 1.6 1.9 3.5 2.4.5.2 1 .3.6.1 1.1.1 2.4 0 4.6-1.1 2.1-1.1 4-2.4.7-.5 1.4-1 .6-.6 1.2-1zm-18-10.1q.2-.1.4-.1.7-.3 1.4-.5.7-.2 1.4-.5 1-.5 2-1.3 1.1-.8 2.4-2 3.1-3.3 3.6-5.4.5-2.1.5-2.5 0-1.4-.3-1.8-.4-.4-.9-.4-.7 0-1.2.2-.6.2-1 .5-.2.2-.4.3-.3.2-.3.3-3.4 2.8-5.1 6.2-1.6 3.5-2.9 7.1.2-.1.4-.1zm86 10.1q-.4.2-.8.5-.4.4-.8.7-2.8 2.2-6.3 4-3.5 1.7-8.4 1.7-5.5 0-8.6-3-3.1-3.1-3.1-8.4 0-8.5 6.9-14.8 6.8-6.2 15.1-6.9.4-.1.9-.1.5 0 1 0 .4 0 1.1 0 .7.1 1.4.1 1.1.3 2 1 .3.2.5.6l.4-.8q1.6.1 2.6.1 1 .1 1.9.1.6 0 1.2.1.5 0 1.2 0l6.5-19.6 7.1-2.3q-1.3 4.4-2.2 7.2-.8 2.8-1.5 5.2-.1.3-.2.6-.1.3-.2.6-.4 1.7-.9 3.7-.5 1.9-1.1 4.5.9-.1 1.5-.2.6 0 1.3 0 .2 0 .5-.1.3 0 .6 0 .2-.1.5-.1.4 0 .6-.1.7-.1 1.5-.2.8-.1 1.8-.2l-2.4 4.8q-1.4 0-3.1.2-1.8.1-4 .3-.3.9-.5 1.8-.2.8-.4 1.7-.2.9-.4 1.8-.3.9-.5 1.8-.9 3.3-1.3 5.3-.5 2-.9 3.7-.1.7-.2 1.3-.2.6-.3 1.4-.1 1.1-.3 2.3-.2 1.3-.4 2.9 1-.3 1.8-.6.7-.3 1.4-.6.4-.1.8-.3.5-.2.9-.4 1.1-.5 2.3-1.3 1.2-.7 3.1-1.9l.6 1q-2.7 2-5.6 3.8-2.8 1.8-6.1 2.9-.5.1-.9.2-.5.1-1 .2-1.5.3-2.7.5-1.2.2-1.7.2-.1 0-.5 0-.3-.1-.5-.1-.7-.1-1.2-.6-.5-.5-.5-1.6 0-1 1.1-4.7 1-3.7 2.3-7.9.1-.3.1-.6.1-.2.1-.4 1.1-3.6 2.1-6.8 1-3.1 1.4-4.4-1.6.1-3.7.2-1.1 0-2.3.1-.6 1.2-1.7 2.6-2.1 2.7-4.8 4.2-2.6 1.5-5.4 2.5-1.9.5-3.7.9-1.9.4-3.6.7-.1.6-.2 1.3-.2.7-.3 1.3-.1.6-.1 1.3 0 .7 0 1.3 0 3.7 1.5 5.6 1.6 1.9 3.5 2.4.6.2 1.1.3.6.1 1.1.1 2.4 0 4.5-1.1 2.2-1.1 4-2.4.8-.5 1.4-1.1.7-.5 1.3-.9zm-18-10.2q.2 0 .4 0 .7-.3 1.4-.5.7-.2 1.4-.5 1-.5 2-1.3 1.1-.8 2.3-2.1 3.2-3.2 3.7-5.3.5-2.1.5-2.5 0-1.4-.4-1.8-.3-.4-.9-.4-.6 0-1.1.2-.6.2-1 .5-.2.2-.5.3-.2.2-.3.3-3.3 2.8-5 6.2-1.7 3.5-2.9 7.1.1-.1.4-.2zm56.5-15.5q-.2.8-.8 2.9-.6 2.1-1.2 4.4-.6 2.3-1.1 4.3-.5 2-.8 2.8-1.2 4.5-1.8 6.6-.6 2.2-.8 3.9-.1.8-.2 1.7 0 .9 0 2 .8-.3 1.5-.5.7-.3 1.3-.5.4-.1.9-.4.4-.2.8-.4.9-.4 1.8-1 .9-.6 2.3-1.5l.7 1q-.9.6-2.2 1.5-1.2.8-2.7 1.8-1.2.7-2.4 1.4-1.2.6-2.5 1.3-1.6.6-3.2 1.1-1.7.4-3 .4-1.2 0-2-.6-.8-.7-.8-2.1 0-1.9.9-4.9.8-3 2-6.7 1-3.5 2.4-7.5 1.3-4 2.6-8.1.2-.4.4-.8.1-.5.2-.8zm2.4-16.4q0 .4 0 .8-.1.4-.2.9-.2 2.8-1.7 5.7-1.5 3-6.8 6.2.7-1.4 1.1-2.4.4-1 .6-2 .1-.5.2-1.1 0-.5 0-1.2 0-1-.1-1.9-.1-1-.2-1.9zm28.9 42q-.4.3-.8.6-.4.3-.8.7-2.8 2.1-6.3 3.9-3.5 1.8-8.4 1.8-5.5 0-8.6-3.1-3.1-3.1-3.1-8.3 0-8.6 6.9-14.8 6.8-6.3 15.1-7 .5-.1 1-.1.4 0 .9 0 .5 0 1.1.1.7 0 1.4.1 1.1.3 2 .9.9.7.9 2.3 0 .5-.4 2.1-.4 1.5-2 3.6-2.1 2.6-4.8 4.1-2.6 1.6-5.4 2.5-1.9.5-3.7.9-1.9.5-3.6.7-.1.7-.2 1.3-.2.7-.3 1.4 0 .6-.1 1.3 0 .7 0 1.3 0 3.6 1.6 5.5 1.5 1.9 3.4 2.5.6.1 1.1.2.6.1 1.1.1 2.4 0 4.6-1.1 2.1-1 3.9-2.3.8-.6 1.4-1.1.7-.6 1.3-1zm-18-10.1q.2-.1.4-.1.7-.2 1.4-.5.7-.2 1.4-.5 1-.5 2-1.3 1.1-.7 2.3-2 3.2-3.3 3.7-5.4.5-2 .5-2.5 0-1.4-.4-1.8-.3-.4-.9-.4-.6 0-1.1.3-.6.2-1 .5-.2.1-.4.3-.3.1-.4.2-3.3 2.8-5 6.3-1.7 3.4-2.9 7 .1-.1.4-.1zm9.4-32.6q-.1.2-.2.4 0 .2 0 .4-.6 1.8-1.2 3.3-.6 1.4-1.5 2.8-.9 1.4-2.4 3-1.5 1.5-3.8 3.4l-.6-.5q1-1.8 1.7-3.7.8-1.9.8-3.8 0-.2 0-.4 0-.1 0-.3-.1-.3-.2-.7-.1-.4-.2-.9zm10.8 0q-.3 2.3-1.7 5.5-1.5 3.3-7.6 7.8l-.5-.6q.9-1.8 1.4-3 .5-1.1.7-2.2.2-.6.2-1.3.1-.6.1-1.3 0-.2 0-.4 0-.2 0-.5-.1-.2-.1-.5 0-.2 0-.5z"/><path d="M172.1 117l.2-.9 4.1 1.3-.1.5zm-3.5 15.4c.4-.3.6-.4 1-1.5l4.1-10.7c0-.2.1-.4.1-.5 0-.2-.2-.4-.3-.6h1.7l4.7 12.1c.2.5.3.8.8 1.2h-2.3c.3-.2.5-.4.5-.5 0-.2-.1-.3-.1-.4l-1.6-4h-5.5l-1.4 3.8c0 .1-.1.3-.1.5s.2.4.4.6zm3.4-5.7h4.9l-2.5-6.4zm15.5 5.7c.3-.2.4-.5.4-.8V120c0-.3-.1-.6-.4-.8h1.8c-.2.2-.3.5-.3.8v11.6h5c.7 0 .9-.3 1.3-.7v1.5zm8.1 0c.3-.2.5-.3.9-1.5l4.1-10.7c.1-.1.1-.3.1-.4 0-.3-.1-.4-.2-.6h1.6l4.7 12.1c.2.5.4.8.9 1.1h-2.3c.2-.2.4-.3.4-.5 0-.1 0-.2-.1-.3l-1.5-4.1h-5.5l-1.4 3.8c-.1.1-.2.3-.2.5 0 .3.2.4.4.6zm3.4-5.7h4.9l-2.5-6.4zm24.5 5.2c-.2-.2-.3-.4-.5-.4-.3 0-1.5 1.2-3.3 1.2-3 0-5.6-2.4-5.6-6.9 0-4.2 2.5-6.8 5.6-6.8 1.6 0 2.5.7 2.7.7s.4-.3.5-.4v2.4c-.6-.9-1.4-1.9-3.2-1.9-1.5 0-4.5 1.7-4.5 6 0 3.7 2.1 6.1 4.5 6.1 1.9 0 3.1-1.5 3.8-2.3zm.5.6c.3-.2.5-.4 1-1.5l4-10.7c.1-.2.2-.4.2-.5 0-.2-.2-.3-.3-.5h1.7l4.6 12c.3.5.4.8.9 1.2h-2.3c.2-.2.4-.4.4-.5v-.4l-1.6-4h-5.5l-1.4 3.8c-.1.1-.1.3-.2.5 0 .2.2.4.5.6zm3.4-5.7h4.8l-2.4-6.4zm10.3 5.7c.2-.2.3-.5.3-.8v-11.6c0-.3-.1-.5-.3-.8h3.7c3.2 0 5 .7 5 3.7s-2.5 3.5-3.7 3.5l3.6 5.1c.4.6.6.7 1 .9h-1.7l-4-6h-2.5v5.2c0 .3.1.6.3.8zm1.4-6.8h1.9c1.9 0 4.3 0 4.3-2.7 0-2.9-2.6-2.9-3.9-2.9h-2.3zm12.2 6.8c.3-.2.4-.4.4-.8v-11.6h-2.6c-.9 0-1.1.4-1.5.7v-1.5h9.1v1.5c-.3-.3-.5-.7-1.5-.7h-2.4v11.6c0 .4 0 .6.3.8zm7.5 0c.3-.2.4-.4.4-.8v-11.6c0-.3-.1-.5-.4-.8h7.8v1.5c-.2-.2-.4-.7-1.3-.7h-5.1v5.2h4.6c.4 0 .9-.3 1.2-.5v1.8c-.4-.3-.8-.5-1.2-.5h-4.6v5.6h5.4c.6 0 1-.4 1.3-.6v1.4zm15.3-5.6c.2.2.2.3.7.3h2.3c.5 0 .5-.1.7-.3v1.4c-.3-.4-.2-.4-.7-.4h-2.3c-.5 0-.5 0-.7.4zm11.6 5.6c.2-.2.3-.5.3-.8v-11.6c0-.3-.1-.5-.3-.8h3.7c3.1 0 5 .7 5 3.7s-2.6 3.5-3.7 3.5l3.5 5.1c.5.6.7.7 1.1.9h-1.7l-4-6h-2.5v5.2c0 .3.1.6.3.8zm1.4-6.8h1.9c1.9 0 4.2 0 4.2-2.7 0-2.9-2.6-2.9-3.8-2.9h-2.3zm9.7.3c0-4.1 2.8-6.9 6.2-6.9 3.3 0 6.2 2.8 6.2 6.9 0 3.8-2.8 6.8-6.2 6.8-3 0-6.2-2.5-6.2-6.8zm6.2 6c2.6 0 5-2.4 5-6s-2.4-6.1-5-6.1c-2.5 0-5 2.2-5 6.1 0 3.8 2.6 6 5 6zm9 .5c.2-.2.3-.4.3-.8v-11.6c0-.3-.1-.5-.3-.8h1.4l8 11.6v-10.8c0-.3-.1-.5-.3-.8h1.4c-.2.3-.3.5-.3.8v12.4h-1l-8-11.6v10.8c0 .4 0 .6.3.8zm13.8 0c.3-.2.4-.4.4-.8v-11.6c0-.3-.1-.5-.4-.8h1.4c4.4 0 8.9 1 8.9 6.6 0 4.5-3.8 6.6-7.4 6.6zm1.5-.8h.8c3.2 0 6.8-1.1 6.8-5.8 0-4.2-3.2-5.8-6.8-5.8h-.8zm9.9-11.4c-.2-.6-.5-.7-.7-1h2.2c-.2.2-.4.3-.4.5s0 .3.1.5l3.7 10.9 3.4-10.8c0-.1.1-.3.1-.5s-.2-.4-.4-.6h2c-.4.3-.6.4-1 1.5l-3.7 11.8h-1zm8.3 12.2c.3-.2.5-.3 1-1.5l4-10.6c.1-.2.1-.4.1-.5 0-.2-.1-.4-.2-.6h1.6l4.7 12.1c.2.5.4.8.9 1.1h-2.3c.2-.2.4-.3.4-.5 0-.1 0-.2-.1-.3l-1.5-4h-5.5l-1.4 3.7c-.1.1-.2.4-.2.6s.2.3.4.5zm3.5-5.7h4.8l-2.5-6.3zm8.9 5.7c.3-.2.5-.3 1-1.5l4-10.7c.1-.1.2-.3.2-.5s-.2-.3-.3-.5h1.6l4.7 12.1c.3.5.4.7.9 1.1h-2.3c.2-.2.4-.3.4-.5v-.4l-1.6-4H361l-1.4 3.8c-.1.1-.1.3-.2.5 0 .2.2.4.4.6zm3.5-5.7h4.8l-2.4-6.4zm10.3 5.7c.2-.2.3-.5.3-.8v-11.6c0-.3-.1-.5-.3-.8h3.7c3.1 0 5 .7 5 3.7s-2.5 3.5-3.7 3.5l3.6 5.1c.4.6.6.7 1 .9h-1.7l-4-6h-2.5v5.2c0 .3.1.6.3.8zm1.4-6.8h1.9c1.9 0 4.2 0 4.2-2.7 0-2.9-2.6-2.9-3.8-2.9h-2.3zm12.2 6.9c.3-.3.4-.5.4-.9v-11.5h-2.6c-1 0-1.2.3-1.5.6v-1.5h9.1v1.5c-.3-.3-.5-.6-1.5-.6h-2.5v11.5c0 .4.1.6.4.9zm7.5 0c.3-.3.3-.5.3-.9v-11.5c0-.4 0-.6-.3-.9h7.8v1.5c-.2-.2-.4-.6-1.3-.6h-5.1v5.1h4.6c.4 0 .8-.3 1.2-.5v1.8c-.4-.3-.8-.5-1.2-.5h-4.6v5.6h5.4c.6 0 1-.4 1.3-.6v1.5zm10.6 0c.3-.3.3-.5.3-.9v-11.5c0-.4 0-.6-.3-.9h1.5l7.9 11.6h.1v-10.7c0-.4-.1-.6-.4-.9h1.5c-.2.3-.3.5-.3.9v12.4h-1l-8.1-11.6v10.7c0 .4.1.6.3.9zm18.6-5.7c.2.2.2.3.7.3h2.3c.5 0 .5-.1.7-.3v1.4c-.2-.3-.2-.4-.7-.4h-2.3c-.5 0-.5.1-.7.4zm10.1 5.6c.4-.2.6-.3 1-1.5l4.1-10.6c0-.2.1-.4.1-.5 0-.2-.2-.4-.3-.6h1.7l4.7 12.1c.2.5.3.8.8 1.1h-2.3c.3-.2.5-.3.5-.5 0-.1-.1-.2-.1-.3l-1.6-4.1h-5.5l-1.4 3.8c0 .1-.1.4-.1.6s.2.3.4.5zm3.4-5.7h4.9l-2.5-6.3zm10.3 5.7c.3-.3.3-.5.3-.8v-11.6c0-.3 0-.6-.3-.8h3.7c3.2 0 5 .7 5 3.7s-2.5 3.5-3.7 3.5l3.6 5c.5.6.7.8 1 1h-1.7l-4-6h-2.5v5.2c0 .3.1.5.4.8zm1.4-6.8h1.9c1.8 0 4.2 0 4.2-2.8s-2.6-2.8-3.8-2.8h-2.3zm10.1 6.8c.3-.2.4-.5.4-.8v-11.6c0-.3-.1-.6-.4-.8h3.8c3.1 0 5 .7 5 3.7s-2.6 3.5-3.7 3.5l3.5 5c.5.6.7.8 1 1h-1.6l-4-6h-2.5v5.2c0 .3 0 .6.3.8zm1.4-6.8h1.9c1.8 0 4.2 0 4.2-2.8s-2.6-2.8-3.8-2.8h-2.3zm8.7 6.8c.3-.2.5-.3 1-1.5l4-10.7a.76.76 0 0 0 .2-.4c0-.2-.2-.4-.3-.6h1.7l4.6 12.1c.3.5.4.8.9 1.1h-2.3c.2-.2.4-.3.4-.5v-.3l-1.6-4.1h-5.5l-1.4 3.8c-.1.1-.1.4-.2.6 0 .2.2.3.5.5zm3.4-5.7h4.8l-2.4-6.3zm10.4 5.7c.2-.3.3-.5.3-.8v-11.6c0-.4-.1-.6-.3-.8h1.4l8 11.5v-10.7c0-.4-.1-.6-.3-.8h1.4c-.2.2-.3.4-.3.8v12.4h-1l-8-11.6v10.8c0 .3 0 .5.3.8zm23.3-1c-.5.3-2 1.2-3.9 1.2-3.2 0-6-2.1-6-6.7 0-4.4 2.8-7 6-7 1.7 0 2.8 1 3 1s.3-.3.5-.4v2.9c-.8-1.6-1.4-2.7-3.5-2.7-2.6 0-5 2.4-5 6.2 0 2.1 1.2 5.9 5 5.9 1 0 1.9-.2 2.8-.8v-3.6c0-.3-.1-.5-.3-.8h1.7c-.2.3-.3.5-.3.8zm3.1 1c.2-.2.3-.5.3-.8v-11.6c0-.3-.1-.6-.3-.8h7.8v1.4c-.2-.2-.4-.6-1.3-.6H509v5.2h4.6c.4 0 .8-.3 1.1-.5v1.8c-.3-.4-.7-.5-1.1-.5H509v5.6h5.4c.6 0 1-.5 1.3-.7v1.5zm10.5 0c.2-.2.3-.5.3-.8v-11.6c0-.3-.1-.6-.3-.8h1.9l5 11.6 4.8-11.6h1.8c-.2.2-.3.5-.3.8v11.6c0 .3.1.6.3.8h-1.7c.2-.2.3-.5.3-.8v-11.4l-5.2 12.2h-.5l-5.2-12.3v11.5c0 .3.1.6.3.8zm16.7 0c.2-.2.3-.5.3-.8v-11.6c0-.3-.1-.6-.3-.8h7.7v1.4c-.2-.2-.4-.6-1.3-.6h-5v5.2h4.5c.5 0 .9-.3 1.2-.5v1.8c-.4-.4-.7-.5-1.2-.5h-4.5v5.6h5.3c.6 0 1-.5 1.3-.7v1.5zm10.7 0c.2-.2.3-.5.3-.8v-11.6c0-.3-.1-.6-.3-.8h1.4l8 11.5v-10.7c0-.3-.1-.6-.3-.8h1.5c-.3.2-.4.5-.4.8v12.4h-1l-8-11.6v10.8c0 .3 0 .6.3.8zm16.5 0c.3-.2.4-.5.4-.8v-11.6h-2.6c-1 0-1.2.4-1.5.7v-1.5h9.1v1.5c-.3-.3-.5-.7-1.5-.7h-2.5v11.6c0 .3.1.6.4.8zm7.5 0c.2-.2.3-.5.3-.8v-11.6c0-.3-.1-.6-.3-.8h7.8v1.4c-.2-.2-.4-.6-1.3-.6h-5.1v5.2h4.6c.4 0 .8-.3 1.1-.5v1.8c-.3-.4-.7-.5-1.1-.5h-4.6v5.6h5.4c.6 0 1-.5 1.3-.7v1.5zm10.6 0c.2-.2.3-.5.3-.8v-11.6c0-.3-.1-.6-.3-.8h1.5l7.9 11.5h.1v-10.7c0-.3-.1-.6-.4-.8h1.5c-.2.2-.3.5-.3.8v12.4h-1l-8.1-11.6v10.8c0 .3.1.6.3.8zm18.6-5.7c.2.3.2.4.7.4h2.3c.5 0 .5-.1.7-.4v1.4c-.3-.3-.2-.3-.7-.3h-2.3c-.5 0-.5 0-.7.3zm21 4.7c-.4.3-2 1.3-3.8 1.3-3.3 0-6.1-2.2-6.1-6.8.1-4.4 2.9-7 6-7 1.7 0 2.8 1 3.1 1 .2 0 .3-.2.5-.4v2.9c-.9-1.6-1.4-2.7-3.6-2.7-2.6 0-4.9 2.4-4.9 6.2 0 2.1 1.2 5.9 5 5.9.9 0 1.8-.2 2.8-.8v-3.6c0-.3-.1-.5-.4-.8h1.8c-.3.3-.4.5-.4.8zm3.2 1c.2-.2.3-.5.3-.8v-11.6c0-.3-.1-.5-.3-.8h3.7c3.1 0 5 .7 5 3.7s-2.6 3.5-3.7 3.5l3.6 5.1c.4.6.6.7 1 .9h-1.7l-4-6h-2.5v5.2c0 .3.1.6.3.8zm1.4-6.8h1.9c1.9 0 4.2 0 4.2-2.7 0-2.9-2.6-2.9-3.8-2.9h-2.3zm9.7.3c0-4.1 2.8-6.9 6.2-6.9 3.3 0 6.2 2.9 6.2 6.9 0 3.8-2.8 6.8-6.2 6.8-3 0-6.2-2.5-6.2-6.8zm6.2 6c2.6 0 5-2.4 5-6s-2.4-6.1-5-6.1c-2.5 0-5 2.2-5 6.1 0 3.8 2.6 6 5 6zm8.9.5c.2-.2.3-.4.3-.8v-11.6c0-.3-.1-.5-.3-.8h7.8v1.5c-.3-.2-.5-.7-1.3-.7h-5.1v5.2h4.5c.5 0 .9-.3 1.2-.5v1.8c-.4-.3-.7-.5-1.2-.5h-4.5v5.6h5.4c.5 0 1-.4 1.2-.6v1.4zm10.6 0c.2-.2.3-.4.3-.8v-11.6c0-.3-.1-.5-.3-.8h4.3c2.1 0 4.5.8 4.5 3.8 0 3.2-2.9 3.9-5 3.9h-2.4v4.7c0 .4.1.6.3.8zm1.5-6.3h2.4c1.9 0 3.8-.8 3.8-3.1 0-2.2-1.6-3-3.4-3h-2.8zm9.7 3.9c.8 1.1 1.8 2 3.6 2 1.9 0 3.1-1.2 3.1-2.8-.1-3.7-6.9-2-6.9-6.6 0-1.9 1.7-3.6 4.1-3.6 1.3 0 2.3.7 2.6.7.1 0 .3-.2.4-.4v2.5c-.6-1.1-1.4-2-3-2s-2.9 1.2-2.9 2.8c0 2.5 2.8 2.3 4.9 3.6 1.1.7 1.9 1.5 1.9 3 0 2.1-1.8 3.6-4.2 3.6-1.7 0-2.9-.8-3.2-.8-.1 0-.3.2-.4.4zm20.1-2.3c0 2.4 0 5-4.6 5-3.7 0-4.6-2.2-4.6-5v-7.7c0-.3 0-.5-.3-.8h1.8c-.3.3-.4.5-.4.8v7.7c0 2 .3 4.2 3.5 4.2 3.5 0 3.8-1.7 3.8-4.2v-7.7c0-.3-.1-.5-.3-.8h1.4c-.2.3-.3.5-.3.8zm3.5 4.8c.2-.3.3-.5.3-.8v-11.6c0-.3-.1-.6-.3-.8h1.7c-.2.2-.3.5-.3.8v11.6c0 .3.1.5.3.8zm7.6 0c.2-.3.3-.5.3-.8v-11.6h-2.5c-1 0-1.2.3-1.5.7v-1.5h9v1.5c-.3-.4-.5-.7-1.4-.7h-2.5v11.6c0 .3.1.5.3.8zm9.1.3c-1.6 0-2.5-.9-2.8-1.2v-1.6c.8 1 1.3 1.9 2.8 1.9 2 0 2.5-1.2 2.5-3.5v-8.3c0-.3-.1-.6-.3-.8h1.7c-.2.2-.3.5-.3.8v8.3c0 2-.2 4.4-3.6 4.4zm7.1-.3c.2-.3.3-.5.3-.8v-11.6c0-.3-.1-.6-.3-.8h7.7v1.4c-.2-.2-.4-.6-1.3-.6h-5v5.1h4.5c.5 0 .9-.2 1.2-.5v1.9c-.4-.4-.7-.6-1.2-.6h-4.5v5.7h5.3c.6 0 1-.5 1.3-.7v1.5zm10.5-2.5c.8 1.1 1.8 1.9 3.6 1.9 1.9 0 3-1.1 3-2.7 0-3.8-6.8-2-6.8-6.7 0-1.8 1.7-3.5 4.1-3.5 1.3 0 2.3.7 2.6.7.1 0 .3-.2.4-.4v2.5c-.6-1.1-1.4-2-3-2s-2.9 1.2-2.9 2.7c0 2.6 2.8 2.4 4.9 3.7 1.1.6 1.9 1.5 1.9 3 0 2.1-1.8 3.6-4.2 3.6-1.7 0-2.9-.9-3.2-.9-.2 0-.3.2-.4.4z"/></g></g><path d="m167.5 111h570.1" fill="none" stroke="#fff" stroke-width="1.2"/><path fill-rule="evenodd" d="M58.1 92.5l8.8 48.6-41.3 7.5L15 90.3q.3.1.5.1 2.3.6 4.5 1.3 2.1.7 4.4 1.2 0 .5-.1 1 0 .6 0 1.1-.3 8.1-.1 13.8.2 5.7.4 10.7.3 4.9.5 9.9.3 5.1.2 11.7.2.7.9.5.7-.1.6-.9-.1-.7-.1-3.6.1-2.9.1-7.2 0-4.2.1-9.3.1-5 .1-9.8.1-4.9.1-9 .1-4.1.1-6.5 0-1.2 0-1.9 2.6.4 5 .5 2.6.2 5.1.3 5.9.1 12-.6 4.4-.4 8.8-1.1zm-30.8-1.6q0-2.8 0-5.6 0-2.8-.1-5.6 5-.2 10 1.1 5 1.3 9.7 3.2 2.2.8 4.2 1.8 2 1 4 2.1 1.1.6 2.1 1.1.1.2.3.3l.2 1.2q-4.7.7-9.4 1.1-5.4.4-11 .2-1.4-.1-4.1-.2-2.8-.2-5.9-.7zm-10.1-2.2q-1.7-.7-2.7-1.5l-.6-2.8q.6-.7 1.4-1.2 1.4-.9 3-1.6 2.9-1.2 6.2-1.7 0 2.6 0 5.3 0 2.7-.1 5.3-4-.7-7.2-1.8zm-3.8-7.2L4.2 30.4l41.3-7.5 11.3 62.4Q54 83.8 51 82.6q-6.9-2.8-13.6-4.5-2.5-.6-5.2-.9-2.6-.4-5.1-.3-.1-4.1-.3-9-.2-4.9-.5-9.9-.2-5.1-.4-10-.1-4.8-.2-9 0-.2-.1-.3v-.1q-.1-.4-.6-.4-.5 0-.6.3l-.2.3v.3q-.1 4.1-.1 9.1.1 4.9.1 10 .1 5 .2 9.9.1 5 .1 9.1-1.9.2-3.7.7-1.7.5-3.5 1.3-2 .8-3.9 2.3zm13.8 11.9q0 0 0 0 0 .7 0 1.9z" opacity=".6" fill="#fff"/></svg>