<svg xmlns="http://www.w3.org/2000/svg" width="1728" height="340" fill-rule="evenodd" fill="#fff"><path d="M128.3 29.5c-.6 4.4-2.5 12.3-4.2 17.5s-5.1 13.6-7.6 18.5c-2.6 4.9-7.1 12.4-10 16.5-3 4.1-9 10.9-13.2 15.2-4.3 4.2-11.4 10.2-15.8 13.3-4.4 3.2-11.4 7.4-15.5 9.5s-10.9 5-15 6.4c-4.1 1.5-12 3.6-17.5 4.7s-10.1 2.1-10.2 2.2 3.2.5 7.3.9c4.1.5 11.8 1.7 17.1 2.9 5.4 1.1 14.1 3.5 19.3 5.1 5.2 1.7 13.8 5 19 7.3s13.4 6.6 18.2 9.4l8.8 5.1c14.3-10.7 22.1-17.4 26.5-21.7s10.1-10.3 12.6-13.3a274.99 274.99 0 0 0 8.6-11l4-5.5c-8.7-14.7-13.3-24-15.9-30-2.6-6.1-6.2-16.6-8.1-23.5s-4-16.8-4.7-22-1.6-10.8-1.9-12.5c-.5-2.4-.9-1.5-1.8 5zm78.2 140c-3.3 2.4-9.6 7.7-14 11.7s-11.1 10.7-14.8 14.8-8.7 10.2-11.2 13.5-4.5 6.6-4.5 7.3c0 .6 1.9 4.2 4.2 8 2.3 3.7 6.1 10.8 8.4 15.7 2.4 4.9 6.1 14.4 8.3 21 2.1 6.6 4.8 16.7 5.9 22.5s2.4 13.4 2.8 17l.7 6.5c2.2-13.2 4.2-21.1 5.9-26 1.6-4.9 4.8-12.6 7-17s6.1-11.1 8.6-15c2.6-3.8 9.2-11.5 14.7-17.1 6.3-6.3 13.5-12.4 19.5-16.2 5.2-3.5 13.5-8 18.5-10.2 4.9-2.1 13.5-5 19-6.4s11.8-2.8 14-3.2c3.6-.6 2.9-.9-6-2-5.5-.7-14.3-2.2-19.5-3.4-5.2-1.3-13.3-3.6-18-5.2s-12.6-4.8-17.5-7.1c-5-2.2-12.7-6.2-17.3-8.9l-8.5-4.8c-.1 0-2.9 2-6.2 4.5z" opacity=".8"/><path d="M130 9h61.5l.7 8.2c.4 4.6 1.4 11.9 2.3 16.3s2.8 11.4 4.2 15.5 4.5 11.3 6.8 16c2.4 4.7 6.7 11.9 9.6 16s9.1 11.3 13.8 16 11.5 10.6 15.1 13.1c3.6 2.6 9 6 12 7.7s8.9 4.5 13 6.2 11.8 4.2 17 5.6c5.2 1.3 12.6 2.7 16.5 3s8.5.7 13.5 1.4v61l-2.3.1c-1.2 0-4.7 0-7.7-.1-3 0-10.2-.8-16-1.6s-15-2.7-20.5-4.1-14.1-4.1-19-6-13.5-5.8-19-8.6-13.4-7.4-17.5-10.1-9.8-6.7-12.5-8.9c-2.8-2.3-7.7-6.6-11-9.6-3.3-3.1-9.1-9-13-13.2s-10.2-12.3-14.2-18c-3.9-5.7-9.8-15.8-13.1-22.4-3.4-6.6-7.9-17.4-10.1-24s-4.9-16.5-6-22-2.5-14.7-3.1-20.5l-1-13.8zm290 0h29v29c0 27.2.1 29 1.7 28.4 1-.3 4.7-1.7 8.3-3.1 4.4-1.7 9.3-2.6 15-3 5.8-.3 10.6 0 15.2 1.1 3.8.9 8.9 2.7 11.5 4.1 2.7 1.3 6.6 3.9 8.8 5.8 2.2 2 5.6 6.2 7.5 9.4s4.3 8.8 5.4 12.3c1.8 6 2 10.5 2.6 102h-30v-45.5c0-39-.2-46.1-1.6-50.2-.9-2.6-2.8-6-4.3-7.6-1.4-1.6-3.7-3.4-5.1-4.1-1.4-.8-4.5-1.7-7-2-2.6-.4-7.1-.2-10.5.4-3.3.7-8.6 2.4-17.6 6.6l.1 102.5h-29zm813 0h29v71.2c0 60.6-.3 72.2-1.6 77.8-.8 3.5-3 9.4-4.7 12.9-1.8 3.8-5.6 8.9-8.7 12s-8.2 7-11.5 8.7c-3.3 1.8-8.5 3.9-11.5 4.8-3.3 1-9.3 1.6-15 1.6-5.8.1-11.9-.6-15.5-1.5-3.3-.9-8.7-3.1-11.9-4.9-3.3-1.7-8.4-5.6-11.4-8.6-3.2-3.3-6.8-8.4-8.8-12.5-1.9-3.9-4.1-10.2-4.9-14-1-4.9-1.5-13.4-1.5-27.3 0-14.1.5-22.6 1.5-28 .8-4.3 3.1-10.9 5-14.7 2.2-4.6 5.4-9 9.2-12.6 3.2-3.1 8.2-6.8 11-8.3 2.9-1.5 8.3-3.4 12-4.2 4.5-1.1 9.5-1.5 14.8-1.2 5.7.3 9.8 1.2 14.5 3.2 3.6 1.5 7.3 2.9 8.2 3.1 1.7.4 1.8-1.4 1.8-28.5zM601.5 60.4c8.8.3 12.4.8 18 2.9 3.8 1.4 9.4 4.3 12.4 6.4s7.4 6.2 9.8 9.3c2.4 3 5.7 8.9 7.3 13.2 2 5.1 3.4 11.2 4.1 18 .7 6 .9 16.9.6 26.3-.4 9.7-1.2 18.3-2.2 22-.9 3.3-3 8.9-4.6 12.5-2 4.2-5.2 8.6-9.3 12.5-3.9 3.9-8.5 7.2-12.6 9.2-3.6 1.6-8.8 3.5-11.5 4.2-2.8.7-9.3 1.2-14.5 1.2s-11.8-.5-14.5-1.2c-2.8-.7-7.8-2.5-11.3-4.1-3.4-1.6-8.8-5.3-12-8.2-3.5-3.3-7.1-8-9.4-12.2-2-3.8-4.4-9.9-5.4-13.4-1.5-5.4-1.8-10.6-1.9-29 0-15.3.4-24.5 1.3-28.5.8-3.4 3-9.4 4.9-13.5 2.4-4.9 5.6-9.5 9.2-13.2 3.8-3.9 8-6.8 13.1-9.2 4.1-1.9 9.7-4 12.5-4.5 2.7-.6 9.9-.9 16-.7zM724 60c4.7 0 11.4.7 15 1.5 3.6.9 9 2.8 12 4.2 3 1.5 8.3 5.4 11.8 8.7 4.5 4.2 7.4 8.2 9.8 13.1 1.9 3.8 4.1 10.1 4.9 14 1 4.8 1.5 13.3 1.5 27.5 0 14.1-.5 22.6-1.5 27.5-.8 3.8-3.1 10.2-5 14.2-2.2 4.5-5.5 9.3-8.8 12.5-2.9 2.9-8 6.7-11.2 8.4-3.3 1.8-8.7 3.9-12 4.8-3.6 1-10 1.6-16 1.6-6.1 0-12.4-.6-16-1.6-3.3-.9-8.7-3-12-4.8-3.3-1.7-8.3-5.5-11.2-8.4-3.3-3.2-6.7-8-8.8-12.5-2-4-4.2-10.4-5-14.2-1-4.9-1.5-13.4-1.5-27.5 0-14.2.5-22.7 1.5-27.5.8-3.9 3-10.2 4.9-14 2.4-4.9 5.3-8.9 9.7-13.1 3.5-3.3 9-7.2 12.1-8.7 3.2-1.5 8.4-3.4 11.5-4.2 3.2-.7 9.6-1.4 14.3-1.5zm118 .1c4.1-.1 10.2.5 13.5 1.4 5.3 1.3 8.2 1.3 25 .1l19.3-1.3c.1.1-.1 4.4-1.3 19.1l-6.5.3c-3.6.2-7.1.5-7.8.8-.9.3-.7 1.5.9 4.7 1.2 2.3 2.8 6.5 3.5 9.2.8 3.1 1.4 10.6 1.4 19.1 0 9.4-.5 15.9-1.6 19.9-.8 3.4-2.7 8.1-4.2 10.5-1.4 2.5-4 6.1-5.7 8-1.6 1.9-5.3 4.8-8 6.6-2.8 1.8-7.9 4.2-11.5 5.5-5.1 1.7-8.9 2.2-28.5 2.4l-.3 2.8c-.1 1.9.5 3.2 2 4.2 1.3.8 9 2.9 17.3 4.6 8.2 1.7 18.4 4.2 22.5 5.6 4.1 1.3 9.3 3.6 11.5 5s5.3 3.8 6.8 5.2c1.6 1.5 3.8 4.5 4.9 6.7 1.1 2.1 2.3 6.4 2.6 9.4.3 4.1-.1 7.6-1.8 13.1-2 6.6-3 8.2-8.9 14-5.5 5.5-7.9 7.1-14.6 9.7-4.4 1.7-11.6 3.6-16 4.3-5.3.8-12.6 1-21.5.6-7.4-.3-16-1.2-19-2-3-.7-8.7-2.4-12.5-3.6-3.9-1.3-8.7-3.2-10.8-4.2-2-1-3.7-2.4-3.7-3.1s1.3-5.3 3-10.2c1.6-5 3.2-9.6 3.5-10.3.4-.9 3.1-.3 10.2 2.3 5.4 2 12.8 4.2 16.5 5 3.8.8 11.6 1.5 17.5 1.5 6.7 0 12.8-.6 16-1.5 2.9-.9 6.6-2.7 8.3-4 1.8-1.5 3.2-3.9 3.5-5.8.4-2.1.1-4-1-5.5-.8-1.2-3.2-3-5.3-3.9-2-.9-9.8-2.9-17.2-4.4-7.4-1.6-15.8-3.5-18.5-4.4-2.8-.8-7.2-2.9-10-4.7-2.7-1.9-6-4.9-7.2-6.8-1.3-2-2.6-5.4-2.9-7.5-.4-2.2-.3-5.6.2-7.5.4-2 2.1-5.6 6.9-12.9l-4-3.4c-2.2-1.8-5.5-5.6-7.3-8.3s-4.2-7.9-5.3-11.4c-1.6-5.3-1.9-9.4-1.9-21.5 0-9.1.5-17 1.3-20 .8-2.8 2.7-7.5 4.3-10.4 1.6-3 5.3-7.6 8.1-10.3 2.9-2.7 8.1-6.2 11.5-7.8 3.5-1.7 8.3-3.4 10.8-3.9s7.9-1 12-1zm118-.1c4.1 0 10.3.6 13.7 1.5 3.5.8 9.1 2.9 12.5 4.6 3.5 1.7 8.9 5.7 12.1 8.8 3.8 3.6 6.9 7.9 9.2 12.6 1.8 3.8 3.8 9.6 4.4 13 .6 3.3 1.1 12.8 1.1 36.5h-75v7.5c0 4.9.7 9.3 1.9 12.7 1.4 3.7 3.4 6.5 6.8 9.5 3.3 3 6.3 4.6 9.8 5.4 3.1.7 8.8.9 15 .5 5.5-.3 13.6-1.5 18-2.6 4.4-1 8.7-2.2 9.5-2.5 1.2-.5 2.1 1.7 4.3 10.7 1.5 6.2 2.7 11.7 2.7 12.3 0 .5-3.2 1.9-7.2 3.1s-10.2 2.7-13.8 3.4c-3.6.6-12.1 1.1-19 1.1-8.1 0-14.6-.6-18.5-1.6-3.3-.9-8.9-3-12.5-4.8-3.7-1.8-8.8-5.5-11.8-8.5-3.3-3.3-6.5-7.9-8.6-12.5-1.9-4-3.9-9.6-4.5-12.5-.6-3-1.1-15.8-1.1-30 0-19.3.4-26.1 1.6-30.7.9-3.4 3-8.7 4.7-12 1.6-3.4 5.3-8.3 8.1-11.1s7.9-6.6 11.3-8.3c3.5-1.7 8.9-3.8 12-4.6 3.2-.7 9.2-1.4 13.3-1.5zm126 .3c8.3.3 11.9 1 17.5 3.1 3.8 1.5 8.8 4 11 5.5s5.8 4.8 8 7.2c2.2 2.5 5.2 7 6.7 9.9 1.5 3 3.5 8.1 4.4 11.5 1.5 5.1 1.8 12.2 2.4 97.5h-30l-.5-91.5-2.8-5.8c-1.5-3.2-4.2-6.8-6-8.2-1.7-1.3-5.5-2.9-8.2-3.6-4-1-6.1-1-10.5.1-3.4.8-6.8 2.5-8.9 4.4-1.8 1.7-4.2 4.6-5.1 6.6-1 1.9-2.3 5.8-2.9 8.7-.7 3.4-1.1 20-1.1 89.3h-29v-43.8c0-34.6.3-45.2 1.5-50.8.8-3.8 3-10.1 4.9-13.9 2.2-4.5 5.4-8.9 8.8-12.1 2.9-2.8 7.3-6.3 9.8-7.7 2.5-1.5 7.9-3.6 12-4.7 6-1.7 9.6-2 18-1.7zm246.5-.3c5.1 0 10.9.7 16 2 4.4 1.1 10.2 3.3 13 4.7 2.7 1.5 7.4 5.3 10.5 8.3 3 3.1 6.9 8.4 8.7 12 1.7 3.6 3.9 9.4 4.7 12.9 1.2 4.9 1.6 12.4 1.6 29.1 0 19.5-.3 23.5-2 30.4-1.2 4.4-3.3 10.3-4.8 13-1.5 2.8-5.4 7.8-8.7 11.1-3.4 3.4-8.4 7.3-11.5 8.7-3 1.5-8.2 3.4-11.5 4.3-3.6.9-10.1 1.5-16 1.5-6 0-12.4-.6-16-1.6-3.3-.9-8.7-3-11.9-4.8-3.2-1.7-8.4-5.8-11.5-9.2-3.1-3.3-6.9-8.4-8.4-11.5-1.4-3-3.4-8.1-4.3-11.5-1.2-4.2-1.8-11.7-2.1-25.9-.4-15.6-.2-22.1 1.1-29.1 1-5.6 2.9-11.6 5.1-16.2 1.9-4 5.8-9.7 8.7-12.8 3.3-3.4 8-6.9 12.3-9.1 3.8-2 9.7-4.2 13-4.9s9.6-1.3 14-1.4zm125 0c4.4 0 11.1.7 15 1.5 3.8.8 10.1 3.2 13.9 5.2 4.2 2.3 9 6 12.2 9.5 3 3.2 6.7 8.6 8.3 12s3.6 9.7 4.5 14c1.1 5.5 1.6 13.4 1.6 27.5 0 13.5-.5 22-1.5 26.8-.8 3.8-3 10.1-4.9 13.9-2 4.2-5.6 9.3-8.8 12.5-3 3.1-8.1 7-11.4 8.7-3.2 1.8-8.6 3.9-11.9 4.8-3.7 1-10.1 1.6-16.5 1.6-6.9 0-12.4-.5-16-1.6-3-.9-8.2-3-11.5-4.7s-8.5-5.6-11.5-8.7-6.8-8.3-8.4-11.6-3.6-8-4.4-10.5c-1.1-3.3-1.6-10.7-1.9-28.5-.4-20.2-.2-25.1 1.3-31.5.9-4.1 3.3-10.6 5.3-14.5s5.8-9.1 8.7-12c2.8-2.7 7.3-6.2 10-7.7 2.7-1.4 8.3-3.6 12.4-4.7 4.4-1.1 10.8-2 15.5-2zm127 .1c4.4 0 10.9.6 14.5 1.4s6.5 1.5 6.6 1.7c.1.1-1.1 5.3-2.5 11.4-1.4 6.2-2.8 11.5-3.1 11.8s-4.1 0-8.5-.6c-6.7-.9-8.9-.9-13.5.4-4.2 1.2-6.5 2.7-9.8 6.2-2.3 2.5-4.7 6.2-5.2 8.3-.6 2.2-1 22.2-1 94.3l-29-.1v-46.7c0-29 .4-48.5 1.1-51.3.6-2.4 2.1-6.7 3.4-9.5 1.3-2.7 4.5-7.4 7.2-10.5 2.8-3 7.2-6.9 9.9-8.7 2.7-1.7 6.9-3.9 9.4-4.8s6.3-2 8.5-2.4c2.2-.5 7.6-.9 12-.9zm81-.1c4.4 0 10.9.7 14.5 1.5 3.6.9 9.2 3 12.5 4.8 3.2 1.7 8.3 5.5 11.2 8.4 3.3 3.3 6.5 7.8 8.4 12 1.8 3.7 3.8 9.7 4.5 13.2 1 4.9 1.4 17.6 1.4 95h-29v-41.2c0-25.9-.4-43.5-1.1-47.3-.6-3.3-1.8-7.3-2.6-9-.9-1.6-2.7-4.2-4.2-5.8-1.4-1.6-4-3.5-5.6-4.4-1.8-1-5.5-1.6-9.5-1.6-5.1-.1-7.4.5-10.8 2.4-2.4 1.3-5.4 4-6.8 5.9-1.3 2-3.1 5.8-3.9 8.5-1.3 4.2-1.5 12.5-1.5 92.5h-29v-45.2c0-37.3.3-46.4 1.6-51.8.8-3.5 2.9-9.1 4.7-12.4s5.5-8.3 8.2-11c2.8-2.8 7.7-6.5 11-8.2 3.3-1.8 8.7-3.9 12-4.7s9.6-1.5 14-1.6zM590.8 86.2c-2.8.8-6.1 2.7-8.2 4.8-2 1.9-4.5 5.3-5.5 7.5-1.1 2.1-2.5 8-3.1 12.9-.8 5.7-1.1 14.7-.7 24.1.3 9.4 1.1 16.8 2.1 19.9.9 2.8 2.6 6.6 3.9 8.5 1.4 2.1 4.5 4.7 7.8 6.3 4.2 2.2 6.8 2.8 11.6 2.8 3.5 0 8-.7 10-1.6 2.1-.9 5.5-3.2 7.6-5.2 2.7-2.7 4.3-5.6 5.8-10.3 1.3-4.4 2.1-10.7 2.5-19.9.4-7.5.2-17.6-.4-22.6-.5-4.9-2-11.2-3.1-13.9-1.2-2.8-3.2-6.1-4.4-7.4s-3.9-3.2-6-4.2c-2-1.1-6.3-2.2-9.5-2.4-3.1-.3-7.8 0-10.4.7zm125.7 0c-2.2.8-5.4 2.3-7 3.4-1.7 1.2-4.2 4.3-5.7 7s-3.2 8-3.9 11.9c-.7 4.5-1 13.5-.7 25.5.4 14.6.9 19.5 2.4 23.5 1 2.7 3.6 6.8 5.9 9.1 2.6 2.7 5.5 4.6 8.5 5.4 2.5.6 7.4 1 11 .8 4.9-.3 7.5-1.1 10.7-3.1 2.4-1.5 5.4-4.4 6.8-6.5 1.3-2.1 3.2-6.7 4.1-10.2 1.3-5.4 1.5-10.2 1.2-27.1-.3-13.5-.9-21.6-1.8-23.9-.7-2-2.5-5.4-4-7.5-1.5-2.4-4.5-5-7.1-6.3-2.4-1.2-7.1-2.4-10.4-2.7-3.6-.3-7.6 0-10 .7zm118 .2c-2.2.9-4.8 2.3-5.9 3.3-1 1-2.7 3.4-3.7 5.5-1.6 3.2-1.9 6-1.9 18 0 12.8.2 14.7 2.2 18.7 1.3 2.5 3.9 5.6 5.8 6.8s5.1 2.5 7 2.8c1.9.4 5.3.4 7.5 0 2.2-.3 5.6-1.6 7.5-2.8s4.5-4.3 5.8-6.8c2-4 2.2-5.9 2.2-18.2 0-10.2-.4-14.7-1.6-17.5-.8-2.1-2.3-4.6-3.2-5.6s-2.9-2.5-4.5-3.3c-1.5-.7-5.1-1.6-8-1.9-3.4-.3-6.6.1-9.2 1zm118.5.1c-2.5.8-5.8 2.7-7.4 4.2s-3.9 5-5.2 7.8c-1.7 3.5-2.4 6.7-2.4 11.2v6.3h45c0-10.1-.7-14.7-1.6-16.8-.8-2.1-3.2-5.5-5.2-7.5-2.4-2.5-5.5-4.4-8.7-5.3-2.8-.8-6.1-1.4-7.5-1.4s-4.5.7-7 1.5zm249.5-.7c-1.7.4-4.6 1.6-6.5 2.8-1.9 1.1-4.7 3.7-6.2 5.9s-3.3 6-4 8.5c-.9 3.1-1.3 11.2-1.3 26.5 0 14.8.4 23.1 1.2 25.5.7 1.9 2.6 5.6 4.3 8.2 2.3 3.7 4.3 5.3 8.7 7.4 4.8 2.2 6.9 2.6 11.9 2.2 4.9-.3 7.1-1 10.4-3.3 2.4-1.7 5.6-5.3 7.1-8 1.7-3.1 3.2-7.8 3.8-12 .6-3.9 1.1-18.2 1.1-31.8V93c-5-3.2-8.8-4.8-11.5-5.6-2.8-.8-7.5-1.7-10.5-1.9-3-.3-6.9-.1-8.5.3zm122 .6c-3.5 1-6.2 2.7-9.1 5.7-2.8 3-4.8 6.3-6 10.4-1.6 5.1-1.9 9.1-1.9 27.4.1 20.4.2 21.9 2.5 27.6 1.3 3.3 4 7.5 5.9 9.5 2 1.9 5.4 4 7.6 4.7s6.2 1.2 9 1.2c2.7 0 6.6-.4 8.5-1 1.9-.5 5-2 6.8-3.2 2-1.4 4.5-4.7 6.5-8.7l3.2-6.5c.5-33.4.2-44.3-.4-47.5-.6-3.1-2.5-7.8-4.3-10.5-1.9-2.9-5-6-7.3-7.3-2.3-1.2-6.5-2.4-10-2.7-3.7-.3-7.9 0-11 .9zm124.5.4c-3.7 1.4-6.6 3.3-8.8 5.8-1.8 2.1-4 5.9-4.9 8.3-1.3 3.5-1.7 9.3-2.1 24.6-.2 13.1 0 22 .8 25.9.7 3.4 2 7.6 3 9.5.9 2 3.4 5 5.4 6.8s5.3 3.7 7.3 4.2c2.1.6 6 1 8.8 1 2.7 0 6.8-.5 9-1.2s5.8-3 8.1-5.2c2.5-2.5 4.8-6.1 6-9.6 1.7-4.8 1.9-8.2 1.9-27.9 0-20.7-.2-23-2.2-28.1-1.2-3-3.7-7-5.5-8.9-1.8-1.8-4.8-4-6.6-4.7-1.7-.7-5.8-1.6-9-1.9-4.2-.4-7.2 0-11.2 1.4zM6 133.9l7.7.1c4.3 0 12.5.7 18.3 1.5 5.8.9 15 2.7 20.5 4.1 5.5 1.5 13.8 4.1 18.5 5.9 4.7 1.7 12.3 5.1 17 7.4 4.7 2.4 11.2 5.9 14.5 7.8 3.3 2 10.3 6.8 15.5 10.7s13.8 11.3 19 16.5c5.3 5.3 12.3 13.2 15.7 17.5 3.3 4.4 8.6 12.3 11.8 17.5 3.2 5.3 7.5 13.2 9.6 17.5 2 4.4 5.3 12.8 7.3 18.5 2 5.8 4.5 14.4 5.6 19 1.1 4.7 2.4 11.5 2.9 15 .6 3.6 1.4 11.2 2.6 27.1h-62l-.8-9c-.4-5-1.6-13.2-2.7-18.3-1.2-5.1-3.7-13.3-5.7-18.3-1.9-4.9-4.7-11-6.1-13.5-1.4-2.4-4.7-7.6-7.3-11.5-2.5-3.8-7.7-10.3-11.5-14.3-3.8-4.1-9.8-9.7-13.4-12.5-3.5-2.8-10.1-7.3-14.5-9.9-4.4-2.7-12.5-6.6-18-8.7-5.5-2.2-14.6-4.8-20.3-6-5.6-1.1-12.7-2.1-15.7-2.1s-6.2-.2-7-.5C6.2 195 6 190.7 6 164.5zm625 127l7-.1v9.5c0 5.3.1 9.6.2 9.6.2 0 2.1-.7 4.3-1.6 2.6-1.1 5.4-1.4 8-1.1 2.2.4 5.3 1.6 6.9 2.9 1.6 1.2 3.5 3.7 4.3 5.5.9 2.2 1.3 8.2 1.3 34.3h-7v-15.3c.1-13.8-.1-15.5-2-18-1.7-2.3-2.8-2.7-6.5-2.7-2.5 0-5.6.5-9.6 2.5l.1 33.5h-7zm-20.3 4.1c.9-.1 1.3 1.7 1.3 12.9h4c3.6 0 4 .2 4 2.5 0 2.2-.4 2.5-8 2.5v37h-7v-37l-2.8-.3c-2-.2-2.8-.8-3-2.5-.2-1.9.3-2.2 5.8-2.2v-6c0-5.5.2-6.1 2.2-6.4l3.5-.5zm541 0c.9-.1 1.3 1.7 1.3 12.9l4.2.2c3.5.2 4.3.6 4.3 2.3 0 1.5-.8 2.1-8 3l-.5 36.5h-7v-37l-2.8-.3c-2-.2-2.8-.8-3-2.5-.2-1.9.3-2.2 5.8-2.2v-6c0-5.5.2-6.1 2.2-6.4l3.5-.5zM433 277.3c1.9.3 6.3.5 9.7.5 5.9 0 6.3.2 6 2.3-.1 1.7-.9 2.3-5.7 2.8l1.5 3.5c.8 1.9 1.5 5.4 1.5 7.7s-.9 6.2-2 8.5-3.2 4.9-4.8 5.7c-1.5.8-4.7 1.6-7.2 1.7-3.4.3-4.6.8-4.8 2.1-.1 1.2.7 1.9 2.5 2.3l8 2c2.9.8 6.4 2.6 7.8 4 1.6 1.6 2.5 3.6 2.5 5.7 0 1.9-.9 4.5-2.2 6.2-1.3 1.6-3.8 3.5-5.6 4.2-1.7.8-5.8 1.4-9 1.4-3.1 0-8.1-.7-11-1.5-2.8-.9-5.2-2-5.2-2.5 0-.6.4-1.9 1-3 .9-2 1.2-2 5.7-.5 2.7.8 6.7 1.5 9 1.5 2.4 0 5.4-.5 6.8-1 1.4-.6 2.7-1.9 3-3 .3-1.2-.1-2.8-.8-3.6-.6-.9-3-2-5.2-2.5s-5.7-1.4-7.8-2c-2.2-.6-4.3-2-5.2-3.4-1.3-2.1-1.3-3.1-.3-5.6 1.1-2.6 1.1-3.2-.4-4.2-1-.7-2.4-2.9-3.3-5-.8-2.1-1.5-5.2-1.5-7s.2-4.6.5-6.2c.3-1.7 1.6-4.3 2.8-5.8 1.2-1.6 4-3.5 6.2-4.3s5.6-1.2 7.5-1zm43-.3c1.4-.1 3.1.2 3.9.6.9.5 1.1 1.7.7 3.5-.6 2.5-1 2.8-5.1 2.8-3.8 0-4.8.4-6.5 2.7-1.9 2.5-2.1 4.2-2 33.3h-7v-15.5c0-12.8.3-16.2 1.7-19.1 1-2 2.9-4.4 4.3-5.2 1.4-.9 3.6-1.9 5-2.3s3.6-.8 5-.8zm33 .4c2.5.3 5.8 1.4 7.5 2.4 1.6 1 3.9 3.6 5 5.7 1.6 3.1 2 5.8 2 13.9-.1 7.5-.5 10.8-1.8 13.2-.9 1.8-3.2 4.3-5 5.5-2.5 1.8-4.6 2.3-9.9 2.3-5.1 0-7.3-.5-9.5-2.1-1.5-1.1-3.8-4.1-5.1-6.5-1.7-3.5-2.2-6.1-2.2-11.9 0-4.2.5-9.2 1-11.3s2-4.9 3.2-6.3c1.3-1.4 4.1-3.2 6.3-4 2.5-.9 5.7-1.3 8.5-.9zm207.5-.2c2.9.4 4.8 1.5 10.1 7.2l3.2-3.3c1.7-1.8 4.7-3.5 6.4-3.9 1.8-.3 4.9-.1 6.8.5s4.7 2.4 6.2 4.1c1.6 1.7 3.2 4.7 3.8 6.8.5 2.1 1 9.9 1 31.3h-7l-.3-15.3c-.2-12.6-.5-15.8-2-18-1.4-2.2-2.5-2.7-5.5-2.7-2 0-4.2.3-4.9.7-.6.4-1.9 2.4-2.7 4.5-1.2 2.8-1.6 7.3-1.6 30.8h-7l-.3-15.9c-.2-14.4-.4-16.2-2.2-18.1-1.3-1.4-3.2-2.1-5.5-2.1s-4.2.7-5.5 2.1c-1.8 1.9-2 3.7-2.5 34h-7v-15.3c0-12.5.4-16 1.8-19.2 1.3-2.9 3.1-4.7 6.3-6.4 3.2-1.6 5.5-2.1 8.4-1.8zm65-.2c1.6-.1 4.9.8 7.2 1.9 3.2 1.4 4.8 3 6.3 6.2 1.5 3.3 2 6.4 2 14.3 0 7.5-.4 10.8-1.8 13.4-.9 1.9-2.8 4.2-4.2 5.2-1.4 1.1-4.1 2.2-6 2.5s-5.2.3-7.3 0c-2-.4-5.1-1.8-6.7-3.1-1.7-1.4-3.5-4.2-4.1-6.3-.9-2.8-.9-4.7 0-7.5.7-2.3 2.3-4.6 4.3-6 2.4-1.6 5.3-2.3 19-3.2l-.6-3.5c-.4-2-1.4-4.4-2.4-5.4-1.5-1.7-2.7-1.8-17.2-.6l-.4-2.8c-.2-1.5-.4-2.9-.3-3s2.2-.6 4.7-1.1 5.8-1 7.5-1zm47 .4c2.2.3 5.3 1.3 6.9 2.3 1.6.9 3.7 3.2 4.7 5.2 1.6 2.9 1.9 5.7 1.9 35h-7v-15.3c.1-13.8-.1-15.5-2-18-1.7-2.3-2.8-2.7-6.5-2.7-3.8 0-4.8.4-6.5 2.7-1.9 2.5-2.1 4.2-2 33.3h-7v-15.5c0-12.8.3-16.2 1.7-19.1 1-2 2.9-4.4 4.3-5.2 1.4-.9 3.6-1.9 5-2.4 1.4-.4 4.3-.5 6.5-.3zm43.5.1c2.5.2 5.7 1.2 7.2 2.1 1.5 1 3.4 3 4.3 4.5 1.1 2.1 1.5 5.9 1.5 15.3 0 10.4-.3 12.9-1.9 15.2-1 1.5-3.7 3.5-6 4.5-2.2 1-5.5 1.8-7.1 1.8-1.7 0-4.5-.7-6.3-1.4-1.7-.8-4.2-2.5-5.5-3.8-1.2-1.3-2.5-4.1-2.8-6.3-.5-2.8-.1-5.1 1-7.3.9-1.8 2.8-4 4.3-4.9 1.7-1 5.9-2 17.8-2.8l-.3-3.5c-.2-2-1.1-4.4-2-5.4-1.5-1.6-2.9-1.8-9.4-1.5-7.5.3-7.7.3-8.3-2.1-.3-1.4-.4-2.7-.3-2.8.2-.1 2.3-.6 4.8-1.2 2.5-.5 6.5-.7 9-.4zm42-.2c2.5.3 7.1.6 10.2.6 5.1 0 5.8.2 5.8 2 0 1.4-.8 2.1-6 3l1.5 3.5c.8 1.9 1.5 5.4 1.5 7.7s-.9 6.2-2 8.5c-1.2 2.6-3.2 4.8-5 5.8-1.7.8-4.9 1.6-7.2 1.7-3.2.2-4.3.7-4.5 2-.2 1.2.6 1.9 2.4 2.3l8 2c2.9.8 6.4 2.6 7.8 4 1.6 1.6 2.5 3.6 2.5 5.7 0 1.9-.9 4.5-2.2 6.2-1.3 1.6-3.8 3.5-5.6 4.2-1.7.8-5.8 1.4-9 1.4-3.1 0-8.1-.7-11-1.5-2.8-.9-5.2-2-5.2-2.5 0-.6.4-1.9 1-3 .9-2 1.2-2 5.7-.5 2.7.8 6.8 1.5 9.3 1.4 2.5 0 5.6-.5 7-1.2s2.6-2.3 2.7-3.5c.2-1.4-.5-2.8-2-3.7-1.2-.7-4.7-1.9-7.7-2.5s-6.5-1.8-7.8-2.6c-1.2-.8-2.4-2.3-2.7-3.4-.3-1.2-.1-2.9.5-4 .7-1.5.6-2.5-.4-3.8-.8-1-2.2-3.4-3-5.5-.9-2.1-1.6-5.7-1.6-8s.9-6.2 2-8.5c1.5-3.1 3.1-4.8 6.2-6.3 3.2-1.5 5.5-1.9 8.8-1.5zm41.5-.5c1.6 0 5 1 7.5 2.3 2.7 1.4 5.2 3.6 6.4 5.8 1.1 1.9 2.2 6.3 3.1 16H947v4c0 2.8.7 4.8 2.4 6.7 2 2.3 3.2 2.8 7.3 2.8 2.6 0 6.3-.4 8-.8 3-.7 3.3-.5 3.8 2 .3 1.5.2 3.1-.2 3.5-.5.4-4.2 1-8.3 1.3-6.6.5-8.1.3-11.9-1.7-2.8-1.5-5.2-3.7-6.3-5.8-1.4-2.8-1.8-5.8-1.8-13.8s.4-11.1 1.8-14c1.3-2.5 3.4-4.5 6.3-6 2.4-1.2 5.7-2.3 7.4-2.3zm43.7 0c1 0 3.3.6 5 1.4 1.8.7 4.3 2.5 7.8 6.7l1.5-2.5c.8-1.4 3.2-3.3 5.2-4.1 2.3-1 5.2-1.4 7.3-1 1.9.3 4.7 1.4 6.2 2.5 1.6 1.1 3.6 3.5 4.5 5.3 1.4 2.6 1.8 6.5 2.3 34.8l-7.5-.5-.3-14c-.1-7.7-.4-15.1-.7-16.3s-1.2-2.9-2-3.7c-.8-.9-2.9-1.5-4.5-1.5-1.7 0-3.9.4-5 1-1.1.5-2.5 2.6-3 4.7s-1 9.7-1 30.3h-7l-.4-15.9c-.4-14.4-.7-16.1-2.6-18.3q-2.1-2.4-4.9-2.2c-1.6.1-3.9 1.2-5.2 2.3-2.3 2-2.4 2.6-2.9 34.1h-7v-15.8c0-13.3.3-16.3 1.8-19.2 1.2-2.3 3.5-4.4 6.3-5.8 2.4-1.3 5.2-2.3 6.1-2.3zm70.8.5c2.5.3 5.6 1.4 7 2.4s3.5 3.4 4.8 5.2c1.7 2.7 2.2 4.8 2.2 16h-25v2.5c0 1.3.6 3.9 1.3 5.7.9 2.1 2.5 3.7 4.8 4.7 2.7 1.1 4.6 1.2 9.4.4 3.3-.6 6-1 6.1-1 .1.1.4 1.4.8 2.9.5 2.6.3 2.8-3.7 3.9-2.3.6-6.8.9-9.9.7-3.7-.2-6.6-1.1-8.5-2.4-1.5-1.1-3.9-4.1-5.1-6.5-2.1-3.9-2.3-5.6-2-13.9.3-7.3.8-10.4 2.3-13 1.2-2.1 3.9-4.5 6.5-5.9 3.5-1.8 5.5-2.2 9-1.7zm45 0c2.5.4 5.8 1.4 7.3 2.3 1.6 1 3.7 3.4 4.8 5.5 1.6 3.2 1.9 6 1.9 34.8h-7v-15.5c0-14.7-.1-15.7-2.3-18.1-1.7-2-3.1-2.6-6.2-2.6-2.5.1-4.7.8-5.8 1.9-1 .9-2.2 3.3-2.8 5.3-.5 1.9-.9 9.2-.9 29h-7l.2-15.8c.3-13.7.6-16.2 2.3-19.2 1.2-2.1 3.9-4.5 6.5-5.9 3.6-1.8 5.4-2.2 9-1.7zm-576 .6c2.8 0 3 .2 3.5 4.7l1 14.8c.3 5.5 1 11.1 1.5 12.5.5 1.3 2 3.1 3.2 3.8 1.3.8 3.4 1.1 5 .8 1.7-.4 3.4-1.8 4.3-3.6 1.1-2.3 1.5-6.5 1.5-30h7v13.5c0 7.4.4 14.5 1 15.7.5 1.2 2 2.9 3.2 3.6 1.4.8 3.4 1.1 5 .8 1.7-.4 3.4-1.8 4.2-3.4s1.9-8.9 2.5-17c.6-7.8 1.3-14.7 1.6-15.2.3-.6 1.8-1 6.5-1l-.6 10.2c-.3 5.6-1 13.4-1.5 17.3-.5 3.8-1.6 8-2.4 9.2s-3 3.2-4.8 4.3c-2.3 1.5-4.5 2-7.9 1.8-3.4-.3-5.4-1.1-10.3-5.8l-2.5 2.5c-1.8 1.9-3.9 2.7-7.5 3.1-3.9.4-5.7 0-8.3-1.6-1.8-1.2-4-3.9-5.1-6.3q-1.9-4.3-3.2-18.7c-.7-7.9-.9-14.8-.5-15.3.4-.4 2-.7 3.6-.7zm-38.9 8.4c-1.8 2-2.4 4.1-2.8 10.3-.4 4.6-.1 9.3.6 11.5.7 2.5 2.1 4.2 4.1 5.3 1.6.8 4.2 1.5 5.6 1.5s3.8-1.2 5.3-2.8c2-1.9 3.1-4.2 3.6-7.7.4-2.8.5-7.3.1-10-.3-2.8-1.4-6.2-2.4-7.5-1.5-2-2.9-2.6-6.8-2.8-4.3-.3-5.3 0-7.3 2.2zm-74-.9c-2.1 1.4-2.4 2.2-2.2 8 .1 5 .5 6.9 2.1 8.5 1.1 1.1 3.2 2 4.7 2 1.6 0 3.8-.7 5-1.5 2-1.4 2.3-2.4 2.3-8.5 0-6.2-.3-7.2-2.3-8.6-1.2-.8-3.3-1.5-4.7-1.5s-3.6.7-4.9 1.6zm480.9.5c-1.6 1.5-2 3.3-2 8 0 4.6.4 6.4 2 8 1.1 1.1 3.3 2 5 2s3.9-.9 5-2c1.6-1.6 2-3.4 2-8.5 0-5.7-.3-6.8-2.3-8.1-1.2-.8-3.4-1.5-5-1.5-1.5 0-3.6.9-4.7 2.1zm43.8-.8c-1 .7-2.2 2.5-2.8 4-.5 1.5-1 3.4-1 4.3 0 1.2 1.6 1.5 8.5 1.5h8.5c0-4.9-1-7-2.5-8.5-1.7-1.7-3.6-2.5-5.8-2.5-1.8 0-4 .5-4.9 1.2zm111.7 1.2c-1.5 1.5-2.4 3.7-2.5 5.5v3.1h17c-.9-5.1-2.2-7.6-3.6-8.8-1.4-1.3-3.7-2.2-5.5-2.2-1.9 0-3.9.9-5.4 2.4zM776 302.9c-1.1 1.1-2 3.1-2 4.5 0 1.3.9 3.3 2 4.5 1.3 1.2 3.4 2 5.7 2 2.4 0 4.5-.7 5.5-1.8 1.1-1.1 1.8-3.4 1.8-6.5v-4.7c-9.7 0-11.5.4-13 2zm89.1-.5c-1.7 1.1-2.3 2.4-2.2 4.5 0 1.6 1 3.8 2.1 5 1.2 1.2 3.3 2 5.5 2s4.3-.8 5.5-2c1.4-1.5 2-3.4 2-6.5v-4.5c-8.3-.1-11.5.6-12.9 1.5z"/></svg>