<svg xmlns="http://www.w3.org/2000/svg" width="953" height="366" fill="#fff" ><path d="M126.1 182V58.7h16.7V182zm126.1-55.8V182H237v-55.3q0-13.2-5.1-19.7-5.2-6.5-15.4-6.5-12.3 0-19.4 7.8-7.1 7.9-7.1 21.4V182h-15.3V89.5H190v14.4q5.4-8.4 12.8-12.5 7.4-4.1 17.1-4.1 15.9 0 24.1 9.9 8.2 9.8 8.2 29zm89.3-34v14.4q-6.5-3.3-13.4-5-7-1.6-14.4-1.6-11.3 0-17 3.5-5.6 3.4-5.6 10.4 0 5.2 4 8.3 4.1 3 16.3 5.7l5.2 1.2q16.2 3.4 23 9.8 6.8 6.3 6.8 17.6 0 12.9-10.2 20.4-10.2 7.5-28 7.5-7.5 0-15.6-1.4-8-1.5-16.9-4.4v-15.7q8.4 4.4 16.6 6.6 8.2 2.2 16.2 2.2 10.7 0 16.5-3.7 5.8-3.7 5.8-10.4 0-6.2-4.2-9.5-4.1-3.3-18.3-6.3l-5.2-1.3q-14.2-2.9-20.4-9-6.3-6.2-6.3-17 0-13 9.2-20.1 9.3-7.1 26.3-7.1 8.4 0 15.8 1.2 7.5 1.2 13.8 3.7zm43.8 75.9v49.1H370V89.5h15.3v14q4.8-8.2 12.1-12.2 7.3-4 17.5-4 16.8 0 27.3 13.3 10.6 13.4 10.6 35.2 0 21.8-10.6 35.2-10.5 13.4-27.3 13.4-10.2 0-17.5-4-7.3-4-12.1-12.3zm51.7-32.3q0-16.7-6.9-26.2-6.9-9.6-18.9-9.6-12.1 0-19 9.6-6.9 9.5-6.9 26.2 0 16.8 6.9 26.4 6.9 9.5 19 9.5 12 0 18.9-9.5 6.9-9.6 6.9-26.4zm41 46.2V89.5h15.2V182zm0-109.3V53.5h15.2v19.2zm100.5 15.4l.1 15.6q-2.6-1.5-5.6-2.1-3-.8-6.7-.8-12.8 0-19.8 8.4-6.8 8.4-6.8 24.1V182h-15.3V89.5h15.3v14.4q4.8-8.5 12.4-12.5 7.7-4.1 18.7-4.1 1.6 0 3.5.2 1.9.2 4.2.6zm16 93.9V89.5h15.2V182zm0-109.3V53.5h15.2v19.2zm123.9 53.5V182h-15.2v-55.3q0-13.2-5.1-19.7-5.2-6.5-15.4-6.5-12.3 0-19.4 7.8-7.1 7.9-7.1 21.4V182h-15.3V89.5h15.3v14.4q5.4-8.4 12.8-12.5 7.4-4.1 17.1-4.1 15.9 0 24.1 9.9 8.2 9.8 8.2 29zm91.2 8.5q0-16.5-6.9-25.6-6.8-9.1-19.1-9.1-12.2 0-19 9.1-6.8 9.1-6.8 25.6 0 16.4 6.8 25.5 6.8 9.1 19 9.1 12.3 0 19.1-9.1 6.9-9.1 6.9-25.5zm15.2-45.2v81q0 23.6-10.5 35.2-10.5 11.5-32.2 11.5-8 0-15.1-1.2-7.1-1.2-13.8-3.7v-14.8q6.7 3.7 13.3 5.4 6.5 1.7 13.3 1.7 14.9 0 22.3-7.7 7.5-7.9 7.5-23.7v-7.5q-4.7 8.2-12.1 12.3-7.3 4-17.6 4-17 0-27.4-13-10.4-12.9-10.4-34.3 0-21.5 10.4-34.5 10.4-12.9 27.4-12.9 10.3 0 17.6 4 7.4 4.1 12.1 12.2v-14zM317.5 327v-92.5h15.2V327zm0-109.3v-19.2h15.2v19.2zm123.9 53.5V327h-15.2v-55.3q0-13.2-5.1-19.7-5.2-6.5-15.4-6.5-12.3 0-19.4 7.8-7.1 7.9-7.1 21.4V327h-15.3v-92.5h15.3v14.4q5.4-8.4 12.8-12.5 7.4-4.1 17.1-4.1 15.9 0 24.1 9.9 8.2 9.8 8.2 29zm89.3-34v14.4q-6.5-3.3-13.4-5-7-1.6-14.4-1.6-11.3 0-17 3.5-5.6 3.4-5.6 10.4 0 5.2 4 8.3 4.1 3 16.3 5.7l5.2 1.2q16.2 3.4 23 9.8 6.8 6.3 6.8 17.6 0 12.9-10.2 20.4-10.2 7.5-28 7.5-7.5 0-15.6-1.4-8-1.5-16.9-4.4v-15.7q8.4 4.4 16.6 6.6 8.2 2.2 16.2 2.2 10.7 0 16.5-3.7 5.8-3.7 5.8-10.4 0-6.2-4.2-9.5-4.1-3.3-18.3-6.3l-5.2-1.3q-14.2-2.9-20.4-9-6.3-6.2-6.3-17 0-13 9.2-20.1 9.3-7.1 26.3-7.1 8.4 0 15.8 1.2 7.5 1.2 13.8 3.7zm29.1 89.8v-92.5H575V327zm0-109.3v-19.2H575v19.2zm107.9 62q0-16.5-6.9-25.6-6.8-9.1-19.1-9.1-12.2 0-19 9.1-6.8 9.1-6.8 25.6 0 16.4 6.8 25.5 6.8 9.1 19 9.1 12.3 0 19.1-9.1 6.9-9.1 6.9-25.5zm15.2-45.2v81q0 23.6-10.5 35.2-10.5 11.5-32.2 11.5-8 0-15.1-1.2-7.1-1.2-13.8-3.7v-14.8q6.7 3.7 13.3 5.4 6.5 1.7 13.3 1.7 14.9 0 22.3-7.7 7.5-7.9 7.5-23.7v-7.5q-4.7 8.2-12.1 12.3-7.3 4-17.6 4-17 0-27.4-13-10.4-12.9-10.4-34.3 0-21.5 10.4-34.5 10.4-12.9 27.4-12.9 10.3 0 17.6 4 7.4 4.1 12.1 12.2v-14zm108.2 36.7V327h-15.2v-55.3q0-13.2-5.2-19.7-5.1-6.5-15.3-6.5-12.3 0-19.4 7.8-7.1 7.9-7.1 21.4V327h-15.3V198.5h15.3v50.4q5.4-8.4 12.8-12.5 7.4-4.1 17.1-4.1 15.9 0 24.1 9.9 8.2 9.8 8.2 29zm30-63h15.3v26.3h31.3v11.8h-31.3v50.2q0 11.3 3.1 14.6 3.1 3.2 12.6 3.2h15.6V327h-15.6q-17.6 0-24.3-6.5-6.7-6.6-6.7-24v-50.2H810v-11.8h11.1zm125.6 29v14.4q-6.5-3.3-13.4-5-7-1.6-14.4-1.6-11.3 0-17 3.4-5.6 3.5-5.6 10.4 0 5.3 4 8.4 4.1 2.9 16.3 5.7l5.2 1.1q16.2 3.5 23 9.9 6.8 6.2 6.8 17.5 0 12.9-10.2 20.4-10.2 7.6-28 7.6-7.5 0-15.6-1.4-8-1.5-16.9-4.4v-15.7q8.4 4.4 16.6 6.6 8.2 2.1 16.2 2.1 10.7 0 16.5-3.6 5.8-3.7 5.8-10.4 0-6.2-4.2-9.5-4.1-3.3-18.3-6.4l-5.2-1.2q-14.2-3-20.4-9.1-6.3-6.2-6.3-16.9 0-13.1 9.2-20.2 9.3-7.1 26.3-7.1 8.4 0 15.9 1.3 7.4 1.2 13.7 3.7z"/><path d="M75 84s8.6-7.1 25-6 19.9 5.9 22 9 4 13.8 2 19c0 .2 3 3 3 3l1 8-1 2-7-11s-4.3 4.4-14 4c-9.8-.4-12.8-3.8-14-8s-2.2-20.9-17-19c-.9.1 0-1 0-1z"/><path fill-rule="evenodd" d="M99.7 172c-6.5 0-12.8-.8-18.9-2.2l-5.6 18.4c2.1 2.5 2.9 5.9 1.9 9.3L49 290.3c-1.6 5.3-7.2 8.3-12.4 6.7-5.3-1.6-8.3-7.2-6.7-12.5L58 191.7c1-3.3 3.6-5.7 6.6-6.7l5.6-18.4C39.1 154.7 17 124.6 17 89.3 17 43.5 54 6.5 99.7 6.5c28.3 0 53.1 14.1 68.1 35.6l-13.4 6.2C141.9 31.7 122.1 21 99.7 21 62 21 31.5 51.5 31.5 89.2c0 37.8 30.5 68.3 68.3 68.3 4.8 0 9.6-.5 14.2-1.5v14.8q-7 1.2-14.3 1.2z"/></svg>