<svg xmlns="http://www.w3.org/2000/svg" width="606" height="204" fill="#fff" ><path fill-rule="evenodd" d="M128 57q25.3-.1 50.6-.2 11.7 0 23.5-.1 10.3-.1 20.5-.1 5.4 0 10.8 0c45.9-.4 45.9-.4 60.8 12.2 4.9 5.2 7.5 10.6 8 17.8-.6 15.7-7 32.9-18.5 43.7-9.4 7.7-19.4 11.7-30.7 15.7 2 8.8 4.1 17.6 6.6 26.4q.3 1.1.6 2.3 1.4 4.7 2.7 9.5 1.1 3.5 2.1 7 .3 1.1.6 2.2c1 3.8 1.4 6.6 1.4 10.6h-56q-10-26-20-52h-35c-1.1 3.7-2.3 7.3-3.5 11.1q-1.6 5.3-3.3 10.6-1.1 3.7-2.3 7.4-1.6 5.3-3.3 10.6-.5 1.7-1 3.4-.5 1.5-1 3.1-.4 1.4-.9 2.7c-.7 2.1-.7 2.1-1.7 3.1q-2.6.1-5.2.1-1.6 0-3.3 0-1.8 0-3.6 0-1.8 0-3.7 0-5.9 0-11.8 0-3.9 0-7.9-.1-9.7 0-19.5 0c.6-7.2 2.6-13.7 4.8-20.5q.9-2.8 1.8-5.7.9-3 1.9-6 3-9.7 6.1-19.3 1-3.4 2.1-6.8l14.7-47.4q1-3.2 2-6.4 1.8-6 3.6-12 .6-1.7 1.1-3.5.5-1.6 1-3.3c.5-1.4.5-1.4.9-2.9q2-6.6 4-13.2zm47 32c-2.2 5.9-4.3 11.8-6.2 17.8q-.4 1.3-.8 2.6-.4 1.2-.8 2.4-.3 1.1-.7 2.2c-.6 2.1-.6 2.1-.5 5q11.7.1 23.4.2 5.5 0 10.9 0 5.3.1 10.6.1 2.9 0 5.9 0c8.1 0 14.2-.5 20.9-5.2 4.5-6.1 6.9-13.6 6.3-21.1-2.9-2.9-5.7-3.9-9.7-4.1q-1.6 0-3.3 0h-3.8q-2 0-4.1 0-2 0-4.1 0-5.5 0-10.9 0-5.6 0-11.2.1-11 0-21.9 0z"/><path d="M501.5 56.7q5.5 0 10.9 0 10.4 0 20.7.1 11.8 0 23.5 0 24.2.1 48.4.2-1.4 4.9-2.8 9.8l-.7 2.8c-1.9 6.6-4.1 13-6.5 19.4q-.9 0-1.8 0-22 .1-43.9.2-10.7.1-21.3.1-10.2.1-20.5.2-3.9 0-7.8 0-5.5 0-11 .1-1.6 0-3.2 0c-7.1.1-13.5.5-18.9 5.7-3.2 5.3-3.8 9.6-3.6 15.7 7.1 2.2 13.7 2.3 21 2.3q3.9 0 7.7.1 6.1 0 12.1.1c51.8.2 51.8.2 66.7 15 5.2 5.7 6 11.5 5.9 19-1.7 15-8.5 28.2-19.4 38.5-25.4 19.6-59.8 18.3-90.2 18.2q-3.9 0-7.9 0-9.2 0-18.5-.1-10.5 0-21.1 0-21.6 0-43.3-.1c.7-7.1 2.9-13.7 5.1-20.4.5-1.9.5-1.9 1.1-3.7q1.4-4.5 2.8-8.9.9 0 1.8 0 22.2-.1 44.3-.2 10.7-.1 21.5-.1 9.3-.1 18.6-.1 5-.1 9.9-.1 5.5 0 11.1-.1h3.3c6.2 0 10.9-.7 16.5-3.4 3.7-4.1 6-9.5 6-15-1.8-2.9-4.5-3.7-7.7-4.6-5.1-.9-10.3-.7-15.5-.7q-2.9 0-5.8-.1-7.2 0-14.4-.1c-50-.2-50-.2-64.6-14.5-5-5.7-6.4-11.5-6-19 2.5-15.6 8.3-30 21-40 22.8-15.8 49.7-16.5 76.5-16.3zM46 57h57q-12.3 40.8-25 81.5-1.6 5.1-3.2 10.2l-.6 2q-4.1 13-8.1 26-.4 1.4-.9 2.9-1.9 6.3-3.9 12.7-.6 2.2-1.3 4.3l-1.1 3.7C58 203 58 203 57 204q-2.6.1-5.3.1-1.6 0-3.4 0h-3.6q-1.9 0-3.8 0-5 0-9.9 0-5.1 0-10.1-.1-10 0-19.9 0c5-18 10.5-35.8 16.1-53.6q3.1-9.9 6.2-19.7.7-2.5 1.5-5L46 57zm293 0h56q-7 23.8-14.3 47.5-.5 1.4-.9 2.8-2.6 8.5-5.3 17-3.9 12.7-7.9 25.4-.4 1.3-.9 2.7L350 204h-56c.7-4.6 1.3-8.3 2.6-12.6q.5-1.6 1-3.3c.5-1.7.5-1.7 1.1-3.5q.6-1.9 1.2-3.8 1.5-5.1 3.1-10.2 1.7-5.3 3.4-10.7 2.4-8 4.9-15.9 4.6-14.7 9.1-29.5 2.2-7.3 4.5-14.7 1.9-5.9 3.7-11.9 1.7-5.6 3.4-11.2.7-2 1.3-4.1.9-2.8 1.8-5.7.5-1.5 1-3.2c.9-2.7.9-2.7 2.9-6.7z"/><path fill-rule="evenodd" d="M17 40.6q-3.3 0-5.4-1.4-2-1.4-2.9-3.9h-.1q0 .3-.3 1.7-.2 1.5-2.7 14.5H.7l6.7-34.6q.7-3 1-6h4.5q0 .8-.2 2.3-.2 1.4-.3 2.1h.1q2-2.6 4.2-3.8 2.2-1.1 5.4-1.1 4.2 0 6.6 2.5 2.3 2.6 2.3 7 0 5.5-1.6 10.6-1.7 5.1-4.7 7.6-3 2.5-7.7 2.5zm3.7-26.5q-2.7 0-4.6 1.1-1.9 1.1-3.2 3.3-1.3 2.2-2.1 5.5-.7 3.3-.7 5.9 0 3.4 1.7 5.3 1.7 1.8 4.7 1.8 3.4 0 5.3-2 2-2.1 3.1-6.5 1.1-4.4 1.1-7.7 0-3.3-1.3-5-1.3-1.7-4-1.7zm40 7.6q0 3.5-1.1 7.3-1.1 3.7-3.1 6.4-2 2.6-4.9 3.9-2.9 1.3-6.6 1.3-5.3 0-8.4-3.2-3.1-3.2-3.1-8.6.1-5.5 2-9.8 1.9-4.2 5.3-6.4 3.3-2.2 8.2-2.2 5.7 0 8.7 3 3 2.9 3 8.3zm-5 0q0-7.7-6.7-7.7-3.7 0-5.9 1.9-2.2 1.8-3.4 5.6-1.2 3.8-1.2 7.4 0 3.9 1.7 6Q42 37 45.3 37q2.7 0 4.4-.9 1.7-.9 3-2.9 1.2-2 2-5.1.8-3 1-6.4zm48.5-10.8L90.1 40.1h-5.6l-1-18.8-.2-6.4q-.8 2-1.4 3.6-.7 1.5-9.7 21.6h-5.6l-2.5-29.2h4.8L70 30.7l.1 5.3 2.2-5.1 9.2-20h5.2l1.2 20q.2 2.9.2 5.1.9-2.1 11.3-25.1zm24 15.6h-21.1q-.2 1-.3 3.1 0 3.5 1.8 5.4 1.8 2 5.4 2 2.6 0 4.8-1.3 2.1-1.3 3.3-3.6l3.7 1.7q-2 3.6-5 5.2-3 1.6-7.3 1.6-5.5 0-8.5-3-3-3-3-8.4 0-5.5 1.9-9.7 2-4.3 5.4-6.7 3.5-2.4 7.9-2.4 5.5 0 8.6 2.8 3 2.7 3 7.8 0 2.8-.6 5.5zm-20.5-3.7h16.2l.1-1.9q0-3.4-1.7-5.2-1.8-1.7-5-1.7-3.7 0-6.1 2.3-2.5 2.3-3.5 6.5zm42.3-12l-.9 4q-1.1-.3-2.4-.3-2.8 0-5.1 2.9-2.3 3-3.1 7.5l-3 15.2h-4.8l4.4-22.4.6-3.7.5-3.1h4.6l-.9 6h.1q1.7-3.6 3.5-5.1 1.7-1.4 4-1.4 1.2 0 2.5.4zm25.1 15.7H154q-.2 1-.3 3.1 0 3.5 1.8 5.4 1.8 2 5.4 2 2.6 0 4.8-1.3 2.1-1.3 3.3-3.6l3.7 1.7q-2 3.6-5 5.2-3 1.6-7.3 1.6-5.5 0-8.5-3-3-3-3-8.4 0-5.5 1.9-9.7 2-4.3 5.4-6.7 3.5-2.4 7.9-2.4 5.5 0 8.6 2.8 3 2.7 3 7.8 0 2.8-.6 5.5zm-20.5-3.7h16.2l.1-1.9q0-3.4-1.8-5.2-1.7-1.7-4.9-1.7-3.7 0-6.1 2.3-2.5 2.3-3.5 6.5zm32.9 17.8q-4.2 0-6.6-2.5-2.4-2.6-2.4-7 0-5.5 1.7-10.6 1.7-5.1 4.6-7.6 3.1-2.5 7.7-2.5 3.3 0 5.4 1.4 2.1 1.4 3 3.9h.1l.8-4.3L204 .1h4.8l-6.6 34q-.7 3.7-1 6h-4.6q0-1.4.5-4.4h-.1q-2 2.6-4.1 3.8-2.2 1.1-5.4 1.1zm1.4-3.7q2.7 0 4.5-1.1 2-1.1 3.3-3.3 1.3-2.2 2.1-5.5.7-3.3.7-5.9 0-3.4-1.7-5.2-1.7-1.9-4.8-1.9-3.2 0-5.2 2-1.9 1.9-3 6.3-1.2 4.5-1.2 7.9 0 3.3 1.3 5 1.2 1.7 4 1.7zm51.7-26.5q4.2 0 6.6 2.5 2.3 2.6 2.3 7 0 5.5-1.6 10.6-1.7 5.1-4.7 7.6-3 2.5-7.7 2.5-3.3 0-5.3-1.4-2.1-1.4-3-3.9h-.1q-.2 1-.6 2.8-.5 1.9-.5 2h-4.7q.1-.4.5-2.3.4-1.8.8-3.7l6.6-34h4.9l-2.2 11.4q-.3 1.2-1 3.8h.1q2-2.6 4.2-3.8 2.2-1.1 5.4-1.1zm-1.4 3.7q-2.7 0-4.6 1.1-1.9 1.1-3.2 3.3-1.3 2.2-2.1 5.5-.7 3.3-.7 5.9 0 3.4 1.7 5.3Q232 37 235 37q3.4 0 5.3-2 2-2.1 3.1-6.5 1.1-4.4 1.1-7.7 0-3.3-1.3-5-1.3-1.7-4-1.7zm11.4 37.4q-2 0-3.6-.4l.8-3.6q1.3.2 2.1.2 2.6 0 4.5-1.7 2-1.7 3.9-5l.7-1.3-5.8-28.8h4.9l3 16.1q.4 2.2.8 4.6.3 2.5.3 3.2.3-.6.7-1.5.5-.8 12.3-22.4h5.3l-16.9 29.2q-2.9 5.1-4.8 7.2-1.8 2.1-3.8 3.2-2 1-4.4 1z"/></svg>