<svg version="1.2" xmlns="http://www.w3.org/2000/svg" viewBox="0 0 552 259" width="552" height="259"><style>.a{fill:#fff}</style><path fill-rule="evenodd" class="a" d="m25.1 163.3v22.9c0 6.8-3.8 11.2-11.6 11.2-3.8 0-6.7-1.2-6.7-1.2-0.3-0.1-0.5-0.3-0.5-0.6v-2.4c0-0.3 0.1-0.5 0.5-0.4 0 0 2.9 1.2 6.2 1.2 5.4 0 7.8-2.4 7.8-7.8v-20h-11.1c-0.4 0-0.5-0.2-0.5-0.5v-2.4c0-0.4 0.1-0.5 0.5-0.5h15c0.3 0 0.4 0.1 0.4 0.5zm32.5 0c0-0.4 0.1-0.5 0.5-0.5h3.3c0.4 0 0.5 0.1 0.5 0.5v19.8c0 9-5.8 14.3-14 14.3-8.2 0-14-5.3-14-14.3v-19.8c0-0.4 0.1-0.5 0.4-0.5h3.4c0.4 0 0.5 0.1 0.5 0.5v19.8c0 7.5 4.4 10.9 9.7 10.9 5.3 0 9.7-3.4 9.7-10.9zm17.9 20.3v12.6c0 0.3-0.2 0.5-0.5 0.5h-3.4c-0.3 0-0.5-0.2-0.5-0.5v-32.9c0-0.3 0.2-0.5 0.5-0.5h13.6c8 0 12.6 3.9 12.6 10.4 0 4.6-3.4 8.5-9.7 9.5 2.9 0.7 4.1 2.7 5.3 4.6l5.8 8.8c0.2 0.3 0.2 0.6-0.4 0.6h-4c-0.3 0-0.5-0.2-0.7-0.5l-5.8-8.9c-1.4-2.2-3.4-3.7-6.8-3.7zm9.7-17.4h-9.7v14h9.7c4.9 0 8.2-2.4 8.2-7 0-4.6-3.3-7-8.2-7zm24.9 30c0 0.3-0.2 0.5-0.5 0.5h-3.4c-0.4 0-0.5-0.2-0.5-0.5v-32.9c0-0.3 0.1-0.5 0.5-0.5h3.4c0.3 0 0.5 0.2 0.5 0.5zm24.7-13.5l-8.5-2.5c-5.3-1.5-8.2-4.3-8.2-8.9 0-5.3 4.8-9.2 12.8-9.2 7.8 0 12.6 3.6 13.8 9.3 0.1 0.4-0.1 0.6-0.5 0.6h-3c-0.4 0-0.5-0.2-0.6-0.5-1.2-3.6-4.4-6-9.7-6-5.5 0-8.4 2.4-8.4 5.5 0 2.9 1.8 4.6 6 5.8l8.5 2.5c5.2 1.5 8.1 4.3 8.1 8.9 0 5.3-4.8 9.2-13.3 9.2-8.4 0-13.2-3.6-14.4-9.3-0.1-0.4 0.1-0.6 0.5-0.6h3c0.3 0 0.5 0.2 0.6 0.5 1.2 3.6 4.3 6 10.3 6 6.1 0 9-2.4 9-5.5 0-2.9-1.9-4.7-6-5.8zm41.8-19.9c0.3 0 0.5 0.2 0.5 0.5v2.4c0 0.4-0.2 0.5-0.5 0.5h-11.8v30c0 0.3-0.2 0.5-0.5 0.5h-3.4c-0.4 0-0.5-0.2-0.5-0.5v-30h-11.4c-0.3 0-0.5-0.1-0.5-0.5v-2.4c0-0.3 0.2-0.5 0.5-0.5zm6.3 33.4v-32.9c0-0.3 0.2-0.5 0.5-0.5h23.4c0.4 0 0.5 0.2 0.5 0.5v2.4c0 0.4-0.1 0.5-0.5 0.5h-19.5v11.6h16.2c0.3 0 0.4 0.2 0.4 0.5v2.4c0 0.4-0.1 0.5-0.4 0.5h-16.2v12.1h19.5c0.4 0 0.5 0.1 0.5 0.5v2.4c0 0.3-0.1 0.5-0.5 0.5h-23.4c-0.3 0-0.5-0.2-0.5-0.5zm35.6-27.6v27.6c0 0.3-0.2 0.5-0.5 0.5h-3.4c-0.3 0-0.5-0.2-0.5-0.5v-32.9c0-0.3 0.2-0.5 0.5-0.5h3.4c1.2 0 1.9 0.7 2.4 1.5l17.9 26.6v-27.6c0-0.3 0.2-0.5 0.5-0.5h3.4c0.3 0 0.5 0.2 0.5 0.5v32.9c0 0.3-0.2 0.5-0.5 0.5h-3.4c-1.2 0-1.9-0.7-2.4-1.5zm61.9 3.3c0.1 0.4-0.1 0.6-0.5 0.6h-3c-0.3 0-0.5-0.2-0.6-0.5-1.2-3.9-4.3-6.5-10.1-6.5-6.1 0-11.4 4.3-11.4 14.3 0 9.9 5.3 14.2 11.6 14.2 5.8 0 8.9-2.6 10.2-6.5 0.1-0.3 0.2-0.5 0.5-0.5h3.1c0.4 0 0.5 0.3 0.5 0.6-1.2 6.2-6.3 9.8-14.3 9.8-9.2 0-16-6.3-16-17.6 0-11.4 6.8-17.7 15.8-17.7 7.9 0 13 3.6 14.2 9.8zm37.1 7.9c0 11.3-6.8 17.6-15.7 17.6-9 0-15.7-6.3-15.7-17.6 0-11.4 6.7-17.7 15.7-17.7 8.9 0 15.7 6.3 15.7 17.7zm-27.1 0c0 9.9 5.3 14.2 11.4 14.2 6 0 11.4-4.3 11.4-14.2 0-10-5.4-14.3-11.4-14.3-6.1 0-11.4 4.3-11.4 14.3zm34.9 16.4v-32.9c0-0.3 0.1-0.5 0.5-0.5h3.3c0.4 0 0.5 0.2 0.5 0.5v30h19.1c0.3 0 0.5 0.2 0.5 0.5v2.4c0 0.4-0.2 0.5-0.5 0.5h-22.9c-0.4 0-0.5-0.1-0.5-0.5zm29.2 0v-32.9c0-0.3 0.2-0.5 0.5-0.5h3.4c0.3 0 0.5 0.2 0.5 0.5v30h19c0.4 0 0.5 0.2 0.5 0.5v2.4c0 0.4-0.1 0.5-0.5 0.5h-22.9c-0.3 0-0.5-0.1-0.5-0.5zm29.2 0v-32.9c0-0.3 0.2-0.5 0.5-0.5h23.5c0.3 0 0.4 0.2 0.4 0.5v2.4c0 0.4-0.1 0.5-0.4 0.5h-19.6v11.6h16.2c0.3 0 0.4 0.2 0.4 0.5v2.4c0 0.4-0.1 0.5-0.4 0.5h-16.2v12.1h19.6c0.3 0 0.4 0.2 0.4 0.5v2.4c0 0.4-0.1 0.5-0.4 0.5h-23.5c-0.3 0-0.5-0.1-0.5-0.5zm59.3-24.3c0 0.4-0.1 0.6-0.5 0.6h-3c-0.4 0-0.5-0.2-0.6-0.5-1.2-3.9-4.4-6.5-10.2-6.5-6 0-11.4 4.3-11.4 14.3 0 9.9 5.4 14.2 11.7 14.2 5.8 0 8.9-2.6 10.1-6.5 0.1-0.3 0.3-0.5 0.6-0.5h3c0.4 0 0.6 0.3 0.5 0.6-1.2 6.2-6.3 9.8-14.2 9.8-9.2 0-16-6.3-16-17.6 0-11.4 6.8-17.7 15.7-17.7 8 0 13.1 3.6 14.3 9.8zm30.8-9.1c0.3 0 0.5 0.2 0.5 0.5v2.4c0 0.4-0.2 0.5-0.5 0.5h-11.9v30c0 0.4-0.1 0.5-0.5 0.5h-3.3c-0.4 0-0.5-0.1-0.5-0.5v-30h-11.4c-0.3 0-0.5-0.1-0.5-0.5v-2.4c0-0.3 0.2-0.5 0.5-0.5zm10.7 33.4c0 0.4-0.2 0.5-0.5 0.5h-3.4c-0.3 0-0.5-0.1-0.5-0.5v-32.9c0-0.3 0.2-0.5 0.5-0.5h3.4c0.3 0 0.5 0.2 0.5 0.5zm9.6 0v-32.9c0-0.3 0.2-0.5 0.5-0.5h23.4c0.4 0 0.5 0.2 0.5 0.5v2.4c0 0.4-0.1 0.5-0.5 0.5h-19.5v11.6h16.2c0.3 0 0.4 0.2 0.4 0.5v2.4c0 0.4-0.1 0.5-0.4 0.5h-16.2v12.1h19.5c0.4 0 0.5 0.2 0.5 0.5v2.4c0 0.3-0.1 0.5-0.5 0.5h-23.4c-0.3 0-0.5-0.2-0.5-0.5zm31.7-33.4h23.4c0.4 0 0.5 0.2 0.5 0.5v2.4c0 0.4-0.1 0.5-0.5 0.5h-19.5v12.6h16.1c0.4 0 0.5 0.1 0.5 0.5v2.4c0 0.3-0.1 0.5-0.5 0.5h-16.1v14c0 0.3-0.2 0.5-0.5 0.5h-3.4c-0.3 0-0.5-0.2-0.5-0.5v-32.9c0-0.3 0.2-0.5 0.5-0.5z"/><path fill-rule="evenodd" class="a" d="m168.4 238.4v16.4q0 0.3-0.3 0.2h-2q-0.3 0.1-0.3-0.2v-19.5q0-0.3 0.3-0.3h2c0.7 0 1.1 0.4 1.4 0.8l10.6 15.8v-16.3q0-0.3 0.3-0.3h2q0.3 0 0.3 0.3v19.5q0 0.3-0.3 0.2h-2c-0.7 0-1.1-0.4-1.4-0.8zm25.8 16.3v-19.5q0-0.3 0.3-0.3h13.9q0.3 0 0.3 0.3v1.5q0 0.3-0.3 0.2h-11.6v6.9h9.6q0.3 0 0.3 0.3v1.5q0 0.2-0.3 0.2h-9.6v7.2h11.6q0.3 0 0.3 0.3v1.4q0 0.3-0.3 0.3h-13.9q-0.3 0-0.3-0.3zm24.5 0.3q-0.3 0-0.3-0.3v-19.5q0-0.3 0.3-0.3h6.6c5.9 0 9.9 3.8 9.9 10.1 0 6.3-4 10-9.9 10zm6.6-2c4.2 0 7.3-2.6 7.3-8 0-5.5-3.1-8.1-7.3-8.1h-4.3v16.1zm20 1.7v-19.5q-0.1-0.3 0.2-0.3h13.9q0.3 0 0.3 0.3v1.5q0 0.3-0.3 0.2h-11.6v6.9h9.6q0.3 0 0.3 0.3v1.5q0 0.2-0.3 0.2h-9.6v7.2h11.6q0.3 0 0.3 0.3v1.4q0 0.3-0.3 0.3h-13.9q-0.3 0-0.2-0.3zm26.8-7.4v7.4q0 0.3-0.3 0.3h-2q-0.3 0-0.3-0.3v-19.5q0-0.3 0.3-0.3h8c4.7 0 7.5 2.3 7.5 6.2 0 2.7-2.1 5-5.8 5.6 1.7 0.4 2.5 1.6 3.2 2.7l3.4 5.3c0.1 0.1 0.1 0.3-0.2 0.3h-2.4c-0.2 0-0.3-0.1-0.4-0.3l-3.4-5.3c-0.9-1.3-2-2.1-4.1-2.1zm5.8-10.4h-5.8v8.4h5.8c2.8 0 4.9-1.5 4.9-4.2 0-2.7-2.1-4.2-4.9-4.2zm17.9 17.8v-19.5q0-0.3 0.2-0.3h2.1q0.2 0 0.2 0.3v17.8h11.3q0.3 0 0.3 0.3v1.4q0 0.3-0.3 0.3h-13.6q-0.2 0-0.2-0.3zm35-4.8h-9.2l-2 4.8q-0.2 0.3-0.5 0.3h-2c-0.3 0-0.3-0.2-0.2-0.3l7.6-18.9c0.1-0.4 0.5-0.9 1.2-0.9h0.9c0.7 0 1.1 0.5 1.3 0.9l7.6 18.9c0.1 0.1 0 0.3-0.2 0.3h-2.1q-0.3 0-0.4-0.3zm-8.5-2h7.8l-3.9-9.6zm25.3-9.4v16.3q0 0.3-0.3 0.3h-2q-0.3 0-0.3-0.3v-19.5q0-0.3 0.3-0.3h2c0.7 0 1.1 0.4 1.4 0.9l10.6 15.7v-16.3q0-0.3 0.3-0.3h2q0.3 0 0.3 0.3v19.5q0 0.3-0.3 0.3h-2c-0.7 0-1.1-0.4-1.4-0.9zm26.1 16.7q-0.3 0-0.3-0.3v-19.5q0-0.3 0.3-0.3h6.6c5.9 0 9.9 3.7 9.9 10 0 6.3-4 10.1-9.9 10.1zm6.6-2c4.1 0 7.3-2.6 7.3-8.1 0-5.4-3.2-8-7.3-8h-4.3v16.1z"/><path class="a" d="m325 5.7c-4.6 0-9.1 0.6-13.4 1.7-11.1 2.8-20.8 8.8-28.1 17.2-1.9 1.7-42.2 41.6-42.2 41.6l7.5 7.5c1 1 1.5 2.3 1.5 3.7l0.7-0.7c1.5-1.6 4.1-1.6 5.6 0 1.6 1.5 1.6 4.1 0 5.6l-15.6 15.8c-1.6 1.5-4.1 1.5-5.7 0-1.6-1.6-1.6-4.1 0-5.7l0.7-0.7c-1.3 0-2.7-0.4-3.7-1.4l-21.3-21.3c-0.7-0.7-1.2-1.6-1.4-2.5l-0.1 0.2c-1.6 1.5-4.1 1.5-5.7 0-1.6-1.6-1.6-4.1 0-5.7l15.7-15.7c1.5-1.6 4.1-1.6 5.6 0 1.6 1.5 1.6 4.1 0.1 5.6l-0.2 0.2c0.9 0.2 1.8 0.6 2.5 1.3l8.2 8.1 36-36.1 0.3-0.3q-0.9-0.9-1.8-1.8c-11.4-11-24.6-16.8-39.6-16.6q-0.1 0-0.2 0c-1.7 0-3.3 0.1-4.9 0.2q-0.7 0.1-1.4 0.2c-0.6 0-1.2 0-1.8 0.1-0.7 0.1-1.4 0.3-2 0.4q-1 0.2-2 0.4c-24.7 5.5-43.2 27.6-43.2 53.9 0 30.5 24.7 55.3 55.3 55.3 15.5 0 29.4-6.5 39.5-16.8l44.7-43.6-7.5-7.4c-1.1-1.1-1.5-2.4-1.5-3.8l-0.7 0.8c-1.5 1.5-4.1 1.5-5.6 0-1.6-1.6-1.6-4.1-0.1-5.7l15.7-15.7c1.6-1.6 4.1-1.6 5.7 0 1.6 1.5 1.6 4.1 0 5.6l-0.7 0.7c1.3 0 2.7 0.4 3.7 1.5l21.3 21.2c0.7 0.7 1.2 1.6 1.4 2.5l0.1-0.2c1.6-1.5 4.1-1.5 5.7 0 1.5 1.6 1.5 4.1 0 5.7l-15.7 15.7c-1.6 1.6-4.1 1.6-5.7 0.1-1.5-1.6-1.5-4.1 0-5.7l0.2-0.2c-0.9-0.2-1.8-0.6-2.5-1.3l-8.2-8.1-36.2 36.3-0.1 0.1q0.7 0.7 1.4 1.4 0.2 0.2 0.4 0.4c0.3 0.2 0.5 0.4 0.7 0.6 2.8 2.7 5.8 5.2 9 7.2q1.4 0.9 2.8 1.7 0.4 0.2 0.8 0.4c7.7 4.2 16.6 6.6 26 6.6 30.5 0 55.3-24.8 55.3-55.3 0-30.5-24.8-55.2-55.3-55.2z"/></svg>