<svg xmlns="http://www.w3.org/2000/svg" width="753.333" height="221.333" viewBox="0 0 565 166" xmlns:v="https://vecta.io/nano"><path d="M354.3 10c-41.7 4.6-71.6 38.5-77.3 87.6-2.6 22.9 3.5 40.7 17.7 51.6 10.4 7.9 24.3 11.5 39.8 10.5 14.6-1 27-6.5 38.6-17.4l4.9-4.6-.7 9.2-.6 9.1h19.8l7.3-35.8 7.9-38.5.5-2.7h-29.6c-16.3 0-29.6.2-29.6.5 0 .5-3.1 14.8-4.5 21.2l-.5 2.3h16.5c9.1 0 16.5.3 16.5.6s-1.4 3.3-3.2 6.6c-4.3 8.2-12.9 16.8-20.8 20.9-6.2 3.3-6.9 3.4-17.5 3.4-10 0-11.5-.2-16.7-2.8-11.4-5.6-16.5-16.6-15.5-33.1 1.6-27.8 14.9-51.3 34.1-60.7 6.1-2.9 8.1-3.4 16.7-3.7 6-.3 11.1 0 13.4.8 7.6 2.5 15.4 12.2 15.5 19.2V57h30v-5c0-11-3.6-20.9-10.2-28.5-9.2-10.4-30.6-15.9-52.5-13.5zM40.5 14.2c-.2.7-6.5 31.2-14 67.8L12 152.2l-.8 3.8h100.5l2.2-10.3 2.7-12.4.6-2.3H81.6c-19.6 0-35.6-.1-35.6-.3 0-.3 17.1-83.4 23.6-115l.6-2.7H55.5c-10.8 0-14.7.3-15 1.2zm123.3 68l-40.7 71.6-1.2 2.3 15.6-.3 15.7-.3 7.6-14.5 7.7-14.5 26.8-.3c14.7-.1 26.7.1 26.7.5 0 .5.7 6.6 1.5 13.8l1.5 14.2c0 1 3.9 1.3 16 1.3 8.8 0 16-.3 16.1-.8 0-.4-4.4-32.5-9.8-71.5L237.5 13h-34.2l-39.5 69.2zm52.3-11l2.9 28.5v3.3h-18.5c-10.2 0-18.5-.3-18.5-.6 0-1.1 30.5-57.3 30.9-56.9.2.2 1.6 11.8 3.2 25.7zm240.7 12.4l-40.6 71.6c-.2.4 6.6.8 15.1.8h15.6l7.8-14.8 7.8-14.7 26.8-.3c21-.2 26.7 0 26.7 1 0 .7.7 7.1 1.5 14.3l1.5 13.7c0 .5 7.2.8 16 .8 14.6 0 16-.2 16-1.8-.1-.9-4.4-33-9.8-71.2l-9.7-69.5-17.2-.3-17.2-.2-40.3 70.6zm53.3-12.4l2.9 28.5v3.3h-18.5c-10.2 0-18.5-.3-18.5-.7 0-1.2 30.4-57.2 30.8-56.8.3.2 1.7 11.8 3.3 25.7z" fill="#fff"/><script/></svg>