<svg xmlns="http://www.w3.org/2000/svg" width="131" height="38" stroke="none" stroke-linecap="round" stroke-linejoin="round" fill="#fff" fill-rule="nonzero">
    <path d="M28.476 10.349H1.157c-.638 0-1.156.518-1.156 1.155v18.841c0 .638.518 1.155 1.157 1.155H19l4.11 4.106c.242.242.659.07.659-.273v-3.832h4.705c.638 0 1.157-.518 1.157-1.155V11.504c.002-.638-.516-1.155-1.154-1.155z"
          fill="#2cd5c4"/>
    <path d="M22.89 25.863l-21.8 5.371A.88.88 0 0 1 0 30.381V11.255c0-.532.363-.994.881-1.122l21.456-5.286a1.16 1.16 0 0 1 1.434 1.122v18.771c-.002.53-.365.994-.881 1.122z"
          fill="#ffb81c"/>
    <path d="M.728 9.872L15.416.265c1.07-.7 2.491.066 2.491 1.346V18.92a1.61 1.61 0 0 1-.727 1.346L.931 30.894c-.4.261-.931-.025-.931-.503V11.218a1.61 1.61 0 0 1 .728-1.346z"
          fill="#f4364c"/>
    <path d="M41.373 31.228c-.16-.159-.238-.352-.238-.58V8.384c0-.251.079-.449.238-.598s.352-.222.58-.222h3.212c.251 0 .45.075.599.222s.222.348.222.598v18.984h10.836a.84.84 0 0 1 .616.238.79.79 0 0 1 .238.58v2.458a.79.79 0 0 1-.238.58c-.157.157-.365.238-.616.238H41.956a.774.774 0 0 1-.582-.234zm18.271 6.52c-.149-.137-.222-.296-.222-.478 0-.159.046-.342.137-.547l2.701-6.317-6.564-15.464c-.091-.205-.137-.364-.137-.478a.91.91 0 0 1 .238-.53c.137-.149.307-.222.512-.222h2.837c.41 0 .707.217.889.648l4.545 11.131 4.614-11.131c.228-.433.547-.648.957-.648h2.769c.205 0 .375.068.512.205s.205.296.205.478c0 .159-.046.342-.137.547l-9.673 22.363c-.182.433-.502.648-.958.648h-2.734a.71.71 0 0 1-.493-.205zm17.463-8.023c-1.492-1.389-2.284-3.313-2.375-5.771l-.035-1.366.035-1.366c.091-2.458.883-4.381 2.375-5.77s3.492-2.083 5.998-2.083c1.799 0 3.32.319 4.562.957s2.164 1.416 2.769 2.34.928 1.803.974 2.646c.023.228-.052.422-.222.58a.848.848 0 0 1-.599.238h-3.043c-.251 0-.433-.052-.547-.153s-.228-.29-.342-.563c-.342-.866-.792-1.491-1.349-1.878s-1.27-.58-2.137-.58c-1.163 0-2.068.364-2.717 1.093s-.997 1.845-1.043 3.346l-.035 1.263.035 1.126c.137 2.959 1.391 4.439 3.76 4.439.889 0 1.606-.188 2.153-.563s.991-1.008 1.333-1.894c.091-.251.199-.433.325-.547s.313-.172.564-.172h3.043a.86.86 0 0 1 .599.238.66.66 0 0 1 .222.58c-.046.797-.365 1.656-.958 2.578s-1.505 1.712-2.734 2.373-2.769.99-4.614.99c-2.506.004-4.506-.689-5.998-2.079zm18.969-.102c-1.492-1.456-2.284-3.528-2.375-6.213l-.035-.853c0-2.845.746-5.087 2.238-6.727s3.561-2.458 6.203-2.458c2.711 0 4.802.82 6.272 2.458s2.205 3.824 2.205 6.555v.716a.793.793 0 0 1-.238.58c-.16.159-.365.238-.616.238H98.383v.273c.045 1.275.495 2.358 1.206 2.994s1.449 1.033 2.518 1.033 2.125-.147 2.945-1.193c.206-.25.365-.404.479-.462s.307-.085.581-.085h3.241c.205 0 .381.058.531.17a.56.56 0 0 1 .221.478c0 .547-.325 1.191-.974 1.93s-1.577 1.383-2.785 1.93-2.61.82-4.204.82c-2.551 0-4.574-.729-6.066-2.184zm9.793-8.605v-.068c0-1.344-.336-2.418-1.009-3.226s-1.59-1.211-2.751-1.211-2.074.404-2.733 1.211-.991 1.884-.991 3.226v.068h7.484zm9.501 8.742c-1.459-1.366-2.245-3.255-2.359-5.669l-.035-1.503.035-1.503c.114-2.389.912-4.273 2.392-5.65s3.542-2.066 6.187-2.066c2.62 0 4.671.689 6.151 2.066s2.278 3.261 2.392 5.65a21.28 21.28 0 0 1 .035 1.503l-.035 1.503c-.114 2.412-.899 4.302-2.359 5.669s-3.521 2.048-6.186 2.048c-2.686 0-4.759-.683-6.218-2.048zm9.007-2.528c.649-.752.997-1.855 1.043-3.313.023-.228.035-.671.035-1.331l-.035-1.331c-.046-1.456-.398-2.565-1.059-3.329s-1.584-1.143-2.769-1.143c-1.208 0-2.141.381-2.802 1.143s-1.014 1.872-1.059 3.329l-.036 1.331.036 1.331c.045 1.458.398 2.561 1.059 3.313s1.594 1.126 2.802 1.126 2.135-.375 2.785-1.126z"
          fill="#f5f5f5"/>
</svg>