<svg xmlns="http://www.w3.org/2000/svg" width="484" height="121" ><path d="M432.6 97.8c-16.1 1.5-31.7-3.3-42.2-7.8-9.5-4-20.1-4.5-29.7-1.1L348.8 93c-13.8 4.8-29.2.1-37.9-11.7-6.2-8.5-9.3-19.4-10.7-29.1-1.5-9.7 7.6-17.6 17.1-14.9q2.1.6 4.1 1-1.8.6-3.4 1.5-5 2.7-7.8 7.4-2.7 4.7-2.7 10.2 0 8.1 5.6 14.1 5.7 6 15.8 6 11.2 0 17.4-8l-7.5-5.2q-3.6 4.4-10.1 4.4-5.2 0-8.4-3.1-3.2-3.1-3.2-8 0-5.1 3.3-8.3 3.4-3.2 8.7-3.2 3 0 5.2.9 2.2.9 4.5 3.3l7.9-4.4q-2.9-4.2-7.4-6.5 0 0 0 0c8.4-.9 15.6-3.8 21.7-7.7v44.8h9.7V24.1c5.7-5.4 9.9-11.3 12.8-16 3-4.9 9.2-6.7 14.3-4 10.3 5.3 27.1 13.5 41.2 18.1 7.8 2.5 15.6 3.1 22.4 2.7 13-.7 23.2 11.2 20.7 23.9-1.2 6.1-3 11.7-5.4 16.7V38.1h-9.5v4.2q-3-2.7-6-3.9-2.9-1.3-6.1-1.3-7.2 0-12.2 5-5.7 5.6-5.7 14.7 0 8.6 5.3 14.1 5.4 5.6 13.1 5.6 3.5 0 6.2-1.1 2.8-1.1 5.4-3.7 0 4.7-1 6.6-1 1.9-3.4 3.1-2.3 1.2-6.2 1.2-3 0-5.2-.8-2.2-.8-3.6-2.5h-10.6q1.3 3.9 3.9 6.7 2.7 2.7 6.5 4.1 2.5.9 5.8 1.2c-6.5 3.7-13.6 5.9-20.8 6.5zm-41.8-55.5q-6.5 6-6.5 15.1 0 8.3 5.7 14.2 5.9 5.9 14.1 5.9 5.6 0 10.2-2.7 4.7-2.6 7.3-7.3 2.8-4.8 2.8-10.2 0-5.4-2.7-10.1-2.7-4.7-7.5-7.3-4.7-2.8-10.1-2.8-7.5 0-13.3 5.2zM26.9 26.6q10.3 0 17.7 7.4Q52 41.5 52 52.3q0 10.6-7.3 18-7.3 7.4-17.8 7.4-10.8 0-18.1-7.6-7.2-7.6-7.2-17.9 0-7 3.4-12.9 3.3-5.9 9.2-9.3 5.9-3.4 12.7-3.4zm-.1 9q-6.8 0-11.4 4.8-4.5 4.6-4.5 11.9 0 8.1 5.8 12.8 4.4 3.7 10.2 3.7 6.7 0 11.3-4.9 4.5-4.7 4.5-11.7 0-6.9-4.6-11.7-4.6-4.9-11.3-4.9zM64 40.5h7.7V45q1.3-2.7 3.4-4 2-1.5 4.5-1.5 1.7 0 3.6 1l-2.7 7.7q-1.7-.7-2.7-.7-2.1 0-3.5 2.5-1.4 2.6-1.4 10.2v16.3H64zm56.6 0h9v36h-9v-3.8q-2.6 2.5-5.3 3.6-2.7 1.2-5.8 1.2-6.9 0-12-5.5-5.1-5.4-5.1-13.5 0-8.3 5-13.6 4.8-5.4 11.9-5.4 3.2 0 6 1.3 2.9 1.2 5.3 3.6zm-9.5 7.4q-4.1 0-6.9 3-2.8 3-2.8 7.6 0 4.7 2.9 7.7 2.7 3 6.8 3 4.3 0 7.1-3 2.8-3 2.8-7.8 0-4.6-2.8-7.6-2.8-2.9-7.1-2.9zm33.8-7.4h9v3.7q3.1-2.6 5.6-3.6 2.5-1 5.1-1 5.4 0 9.1 3.7 3.1 3.2 3.1 9.4v23.8h-8.9V60.7q0-6.4-.6-8.5-.5-2.2-2-3.3-1.4-1-3.5-1-2.8 0-4.8 1.8-1.9 1.8-2.7 5.1-.4 1.7-.4 7.3v14.4h-9zm73.4 0h9v30.9q0 9.1-3.6 13.4-4.9 5.8-14.9 5.8-5.3 0-8.8-1.3-3.6-1.3-6.1-3.9-2.5-2.5-3.7-6.2h10q1.3 1.5 3.3 2.3 2.1.7 5 .7 3.6 0 5.8-1 2.2-1.2 3.2-3 .8-1.7.8-6.1-2.3 2.3-5 3.4-2.5 1-5.8 1-7.3 0-12.3-5.2-5-5.2-5-13.2 0-8.6 5.4-13.8 4.7-4.7 11.4-4.7 3 0 5.8 1.1 2.8 1.2 5.5 3.8zM209 48q-4.2 0-7 2.8-2.8 2.9-2.8 7.2 0 4.5 2.9 7.4 2.8 2.9 7.1 2.9 4.1 0 6.9-2.8 2.7-2.9 2.7-7.4 0-4.5-2.7-7.3-2.8-2.8-7.1-2.8zm69.7 13.1h-29q.7 3.8 3.4 6.1 2.7 2.2 7 2.2 5 0 8.6-3.5l7.6 3.6q-2.9 4.1-6.8 6-4 1.9-9.4 1.9-8.4 0-13.8-5.3-5.3-5.4-5.3-13.5 0-8.2 5.3-13.7 5.3-5.4 13.3-5.4 8.5 0 13.8 5.4 5.3 5.5 5.3 14.5zm-9.1-7.1q-.8-3-3.5-4.9-2.6-1.9-6-1.9-3.8 0-6.7 2.1-1.7 1.3-3.3 4.7z" fill-rule="evenodd" fill="#fff"/><path d="M404 67c-5.5 0-10-4.5-10-10s4.5-10 10-10 10 4.5 10 10-4.5 10-10 10zm53 0c-5.5 0-10-4.5-10-10s4.5-10 10-10 10 4.5 10 10-4.5 10-10 10z" fill="#fff"/><path d="M391.2 119.7c-47.6 0-86.1-3.6-86.1-8.1s38.5-8.1 86.1-8.1c47.7 0 86.2 3.6 86.2 8.1s-38.5 8.1-86.2 8.1z" fill="#d8d9da"/></svg>