<svg xmlns="http://www.w3.org/2000/svg" width="579" height="111" fill="#fff" xmlns:v="https://vecta.io/nano">
    <path d="M55 108.6c-1.8 0-3.2-1.4-3.2-3.2v-19c0-1.8 1.4-3.2 3.2-3.2 15.5 0 28.2-12.7 28.2-28.2S70.5 26.9 55 26.9 26.9 39.5 26.9 55c0 10.5 5.8 20.1 15.1 25 1.6.8 2.2 2.7 1.4 4.3a3.2 3.2 0 0 1-4.3 1.4C27.6 79.7 20.4 68 20.4 55 20.4 35.9 36 20.4 55 20.4c19.1 0 34.6 15.5 34.6 34.6 0 18-13.8 32.8-31.3 34.5v12.6c24.5-1.7 43.9-22.2 43.9-47.1C102.2 29 81 7.8 55 7.8S7.9 29 7.9 55c0 20.8 13.3 38.9 33.1 45.1 1.7.5 2.7 2.3 2.1 4-.5 1.7-2.3 2.7-4 2.1C16.5 99.2 1.4 78.6 1.4 55 1.4 25.4 25.5 1.4 55 1.4c29.6 0 53.7 24 53.7 53.6S84.6 108.6 55 108.6z"/>
    <path d="M40.5 86.1c-1.8 0-3.2-1.4-3.2-3.2V55A17.67 17.67 0 0 1 55 37.3c9.8 0 17.8 7.9 17.8 17.7s-8 17.8-17.8 17.8c-1.8 0-3.2-1.5-3.2-3.3s1.4-3.2 3.2-3.2a11.3 11.3 0 1 0 0-22.6c-6.2 0-11.3 5.1-11.3 11.3v27.9c0 1.8-1.4 3.2-3.2 3.2zm108.6-48.6h10.5c5.4 0 9 3 9 9 0 5.9-3.5 9.1-9 9.1h-10.5zm0 22.4h11.2c7.4 0 13-4.4 13-13.3 0-9.1-5.7-13.3-13-13.3h-13.5c-1.3 0-2.4 1-2.4 2.3v41.7c0 1.3 1.1 2.3 2.4 2.3 1.2 0 2.3-1 2.3-2.3zm50.1-22.4h11.2c4.9 0 8.4 3.8 8.4 8.8 0 4.9-3.4 8.8-8.2 8.8h-11.4zm0 21.7h6.9l13.8 19.3c.6.8 1.3 1.1 2 1.1 1.3 0 2.3-1.1 2.3-2.4 0-.4-.1-1-.5-1.4l-12.4-16.6c7.3-.3 12.2-6 12.2-13 0-7.2-5.5-13-13-13h-13.6c-1.3 0-2.3 1.1-2.3 2.4v41.6c0 1.3 1 2.4 2.3 2.4s2.3-1.1 2.3-2.4zM269.8 79c1.2 0 2.1-.9 2.1-2.1 0-1.1-.9-2.1-2.1-2.1h-20.2V58.1h14.9c1.2 0 2.1-1 2.1-2.1 0-1.2-.9-2.1-2.1-2.1h-14.9V37.5h19.5c1.1 0 2.1-1 2.1-2.1 0-1.2-1-2.1-2.1-2.1h-21.8c-1.3 0-2.4 1-2.4 2.3v41.1c0 1.3 1.1 2.3 2.4 2.3zm49.9 0c1.3 0 2.2-.9 2.2-2.1 0-1.3-.9-2.2-2.2-2.2h-24.3l25.1-38c.3-.4.4-.8.4-1.3 0-1.2-1-2.1-2.2-2.1h-26.1c-1.2 0-2.2.9-2.2 2.1 0 1.3 1 2.2 2.2 2.2h22.1l-25.3 38c-.3.4-.4.8-.4 1.3 0 1.2 1 2.1 2.2 2.1zm48.1 0c1.2 0 2.1-.9 2.1-2.1 0-1.3-.9-2.2-2.1-2.2h-24.4l25.1-38c.3-.4.4-.8.4-1.3 0-1.2-.9-2.1-2.2-2.1h-26.1c-1.2 0-2.2.9-2.2 2.1 0 1.3 1 2.2 2.2 2.2h22.1l-25.3 38c-.2.4-.4.8-.4 1.3 0 1.2 1 2.1 2.2 2.1zm46.5 0c1.2 0 2.1-.9 2.1-2.1 0-1.1-.9-2.1-2.1-2.1H394V58.1h15c1.2 0 2.1-1 2.1-2.1 0-1.2-.9-2.1-2.1-2.1h-15V37.5h19.6c1.1 0 2.1-1 2.1-2.1 0-1.2-1-2.1-2.1-2.1h-21.9a2.26 2.26 0 0 0-2.3 2.3v41.1a2.26 2.26 0 0 0 2.3 2.3zm53.3-46.3a2.26 2.26 0 0 0-2.3 2.3v34.8l-24-36.1c-.4-.5-1.1-1-1.9-1-1.2 0-2.2 1-2.2 2.3v42.3c0 1.3 1 2.3 2.2 2.3s2.3-1 2.3-2.3V42.5l23.9 36.1c.5.6 1.1 1 1.9 1a2.26 2.26 0 0 0 2.3-2.3V35c0-1.3-1-2.3-2.2-2.3zM512 80c6.2 0 12.4-2.9 15.3-7.2.3-.4.5-.8.5-1.3a2.22 2.22 0 0 0-2.2-2.2c-.6 0-1.3.2-1.8.9-2.6 3.8-7.3 5.6-11.8 5.6-10.5 0-16.5-5.5-16.5-19.6 0-13.3 6-19.7 16.5-19.7 5.1 0 9.5 2.5 11.8 5.7.6.7 1.2.9 1.8.9 1.2 0 2.2-.9 2.2-2.2 0-.4-.2-.9-.5-1.4-3.2-4.4-8.9-7.2-15.3-7.2-13.2 0-21.2 7.8-21.2 23.9 0 16.7 8 23.8 21.2 23.8zm62.2-1c1.2 0 2.1-.9 2.1-2.1 0-1.1-.9-2.1-2.1-2.1h-20.3V58.1h15c1.1 0 2.1-1 2.1-2.1 0-1.2-1-2.1-2.1-2.1h-15V37.5h19.5c1.2 0 2.2-1 2.2-2.1 0-1.2-1-2.1-2.2-2.1h-21.8a2.26 2.26 0 0 0-2.3 2.3v41.1a2.26 2.26 0 0 0 2.3 2.3z"/>
</svg>