<svg xmlns="http://www.w3.org/2000/svg" xmlns:xlink="http://www.w3.org/1999/xlink" viewBox="0 0 1679.72 255.899" xmlns:v="https://vecta.io/nano"><g fill="#fff"><path d="M0 66.154h919.89v189.745H0zm36.153 159.629h27.306v-46.518c7.708-.178 16.84-.237 27.393-.178 14.885 0 26.209-3.658 33.978-10.984s11.653-18.04 11.653-32.153c0-13.34-3.887-23.496-11.653-30.463s-19.093-10.45-33.978-10.45H36.153zm27.305-69.199v-39.045h22.77c7.65 0 13.386 1.554 17.21 4.668s5.738 7.783 5.738 14.009c0 6.819-1.912 11.918-5.738 15.298s-9.56 5.07-17.21 5.07zm191.828 52.301l-.623-21.436c-.297-10.496-4.18-17.967-11.651-22.414a33.61 33.61 0 0 0-4.357-2.135c2.845-1.068 5.392-2.372 7.648-3.914 8.479-5.811 12.717-15.002 12.717-27.573 0-10.907-3.81-19.699-11.428-26.373s-17.656-10.006-30.107-10.006h-65.907v130.749h27.306v-51.676h27.217c7.76 0 13.316 1.245 16.665 3.735s5.078 6.671 5.2 12.541l.173 12.097c.058 5.158-.258 21.939.452 23.303h27.703c-.771-1.78-.889-12.631-1.008-16.898zm-76.401-56.748v-34.598h32.729c6.701 0 11.729 1.437 15.078 4.311s5.024 7.192 5.024 12.943c0 5.814-1.765 10.155-5.291 13.03s-8.82 4.314-15.875 4.314zm158.131 77.203c19.329 0 34.642-6.137 45.939-18.411s16.944-28.878 16.944-49.809c0-21.347-5.649-38.291-16.944-50.832s-26.61-18.812-45.939-18.812c-19.212 0-34.484 6.271-45.808 18.812s-16.988 29.485-16.988 50.832c0 20.932 5.661 37.535 16.988 49.809s26.595 18.411 45.808 18.411zm-.001-23.214c-11.152 0-19.849-3.988-26.106-11.963s-9.384-19.049-9.384-33.221c0-14.468 3.142-25.793 9.43-33.976s14.97-12.274 26.061-12.274c11.147 0 19.864 4.091 26.148 12.274s9.426 19.508 9.426 33.976c0 14.172-3.143 25.249-9.426 33.221s-15.001 11.963-26.149 11.963zm109.921 19.657h27.306V118.25h39.491V95.037H407.446v23.213h39.49zm185.369 0v-23.215h-71.954v-34.065h63.952V146h-63.952v-27.75h68.932V95.037h-96.238v130.746zm127.012-49.275V95.035h-27.305v82.362c0 10.139-1.959 17.359-5.872 21.658s-10.434 6.448-19.566 6.448c-8.54 0-14.931-2.342-19.169-7.026s-6.357-11.711-6.357-21.08V95.035h-27.304v81.473c.058 17.967 4.401 31.264 13.03 39.894 8.625 8.622 21.896 12.938 39.801 12.938 18.677 0 32.153-4.136 40.424-12.41s12.381-21.744 12.32-40.422zm94.594-42.249h26.595c-1.015-13.102-6.108-23.511-15.297-31.219s-21.1-11.562-35.744-11.562c-15.648 0-28.065 3.721-37.254 11.163s-13.78 17.508-13.78 30.196c0 11.325 3.468 19.657 10.409 24.993 6.994 5.396 20.861 10.406 41.603 15.031 11.256 2.491 18.603 4.893 22.041 7.205 3.525 2.312 5.29 5.93 5.29 10.851 0 4.981-2.446 8.88-7.335 11.699-4.892 2.811-11.693 4.222-20.405 4.222-8.478 0-15.09-1.868-19.829-5.604s-7.262-9.072-7.559-16.01h-26.329c.655 14.113 5.635 24.994 14.938 32.643 9.311 7.65 22.235 11.474 38.774 11.474 16.482 0 29.553-3.603 39.217-10.807s14.492-16.944 14.492-29.218c0-12.215-3.208-21.08-9.618-26.594-6.403-5.572-19.121-10.496-38.152-14.765-13.102-2.906-21.67-5.426-25.701-7.561-4.094-2.134-6.136-5.158-6.136-9.072 0-5.455 1.955-9.709 5.862-12.763 3.914-3.054 9.334-4.581 16.272-4.581 7.998 0 14.487 1.824 19.466 5.47s7.702 8.583 8.18 14.809z"/><use xlink:href="#B"/><use xlink:href="#B" x="253.045"/><path d="M1359.059 118.25h-39.491v-11.564-11.649h106.288v11.561 11.652h-39.491v107.533h-13.609-13.697zm83.073 107.533V95.037h96.238v11.561 11.652h-68.932V146h63.951v11.207 11.296h-63.951v34.065h71.956v11.563 11.652zm192.35-91.524c-.475-6.226-3.201-11.162-8.177-14.809s-11.468-5.47-19.467-5.47c-6.938 0-12.357 1.527-16.271 4.581-3.908 3.054-5.864 7.308-5.864 12.763 0 3.914 2.046 6.938 6.137 9.072 4.032 2.135 12.601 4.655 25.699 7.561 19.034 4.269 31.753 9.193 38.156 14.765 6.41 5.514 9.618 14.379 9.618 26.594 0 12.274-4.833 22.017-14.498 29.218-9.659 7.204-22.733 10.807-39.212 10.807-16.544 0-29.464-3.824-38.773-11.474s-14.284-18.53-14.937-32.643h26.327c.296 6.938 2.816 12.274 7.554 16.01 4.744 3.736 11.355 5.604 19.829 5.604 8.716 0 15.518-1.411 20.409-4.222 4.887-2.819 7.329-6.718 7.329-11.699 0-4.921-1.761-8.539-5.283-10.851-3.445-2.312-10.786-4.714-22.046-7.205-20.742-4.625-34.605-9.635-41.597-15.031-6.943-5.336-10.412-13.668-10.412-24.993 0-12.688 4.59-22.755 13.78-30.196s21.607-11.163 37.256-11.163c14.641 0 26.553 3.855 35.743 11.562s14.284 18.117 15.293 31.219h-26.593zm-452.261 91.485h-27.703c-.712-1.36-.392-18.147-.45-23.303l-.172-12.094c-.125-5.873-1.856-10.053-5.201-12.544s-8.906-3.738-16.668-3.738h-27.217v51.679h-13.608-13.697V94.995h13.608 52.299c12.452 0 22.491 3.337 30.11 10.006 7.614 6.674 11.427 15.466 11.427 26.373 0 12.574-4.24 21.762-12.719 27.573-2.254 1.542-4.803 2.843-7.649 3.914 1.601.652 3.054 1.367 4.358 2.135 7.471 4.447 11.355 11.918 11.651 22.414l.623 21.433c.119 4.274.238 15.122 1.008 16.901m-77.411-73.645h31.664c7.057 0 12.352-1.438 15.88-4.314 3.522-2.875 5.289-7.216 5.289-13.03 0-5.749-1.679-10.065-5.022-12.942-3.351-2.875-8.379-4.311-15.079-4.311h-32.731v34.597zM4.234 7.362h17.637c5.988 0 10.632 2.152 13.933 6.459 2.944 3.885 4.416 8.862 4.416 14.929 0 4.686-.87 8.922-2.609 12.707-3.062 6.688-8.33 10.033-15.799 10.033H4.234V7.362zm16.465 39.021c1.978 0 3.602-.21 4.875-.63 2.271-.781 4.131-2.284 5.581-4.506 1.155-1.782 1.987-4.065 2.497-6.849.293-1.662.44-3.205.44-4.626 0-5.467-1.063-9.713-3.188-12.737s-5.545-4.536-10.266-4.536H10.271v33.884h10.428zm46.843-26.179c2.13 1.072 3.752 2.458 4.867 4.161 1.075 1.622 1.791 3.513 2.149 5.676.319 1.482.478 3.845.478 7.09h-23.4c.1 3.273.864 5.898 2.295 7.877s3.646 2.966 6.646 2.966c2.802 0 5.037-.936 6.707-2.806a9.56 9.56 0 0 0 1.986-3.772h5.316c-.14 1.183-.605 2.499-1.396 3.95s-1.674 2.639-2.647 3.56c-1.629 1.602-3.647 2.683-6.051 3.245-1.293.32-2.753.48-4.382.48-3.98 0-7.354-1.457-10.121-4.37s-4.149-6.994-4.149-12.242c0-5.166 1.392-9.361 4.179-12.587s6.429-4.835 10.927-4.835c2.268 0 4.466.535 6.596 1.607zm1.938 12.631c-.22-2.344-.727-4.216-1.52-5.617-1.471-2.603-3.922-3.906-7.357-3.906-2.462 0-4.529.897-6.197 2.689s-2.551 4.071-2.65 6.834H69.48zM82.036 7.362h5.408V51.49h-5.408V7.362zm16.041 2.133c1.262-1.843 3.696-2.765 7.299-2.765l1.051.031 1.232.09v4.926l-1.23-.076-.713-.015c-1.66 0-2.653.425-2.978 1.276s-.484 3.02-.484 6.503h5.406v4.266h-5.406V51.49h-5.347V23.733H92.43v-4.266h4.477v-5.046c.079-2.243.468-3.885 1.17-4.926zm15.65.84h5.467v8.982h5.138v4.416h-5.138v20.998c0 1.121.381 1.873 1.142 2.252.421.221 1.122.331 2.104.331l.84-.019a12.72 12.72 0 0 0 1.053-.101v4.296c-.621.181-1.268.31-1.938.39s-1.398.12-2.179.12c-2.523 0-4.235-.645-5.136-1.938s-1.352-2.968-1.352-5.031V23.733h-4.355v-4.416h4.355v-8.982zm19.225 31.061c.163 1.802.623 3.184 1.38 4.146 1.389 1.742 3.801 2.613 7.236 2.613 2.042 0 3.842-.436 5.396-1.307s2.33-2.218 2.33-4.04c0-1.382-.621-2.434-1.863-3.155-.793-.44-2.36-.952-4.701-1.533l-4.366-1.081c-2.788-.681-4.843-1.442-6.167-2.283-2.36-1.462-3.542-3.485-3.542-6.068 0-3.044 1.112-5.507 3.334-7.39s5.21-2.824 8.965-2.824c4.911 0 8.453 1.421 10.625 4.265 1.359 1.803 2.019 3.746 1.979 5.827h-5.107c-.103-1.214-.542-2.32-1.322-3.314-1.271-1.414-3.475-2.121-6.612-2.121-2.09 0-3.673.388-4.75 1.167s-1.614 1.807-1.614 3.083c0 1.396.707 2.514 2.122 3.352.815.5 2.019.94 3.611 1.319l3.642.872c3.958.941 6.61 1.853 7.958 2.733 2.104 1.382 3.155 3.555 3.155 6.518 0 2.864-1.1 5.337-3.3 7.419s-5.552 3.125-10.052 3.125c-4.846 0-8.278-1.086-10.295-3.26s-3.097-4.861-3.239-8.065h5.197zm47.417-21.192c2.13 1.072 3.752 2.458 4.867 4.161 1.075 1.622 1.791 3.513 2.149 5.676.319 1.482.478 3.845.478 7.09h-23.4c.099 3.273.864 5.898 2.295 7.877s3.646 2.966 6.646 2.966c2.802 0 5.037-.936 6.707-2.806a9.56 9.56 0 0 0 1.986-3.772h5.316c-.14 1.183-.605 2.499-1.396 3.95s-1.674 2.639-2.648 3.56c-1.629 1.602-3.646 2.683-6.051 3.245-1.293.32-2.753.48-4.382.48-3.98 0-7.354-1.457-10.121-4.37s-4.149-6.994-4.149-12.242c0-5.166 1.392-9.361 4.179-12.587s6.429-4.835 10.927-4.835c2.269 0 4.467.535 6.597 1.607zm1.938 12.631c-.22-2.344-.727-4.216-1.52-5.617-1.471-2.603-3.922-3.906-7.357-3.906-2.462 0-4.529.897-6.197 2.689s-2.551 4.071-2.65 6.834h17.724zm36.103 4.416c.135 2.504.703 4.536 1.707 6.097 1.909 2.925 5.276 4.386 10.1 4.386 2.16 0 4.127-.32 5.903-.96 3.433-1.242 5.151-3.464 5.151-6.669 0-2.403-.728-4.115-2.184-5.136-1.475-1.002-3.783-1.873-6.926-2.614l-5.791-1.352c-3.783-.881-6.461-1.853-8.033-2.915-2.715-1.841-4.073-4.596-4.073-8.26 0-3.966 1.335-7.22 4.005-9.763s6.45-3.816 11.342-3.816c4.502 0 8.325 1.118 11.474 3.35s4.72 5.802 4.72 10.709h-5.617c-.288-2.363-.903-4.176-1.842-5.438-1.748-2.302-4.714-3.454-8.9-3.454-3.378 0-5.808.741-7.286 2.222s-2.218 3.205-2.218 5.168c0 2.163.874 3.745 2.62 4.745 1.145.642 3.735 1.442 7.771 2.404l5.997 1.411c2.891.681 5.123 1.613 6.694 2.793 2.716 2.063 4.075 5.058 4.075 8.982 0 4.887-1.734 8.381-5.2 10.485s-7.495 3.153-12.084 3.153c-5.352 0-9.541-1.401-12.568-4.206-3.028-2.783-4.512-6.558-4.453-11.324h5.616zm37.488-26.916h5.467v8.982h5.138v4.416h-5.138v20.998c0 1.121.381 1.873 1.142 2.252.421.221 1.122.331 2.104.331l.84-.019a12.66 12.66 0 0 0 1.052-.101v4.296c-.621.181-1.267.31-1.938.39s-1.397.12-2.179.12c-2.523 0-4.235-.645-5.137-1.938s-1.352-2.968-1.352-5.031V23.733h-4.355v-4.416h4.355v-8.982zm21.418 8.982v21.358c0 1.643.253 2.984.762 4.025.936 1.922 2.682 2.885 5.236 2.885 3.666 0 6.164-1.683 7.489-5.048.722-1.803 1.082-4.275 1.082-7.419V19.317h5.408V51.49h-5.107l.061-4.747c-.688 1.222-1.544 2.253-2.565 3.094-2.023 1.683-4.48 2.524-7.369 2.524-4.5 0-7.565-1.533-9.195-4.597-.885-1.641-1.327-3.835-1.327-6.579V19.317h5.525zm46.485.992c.958.601 2.044 1.651 3.261 3.155V7.212h5.197V51.49h-4.866v-4.475c-1.257 1.982-2.744 3.414-4.459 4.294s-3.681 1.322-5.896 1.322c-3.571 0-6.663-1.506-9.277-4.521s-3.919-7.023-3.919-12.029c0-4.688 1.191-8.748 3.575-12.183s5.791-5.151 10.219-5.151c2.454 0 4.509.522 6.165 1.562zm-12.069 24.122c1.454 2.323 3.785 3.485 6.993 3.485 2.491 0 4.538-1.076 6.142-3.23s2.406-5.242 2.406-9.266c0-4.066-.827-7.074-2.481-9.028s-3.695-2.928-6.127-2.928c-2.71 0-4.906 1.041-6.591 3.123s-2.524 5.147-2.524 9.192c-.001 3.446.726 6.329 2.182 8.652zm48.479-24.227c2.131 1.072 3.752 2.458 4.867 4.161 1.074 1.622 1.791 3.513 2.149 5.676.318 1.482.478 3.845.478 7.09h-23.399c.099 3.273.864 5.898 2.294 7.877s3.647 2.966 6.646 2.966c2.802 0 5.037-.936 6.707-2.806.936-1.086 1.597-2.344 1.986-3.772h5.315c-.139 1.183-.604 2.499-1.396 3.95s-1.673 2.639-2.647 3.56c-1.629 1.602-3.646 2.683-6.051 3.245-1.293.32-2.753.48-4.382.48-3.98 0-7.354-1.457-10.12-4.37s-4.149-6.994-4.149-12.242c0-5.166 1.392-9.361 4.179-12.587s6.429-4.835 10.927-4.835c2.268 0 4.467.535 6.596 1.607zm1.938 12.631c-.219-2.344-.726-4.216-1.52-5.617-1.47-2.603-3.922-3.906-7.356-3.906-2.463 0-4.529.897-6.196 2.689s-2.552 4.071-2.651 6.834h17.723z"/><use xlink:href="#C"/><path d="M409.851 10.335h5.468v8.982h5.138v4.416h-5.138v20.998c0 1.121.381 1.873 1.141 2.252.421.221 1.122.331 2.104.331l.841-.019a12.76 12.76 0 0 0 1.053-.101v4.296c-.621.181-1.268.31-1.938.39a18.46 18.46 0 0 1-2.18.12c-2.522 0-4.234-.645-5.136-1.938s-1.353-2.968-1.353-5.031V23.733h-4.355v-4.416h4.355v-8.982zm35.883 9.869c2.131 1.072 3.752 2.458 4.867 4.161 1.074 1.622 1.791 3.513 2.149 5.676.318 1.482.478 3.845.478 7.09h-23.4c.1 3.273.864 5.898 2.295 7.877s3.646 2.966 6.646 2.966c2.802 0 5.037-.936 6.707-2.806.935-1.086 1.597-2.344 1.986-3.772h5.315c-.139 1.183-.604 2.499-1.396 3.95s-1.674 2.639-2.647 3.56c-1.629 1.602-3.646 2.683-6.051 3.245-1.293.32-2.753.48-4.382.48-3.98 0-7.354-1.457-10.121-4.37s-4.148-6.994-4.148-12.242c0-5.166 1.392-9.361 4.179-12.587s6.429-4.835 10.927-4.835c2.268 0 4.466.535 6.596 1.607zm1.937 12.631c-.219-2.344-.727-4.216-1.52-5.617-1.47-2.603-3.922-3.906-7.356-3.906-2.463 0-4.529.897-6.196 2.689s-2.552 4.071-2.651 6.834h17.723zm12.407-13.518h5.137v4.566c1.522-1.881 3.134-3.233 4.837-4.054s3.594-1.232 5.676-1.232c4.567 0 7.651 1.592 9.254 4.776.88 1.742 1.32 4.235 1.32 7.48V51.49h-5.496V31.214c0-1.963-.291-3.544-.872-4.747-.961-2.003-2.702-3.003-5.227-3.003-1.281 0-2.332.13-3.153.39-1.482.44-2.784 1.322-3.906 2.643-.901 1.062-1.487 2.159-1.757 3.29s-.406 2.749-.406 4.852V51.49h-5.406V19.317zm54.727-11.955h20.058c3.303 0 6.026.491 8.17 1.472 4.07 1.883 6.105 5.357 6.105 10.424 0 2.643-.545 4.806-1.636 6.488s-2.618 3.033-4.581 4.054c1.721.701 3.019 1.624 3.89 2.765s1.356 2.993 1.457 5.556l.211 5.919c.06 1.681.198 2.934.42 3.755.359 1.401 1.002 2.302 1.922 2.702v.992h-7.328c-.2-.379-.36-.872-.48-1.472s-.221-1.763-.301-3.485l-.36-7.358c-.137-2.885-1.178-4.816-3.124-5.798-1.108-.541-2.851-.811-5.224-.811h-13.222V51.49h-5.977V7.362zm19.415 20.217c2.726 0 4.883-.56 6.471-1.682s2.38-3.145 2.38-6.067c0-3.145-1.11-5.288-3.329-6.429-1.188-.601-2.776-.901-4.763-.901h-14.197v15.08h13.438zm46.882-5.051c2.843 2.762 4.265 6.823 4.265 12.185 0 5.183-1.252 9.465-3.758 12.847s-6.394 5.071-11.663 5.071c-4.396 0-7.885-1.496-10.471-4.487s-3.876-7.007-3.876-12.05c0-5.402 1.36-9.704 4.085-12.906s6.384-4.801 10.978-4.801c4.116 0 7.595 1.38 10.44 4.141zm-3.357 21.383c1.316-2.71 1.976-5.727 1.976-9.047 0-2.999-.476-5.44-1.426-7.32-1.505-2.96-4.099-4.441-7.782-4.441-3.268 0-5.644 1.262-7.129 3.782s-2.229 5.56-2.229 9.121c0 3.42.743 6.271 2.229 8.55s3.841 3.42 7.069 3.42c3.544-.001 5.975-1.356 7.292-4.065zm34.133-23.707c2.13 1.072 3.752 2.458 4.866 4.161 1.075 1.622 1.791 3.513 2.149 5.676.319 1.482.478 3.845.478 7.09h-23.399c.1 3.273.864 5.898 2.295 7.877s3.646 2.966 6.646 2.966c2.802 0 5.037-.936 6.706-2.806.936-1.086 1.597-2.344 1.986-3.772h5.316c-.14 1.183-.605 2.499-1.396 3.95s-1.674 2.639-2.647 3.56c-1.63 1.602-3.647 2.683-6.052 3.245-1.293.32-2.753.48-4.382.48-3.98 0-7.354-1.457-10.12-4.37s-4.149-6.994-4.149-12.242c0-5.166 1.392-9.361 4.179-12.587s6.43-4.835 10.927-4.835c2.268 0 4.467.535 6.597 1.607zm1.938 12.631c-.22-2.344-.727-4.216-1.52-5.617-1.471-2.603-3.923-3.906-7.357-3.906-2.462 0-4.528.897-6.196 2.689s-2.552 4.071-2.65 6.834h17.723z"/><use xlink:href="#D"/><path d="M642.547 19.317l8.592 26.194 8.951-26.194h5.917l-12.11 32.172h-5.763l-11.865-32.172h6.278zm47.974.887c2.13 1.072 3.752 2.458 4.866 4.161 1.075 1.622 1.791 3.513 2.149 5.676.319 1.482.478 3.845.478 7.09h-23.399c.1 3.273.864 5.898 2.295 7.877s3.646 2.966 6.646 2.966c2.802 0 5.037-.936 6.706-2.806.936-1.086 1.597-2.344 1.986-3.772h5.316c-.14 1.183-.605 2.499-1.396 3.95s-1.674 2.639-2.647 3.56c-1.63 1.602-3.647 2.683-6.052 3.245-1.293.32-2.753.48-4.382.48-3.98 0-7.354-1.457-10.12-4.37s-4.149-6.994-4.149-12.242c0-5.166 1.392-9.361 4.179-12.587s6.43-4.835 10.927-4.835c2.268 0 4.466.535 6.597 1.607zm1.937 12.631c-.22-2.344-.727-4.216-1.52-5.617-1.471-2.603-3.923-3.906-7.357-3.906-2.462 0-4.528.897-6.196 2.689s-2.552 4.071-2.65 6.834h17.723zm12.556-13.518h5.137v5.558c.421-1.082 1.452-2.398 3.095-3.951s3.534-2.327 5.677-2.327c.101 0 .271.01.511.029l1.232.12v5.708c-.32-.06-.617-.1-.887-.12l-.887-.03c-2.723 0-4.816.876-6.277 2.628a9.17 9.17 0 0 0-2.193 6.053V51.49h-5.407V19.317zm40.208.887c2.131 1.072 3.752 2.458 4.867 4.161 1.074 1.622 1.791 3.513 2.149 5.676.318 1.482.478 3.845.478 7.09h-23.399c.099 3.273.864 5.898 2.294 7.877s3.647 2.966 6.646 2.966c2.801 0 5.037-.936 6.706-2.806.936-1.086 1.597-2.344 1.986-3.772h5.315c-.139 1.183-.604 2.499-1.396 3.95s-1.673 2.639-2.647 3.56c-1.629 1.602-3.646 2.683-6.051 3.245-1.293.32-2.753.48-4.382.48-3.98 0-7.354-1.457-10.12-4.37s-4.149-6.994-4.149-12.242c0-5.166 1.392-9.361 4.179-12.587s6.429-4.835 10.927-4.835c2.269 0 4.467.535 6.597 1.607zm1.938 12.631c-.219-2.344-.726-4.216-1.52-5.617-1.47-2.603-3.922-3.906-7.356-3.906-2.463 0-4.529.897-6.196 2.689s-2.552 4.071-2.65 6.834h17.722z"/><use xlink:href="#C" x="385.011"/><use xlink:href="#D" x="167.56"/><path d="M825.334 20.61c1.017.701 2.055 1.723 3.111 3.063v-4.055h4.986v29.258c0 4.085-.599 7.31-1.795 9.672-2.236 4.366-6.457 6.549-12.664 6.549-3.454 0-6.358-.777-8.714-2.329s-3.672-3.98-3.951-7.285h5.496c.26 1.442.777 2.554 1.554 3.334 1.216 1.202 3.128 1.803 5.737 1.803 4.122 0 6.82-1.462 8.095-4.385.758-1.722 1.106-4.797 1.047-9.222-1.078 1.643-2.375 2.864-3.89 3.665s-3.522 1.201-6.016 1.201c-3.471 0-6.508-1.236-9.111-3.709s-3.904-6.564-3.904-12.271c0-5.387 1.312-9.592 3.935-12.617s5.79-4.536 9.5-4.536c2.515.001 4.708.622 6.584 1.864zm.662 5.796c-1.634-1.921-3.715-2.883-6.245-2.883-3.786 0-6.376 1.783-7.771 5.347-.736 1.903-1.105 4.396-1.105 7.48 0 3.625.732 6.383 2.197 8.276s3.432 2.839 5.902 2.839c3.864 0 6.583-1.752 8.157-5.258.878-1.982 1.315-4.294 1.315-6.939 0-3.985-.817-6.939-2.45-8.862z"/><use xlink:href="#D" x="215.443"/><path d="M855.332 19.317h5.137v4.566c1.522-1.881 3.134-3.233 4.837-4.054s3.594-1.232 5.678-1.232c4.566 0 7.649 1.592 9.25 4.776.884 1.742 1.322 4.235 1.322 7.48V51.49h-5.496V31.214c0-1.963-.291-3.544-.872-4.747-.96-2.003-2.704-3.003-5.224-3.003-1.284 0-2.337.13-3.156.39-1.482.44-2.784 1.322-3.906 2.643-.901 1.062-1.486 2.159-1.757 3.29s-.406 2.749-.406 4.852V51.49h-5.406V19.317zm52.1 1.293c1.017.701 2.055 1.723 3.113 3.063v-4.055h4.986v29.258c0 4.085-.599 7.31-1.796 9.672-2.236 4.366-6.458 6.549-12.666 6.549-3.451 0-6.356-.777-8.711-2.329s-3.673-3.98-3.955-7.285h5.5c.258 1.442.773 2.554 1.554 3.334 1.213 1.202 3.125 1.803 5.733 1.803 4.125 0 6.822-1.462 8.098-4.385.756-1.722 1.105-4.797 1.046-9.222-1.079 1.643-2.374 2.864-3.89 3.665s-3.522 1.201-6.016 1.201c-3.469 0-6.508-1.236-9.11-3.709s-3.905-6.564-3.905-12.271c0-5.387 1.311-9.592 3.935-12.617s5.79-4.536 9.502-4.536c2.512.001 4.705.622 6.582 1.864zm.661 5.796c-1.634-1.921-3.715-2.883-6.247-2.883-3.786 0-6.374 1.783-7.771 5.347-.735 1.903-1.105 4.396-1.105 7.48 0 3.625.732 6.383 2.196 8.276s3.434 2.839 5.903 2.839c3.866 0 6.585-1.752 8.159-5.258.878-1.982 1.316-4.294 1.316-6.939.001-3.985-.817-6.939-2.451-8.862z"/></g><defs ><path id="B" d="M956.322 225.783V95.037h96.237v11.561 11.652h-68.932V146h63.951v11.207 11.296h-63.951v34.065h71.956v11.563 11.652z"/><path id="C" d="M374.555 19.317h5.137v4.566c1.522-1.881 3.134-3.233 4.837-4.054s3.594-1.232 5.677-1.232c4.566 0 7.65 1.592 9.253 4.776.88 1.742 1.32 4.235 1.32 7.48V51.49h-5.496V31.214c0-1.963-.291-3.544-.872-4.747-.961-2.003-2.702-3.003-5.227-3.003-1.281 0-2.332.13-3.153.39-1.482.44-2.784 1.322-3.906 2.643-.901 1.062-1.486 2.159-1.757 3.29s-.406 2.749-.406 4.852V51.49h-5.406V19.317z"/><path id="D" d="M626.222 7.362h5.496v6.128h-5.496V7.362zm0 12.105h5.496V51.49h-5.496V19.467z"/></defs></svg>