<svg xmlns="http://www.w3.org/2000/svg" width="1663" height="550" fill="#fff" ><path d="M84.44 185.04c39.98 0 60.45 13.56 60.45 42.59 0 20.7-7.38 39.98-37.6 53.07l30.94 69.24H96.35l-24.99-62.82-15.96-.24-8.79 63.06H8.29l23.09-164.9zm-25.23 74.95h16.91c23.08 0 29.03-16.89 29.03-29.74 0-12.38-8.09-17.85-24.75-17.85H65.88zm161.84-40.45c33.54 0 53.06 20.71 52.82 53.78-.24 34.74-17.37 80.67-70.44 80.67-33.55 0-52.83-20.23-52.83-53.78 0-35.22 17.14-80.67 70.45-80.67zm-15 106.85c24.74 0 29.74-36.18 29.74-55.46.24-16.65-5.71-23.79-17.36-23.79-25 0-29.99 36.17-29.99 55.45 0 16.65 5.95 23.8 17.61 23.8zm219.87-102.81l-28.54 98.28-3.34-98.28h-36.16l-33.07 98.28.7-98.28h-37.13l8.81 126.36h44.02l29.51-92.81 3.57 92.81h43.78l43.31-126.36zm256.61 62.35c0 44.26 24.52 68.06 63.78 68.06 22.13 0 40.93-9.99 53.3-20.94l-14.75-23.32c-10.23 7.37-20.47 14.04-33.55 14.04-17.85 0-29.04-11.19-29.04-37.84 0-29.02 10.71-76.15 45.46-76.15 11.18 0 19.27 4.05 27.12 11.42l21.18-20.7c-11.42-12.61-27.36-19.51-48.79-19.51-62.1 0-84.71 59.73-84.71 104.94zm199.9-66.39c33.56 0 53.05 20.71 52.83 53.78-.24 34.74-17.37 80.67-70.44 80.67-33.55 0-52.83-20.23-52.83-53.78 0-35.22 17.14-80.67 70.44-80.67zm-14.99 106.85c24.74 0 29.74-36.18 29.74-55.46.23-16.65-5.71-23.79-17.36-23.79-25 0-29.99 36.17-29.99 55.45 0 16.65 5.95 23.8 17.61 23.8zm153-106.85c16.9 0 34.75 3.8 51.88 13.32l-11.89 80.92c-.25 1.9-.47 3.8-.47 5.23 0 5.95 2.13 8.32 6.65 9.99l-10.7 24.28c-13.81-1.19-25.47-7.38-29.28-20.95-8.56 12.62-20.7 21.66-37.35 21.66-27.37 0-41.18-19.75-41.18-50.21 0-36.17 19.04-84.24 72.34-84.24zm-19.51 106.85c8.81 0 16.67-6.67 23.8-17.62l9.04-60.2c-4.99-1.66-8.56-2.38-14.28-2.38-24.51 0-33.07 32.84-33.07 57.35 0 17.85 5.95 22.85 14.51 22.85zm83.53-26.9c0 33.32 19.74 54.5 53.78 54.5 16.89 0 30.93-5.24 43.55-14.52l-13.81-24.03c-9.28 5.71-15.95 8.8-24.98 8.8-11.91 0-19.75-5.47-19.75-23.31 0-21.43 6.42-52.6 32.11-52.6 8.1 0 15.01 2.38 21.91 8.8l18.32-21.41c-10.48-10.71-24.28-16.18-40.46-16.18-51.4 0-70.67 47.11-70.67 79.95zm135.63-126.11l-24.74 176.56h37.12l9.76-69.48c8.81-17.85 18.32-30.22 28.08-30.22 5.47 0 9.04 3.33 7.13 16.18l-11.65 83.52h36.88l12.85-91.61c3.33-24.28-7.86-38.79-28.31-38.79-16.43 0-31.19 10.23-40.23 25.22l10.48-75.19zm131.13 4.28c-1.67 12.37 6.18 22.13 19.27 22.13 12.86 0 22.6-8.81 24.27-20.47 1.67-12.61-6.18-22.36-19.51-22.36-12.37 0-22.36 9.04-24.03 20.7zm-3.09 45.92l-17.61 126.36h36.88l17.6-126.36zm97.31 22.13l.73-22.13h-32.13l-17.62 126.36h36.89l9.76-69.48c9.04-17.85 18.56-30.22 28.08-30.22 5.47 0 9.04 3.33 7.37 16.18l-11.9 83.52h37.12l12.62-91.37c3.57-24.52-7.61-39.03-27.84-39.03-16.89 0-32.37 10.47-43.08 26.17zm160.16-26.17c16.66 0 34.5 3.8 51.87 13.32l-15.71 107.34c-6.41 44.49-26.65 62.81-66.38 62.81-15.71 0-33.79-5.47-47.6-14.04l12.62-24.51c11.66 6.42 23.56 9.99 34.26 9.99 13.8 0 27.13-4.28 30.71-28.79l1.65-12.13c-8.31 9.51-19.76 16.41-33.31 16.41-27.37 0-41.41-19.99-41.41-49.01 0-34.99 19.27-81.39 73.3-81.39zm-20.22 102.56c9.52 0 17.6-7.37 24.73-17.61l8.81-55.92c-5-1.66-8.56-2.38-14.27-2.38-25.23 0-34.03 31.41-34.03 53.77 0 17.14 6.67 22.14 14.76 22.14zM913.26 1.37c-2.7.04-5.26 1.58-6.56 4.3l-16.42 34.47c-1.93 4.05-.35 9.24 3.52 11.53l.95.57-8.45 14.28c-39.57-17.75-84.59-21.91-107.7-21.91-35.76 0-71.59 6.79-104.72 20.22-3.44 1.39-6.8 2.91-10.16 4.43l-8.35-14.09.96-.57c3.87-2.28 5.45-7.47 3.51-11.52L643.43 8.61c-1.93-4.05-6.68-5.5-10.53-3.22l-29.66 17.55c-3.86 2.28-4.87 7.14-2.26 10.78l22.3 30.99c2.63 3.65 7.94 4.76 11.81 2.47l.95-.57 7.63 12.9c-22.45 12.68-43.1 28.58-61 47.13-26.04 26.93-46.32 59.44-59.01 94.67-12.78 35.43-19.62 76.37-17.4 113.96 1.02 17.14 6.59 59.53 27.35 97.33 21.59 39.41 59.1 74.28 97.94 92.17 76.13 35.07 173.28 14.9 193.63 10.52 38.03-8.15 74.67-21.64 110.72-36l118.36-48.09c36.73-14.23 74.15-26.88 112.35-36.6 33.01-8.39 66.64-14.54 100.6-17.55-37.97-7.15-76.91-8.59-115.43-6.54-41.11 2.18-81.84 8.54-122.14 16.7-35.98 7.28-71.65 15.96-107.33 24.55-40.75 9.79-81.66 21.17-123.68 24.07-40.53 2.79-111.3.68-160.23-45.63-17.21-16.3-30.31-41.19-36.63-65.02-8.91-33.59-6.83-65.8-5.66-75.13 3.91-30.79 14.57-60.63 31.35-86.75a205.35 205.35 0 0 1 65.47-64.01C724.58 99.96 761.1 89.86 798.03 88c19.18-.97 38.83-.17 57.59 4.2 17.6 4.1 34.35 11.29 49.77 20.65 4.13 2.51 21.34 14.69 21.34 14.69l19.22-5.51c3.68-1.17-.02-6.66-1.81-9.36-9.77-14.81-23.02-26.47-37.93-35.66l7.88-13.33.96.56c3.86 2.3 9.18 1.19 11.79-2.46l22.31-30.99c2.62-3.65 1.6-8.5-2.26-10.79L917.25 2.45c-1.21-.71-2.5-1.06-3.77-1.08z"/></svg>