<svg xmlns="http://www.w3.org/2000/svg" width="795" height="280" ><path fill="#fff" fill-rule="evenodd" d="M224 .7c1.9.3 5.1 1.3 6.9 2.2 1.9.9 4.8 3.4 6.3 5.6s3.3 6 3.9 8.5.8 6.1.4 8-2.5 8.8-4.6 15.3c-2.2 6.4-3.9 11.9-3.9 12.2s15.8.5 35 .5c27.3 0 35 .3 35 1.3 0 .6-1.3 5-2.8 9.7-1.6 4.7-3.7 10.1-4.7 12s-3.2 5.3-4.9 7.4-5.1 5.1-12.1 9.1l-59.9 1-3.3 10.5c-1.9 5.8-5.3 18.1-7.8 27.5-2.4 9.4-5.3 22.4-6.4 29-1 6.6-2.2 15.4-2.6 19.5-.3 4.1-.1 10.9.5 15s1.9 8.8 2.8 10.4 2.8 3.8 4.2 4.8c1.5 1.2 4.1 2 6.5 2 2.3 0 6.1-1.1 9-2.5 2.7-1.3 8.4-5.1 12.5-8.4 4.1-3.4 12.2-11 18-16.9 5.8-6 15-16.3 20.5-22.9s15.4-19.2 22.1-28l18.7-25.3c6.3-8.7 7.1-10.3 13.3-29.5l14.6-42.2c4.3-12.1 8.7-23.3 9.8-25 1-1.7 3.8-4.1 6.2-5.5 4.1-2.4 5.2-2.5 22-2.7 9.8-.2 17.8 0 17.8.5 0 .4-3.2 9.5-7.1 20.2l-14.5 41.5c-4.1 12.1-9.8 29.9-12.5 39.5-2.8 9.6-6.4 22.9-7.9 29.5-1.6 6.6-3.9 17.9-5.1 25-1.2 7.3-2.1 17.8-2.2 24 0 7.2.5 12.9 1.5 16.5 1.2 3.8 2.7 6.5 5.2 8.8 2 1.7 4.6 3.3 5.8 3.4 1.3 0 3.4 0 4.8-.1 1.4-.2 4.2-1.1 6.2-2.2 2.1-1 7.1-5.2 11.1-9.1 4-4 10.8-11.6 14.9-16.8 4.2-5.2 16.9-22.6 28.3-38.5l21.6-29.2c.5-.2.9.9.9 2.5 0 1.5.9 7.2 2 12.7s3.1 13.8 4.5 18.5c1.3 4.7 2.5 9.1 2.5 9.8 0 .6-6.1 9.9-13.7 20.5L423.1 208c-3.6 4.7-10.6 12.7-15.6 17.9-4.9 5.1-12.6 12-17 15.3s-10.3 7.2-13 8.6c-2.8 1.3-6.8 3.1-9 3.9-2.2.7-6.8 1.8-10.3 2.3-4.1.7-8.5.7-13 0-3.7-.6-9-2.1-11.7-3.5-2.8-1.3-7.4-4.8-10.3-7.7-3.5-3.4-6.8-8.1-9.3-13.3-2.1-4.4-4.9-11.6-6-16-1.7-6.5-2.2-11.2-2.3-24.7 0-9.3-.3-16.8-.6-16.8s-3 3.5-6 7.8a445.62 445.62 0 0 1-13.1 17.2c-4.2 5.2-12.3 14.4-18 20.4s-14 13.8-18.4 17.3-10.9 8.1-14.5 10.3-9.9 5.2-14 6.7c-5.9 2.1-9.3 2.6-16 2.6-4.7 0-11.4-.8-15-1.7s-8.5-2.9-11-4.3c-2.5-1.5-6.3-4.6-8.5-6.8-2.2-2.3-5.4-6.8-7.2-10.1-1.7-3.2-4.2-9.5-5.5-13.9-2.1-7.3-2.3-9.9-2.2-29 0-17.3.4-23.2 2.3-33.5 1.2-6.9 3.6-18.1 5.2-25a511.42 511.42 0 0 1 5-19.5c1.1-3.9 6.3-20.5 11.5-37L194.2 30c2.7-8.5 5.6-16.6 6.3-18s2.4-3.5 3.7-4.6c1.2-1.2 3.9-3 5.8-4 1.9-.9 5.1-2.1 7-2.5 1.9-.3 5.1-.4 7-.2zM721 3l-1.4 3.8c-.8 2-5.2 14.3-9.9 27.2l-14 40.5-9.1 29c-1.9 6.6-4.8 17.4-6.5 24s-3.9 16.7-5.1 22.5c-1.1 5.8-2.6 14.8-3.2 20s-.9 13.8-.6 19c.3 7.4.9 10.6 2.9 14.4 1.3 2.8 3.5 5.8 4.9 6.9 1.5 1.1 4.3 1.9 7 1.9 2.5.1 6-.6 7.7-1.5 1.8-1 6.9-5.2 11.4-9.4 4.5-4.3 12.9-14 18.8-21.6 7.8-10.2 11.6-14.3 14.6-15.7 2.2-1.1 6-2 8.5-2 2.8 0 5.8.8 7.7 2 1.8 1.1 4.4 3.5 5.7 5.3 1.3 1.7 2.6 4.6 3 6.2.4 1.8.1 5.1-.8 8-1 3.3-4.8 9.3-11.3 18-5.4 7.1-14.5 17.9-20.3 23.9-5.8 5.9-13.4 13-17 15.7-3.6 2.8-10.5 7-15.5 9.4-5.9 3-11.3 4.8-15.8 5.5-4.6.7-8.8.7-13.5-.1-3.7-.6-9-2.1-11.7-3.4-2.8-1.3-7-4.4-9.5-6.8s-5.7-6.1-7.2-8.3c-1.5-2.1-4.1-7-5.7-10.9-1.5-3.9-3.3-9.6-4-12.7-.6-3.2-1.4-5.8-1.9-5.8-.4 0-2.1 1.9-3.7 4.3-1.6 2.3-7.1 8.5-12.1 13.7s-11.5 11.4-14.5 13.7-8.1 5.8-11.4 7.8c-3.3 1.9-8.4 4.4-11.3 5.5-2.8 1.1-8.1 2.4-11.7 3-4.4.7-8.6.7-13.3-.1-3.7-.5-9.4-2.3-12.7-3.9s-8.9-5.3-12.5-8.2c-3.6-3-9.4-9-12.9-13.4-3.5-4.3-6.6-8-7-8.2-.3-.2-8.4 10.2-18 23s-18.8 24.5-20.5 26-5.4 3.5-8.1 4.4c-3.2 1-6.5 1.4-9 1-2.2-.3-5.9-1.9-8.3-3.6-2.5-1.8-5-4.7-6.2-7.2-1.1-2.5-2-6.4-2-9.3 0-3.2.9-6.8 2.4-10 1.3-2.7 12.1-17.9 45.6-62.5l-4.4-9.7c-2.4-5.4-5.6-13.2-7-17.3-1.5-4.1-3.8-11.8-5.1-17s-3.1-14.7-4.1-21c-1.2-8.7-1.5-15.4-1.1-27.5.4-11.7 1.1-18.2 2.6-24 1.2-4.4 3.4-10.7 4.9-14 1.6-3.3 4.4-7.7 6.3-9.9 1.9-2.1 5.2-4.8 7.4-5.8 3-1.6 5.5-2 10.1-1.7 4.7.3 6.9 1 9.7 3.2 2 1.5 4.7 4.6 5.9 7 1.5 2.8 2.2 6 2.2 9.7 0 3.6-1.1 8.7-3.2 14.5-1.8 5.2-3.6 12.9-4.2 18.3-.7 6.3-.7 12.3 0 19 .6 5.3 1.9 13.3 3 17.7 1 4.4 2.7 10.4 3.7 13.3 1 3 2.1 5.4 2.4 5.5.4.1 7.1-8.8 15-19.8L558.5 79 583 44.1c4.4-6.3 7.8-10.1 10.5-11.7 2.2-1.3 6-2.6 8.5-3s6.1-.2 8 .4 4.7 2 6.2 3.2c1.6 1.1 3.8 3.9 5 6.3q2.1 4.2 2.1 9.7c0 3.8-.7 6.9-2.3 10-1.3 2.5-7.9 13.3-14.8 24-6.8 10.7-18.1 27.6-25 37.5s-20.4 28.6-47.5 65l1.9 4c1.1 2.2 5 7.2 8.9 11.1s9 8.2 11.5 9.4c3.1 1.6 6.2 2.3 10 2.3 3.9 0 7.3-.9 11.5-2.8 4.1-2 8.5-5.3 14.1-10.9 4.9-4.9 11-12.5 15.3-19.1 4-6.1 10.3-17.3 14.1-25s9.2-19.9 12.1-27c2.8-7.1 12.1-33.7 20.6-59s16.7-48.7 18.3-52c1.5-3.3 3.8-7 5.1-8.2 1.3-1.3 4.4-2.9 6.9-3.7 3.1-1 9.6-1.5 37-1.6zM139 49.3c8.8.2 11.3.6 15.4 2.7 2.7 1.4 6.1 4 7.5 5.9 1.6 2.2 2.7 5.2 3 8 .3 3.5-1.1 9.7-6 26.1-4.4 14.9-7.3 22.9-9.4 25.9-1.6 2.5-4.6 5.3-6.5 6.3s-5.1 2.1-7 2.4-5.4.1-7.8-.5c-2.3-.6-5.8-2.6-7.8-4.3-2.5-2.3-4-4.9-5.1-8.8-1-3.7-1.3-7-.8-10 .4-2.5 1.3-6.1 2.1-8 .7-1.9 1-3.8.6-4.2s-3.4.3-6.7 1.5-8.3 3.6-11 5.2c-2.8 1.6-7.2 4.9-9.9 7.4-2.6 2.5-6.3 6.6-8.1 9.1s-5.1 8.1-7.3 12.5-4.9 10.5-6.1 13.5c-1.1 3-3.4 10.2-5.1 16s-4.6 17.9-6.5 27c-1.8 9.1-4.8 25.7-6.5 37-1.8 11.3-3.6 21.6-4.2 23-.5 1.4-2 4-3.4 5.8-1.3 1.7-4.3 4.2-6.7 5.4-2.7 1.4-6.1 2.1-9.7 2.2-4.2 0-6.6-.6-10.3-2.7-2.6-1.5-5.9-4.5-7.5-6.9-1.9-3-2.8-5.8-3.1-9.7-.2-3.1.2-10.5.9-16.6.6-6 2.3-17.3 3.6-25 1.4-7.7 4.1-21 6-29.5l6.6-28c1.6-6.9 6.3-24.6 10.3-39.5s8-28.8 8.9-31c1-2.2 3.1-5.5 4.9-7.4 1.8-1.8 4.7-4 6.4-4.7 1.8-.8 5.4-1.4 8-1.4 3 0 6 .7 8 2 1.8 1.1 4 3.7 4.9 5.8.9 2 1.7 6.5 1.8 9.9.1 3.5.3 6.3.6 6.3s1.6-1.1 3-2.6c1.4-1.4 6.1-5.3 10.5-8.7 4.4-3.3 11.6-7.7 16-9.8s11.4-4.7 15.5-5.9c5.8-1.5 9.9-1.9 18-1.7zM771.5 124c1.6 0 4.9.9 7.2 2 3.1 1.4 5 3.3 7 6.8 2.1 3.8 2.5 5.6 2.2 9.8-.3 3.4-1.2 6.1-3 8.5-1.4 1.9-4.3 4.2-6.5 5.3-2.9 1.4-5.2 1.7-8.9 1.3-2.8-.3-6.1-1.4-7.4-2.4s-3.3-3.1-4.5-4.6c-1.4-2-2.2-4.7-2.4-8.5-.2-4.5.2-6.6 2-9.7 1.5-2.6 3.9-4.8 6.8-6.3 2.5-1.2 5.9-2.2 7.5-2.2z"/></svg>