<svg xmlns="http://www.w3.org/2000/svg" width="505" height="78" stroke="none" stroke-linecap="round" stroke-linejoin="round" fill="#fff" fill-rule="nonzero"><path d="M71.9 16.348l-.93 5.48H59.48l.82-4.93c.33-1.58 1.23-2.98 2.53-3.94 1.28-1.08 2.9-1.68 4.57-1.69a4.54 4.54 0 0 1 3.62 1.51c.86.97 1.19 2.31.88 3.57M75.23.008H63a15.64 15.64 0 0 0-9.98 3.67 14.82 14.82 0 0 0-5.58 8.87l-7.98 41.91h12.77a1.25 1.25 0 0 0 1.21-1.01l3.89-20.45h11.44l-4.09 21.46h12.8a1.24 1.24 0 0 0 1.21-1.01l7.7-40.43a10.41 10.41 0 0 0-2.31-9.16c-2.21-2.57-5.47-3.98-8.85-3.85m270.82 16.34l-.93 5.48h-11.49l.82-4.93c.33-1.58 1.23-2.98 2.53-3.94 1.28-1.08 2.9-1.68 4.57-1.69a4.54 4.54 0 0 1 3.62 1.51c.86.97 1.19 2.31.88 3.57m3.33-16.34h-12.24a15.64 15.64 0 0 0-9.98 3.67 14.82 14.82 0 0 0-5.58 8.87l-7.98 41.91h12.77a1.25 1.25 0 0 0 1.21-1.01l3.89-20.45h11.44l-4.09 21.46h12.8a1.24 1.24 0 0 0 1.21-1.01l7.7-40.43a10.41 10.41 0 0 0-2.31-9.16 11.07 11.07 0 0 0-8.84-3.85"/><path d="M135.01.978h-12.26l-5.08 26.55-9.76-26.04c-.22-.33-.59-.52-.99-.51l-8.9.01-10.19 53.47h12.62a1.22 1.22 0 0 0 1.19-.99l4.87-25.56 9.96 26.55h8.81a1.2 1.2 0 0 0 1.18-.99l9.73-51.04c.06-.36-.03-.73-.25-1.01a1.201 1.201 0 0 0-.93-.44m34.51 15.29l-4.28 22.43c-.28 1.3-1.01 2.46-2.08 3.25-1.06.91-2.41 1.4-3.8 1.41h-6.35l5.97-31.28h6.82a3.76 3.76 0 0 1 2.99 1.24c.71.8.98 1.91.73 2.95m3.2-15.29l-25.21.01-10.17 53.47h25.65a15.36 15.36 0 0 0 9.82-3.63 14.59 14.59 0 0 0 5.47-8.69l5.4-28.37a10.25 10.25 0 0 0-2.27-9.01c-2.17-2.52-5.37-3.91-8.69-3.78m57.3.44a1.201 1.201 0 0 0-.93-.44l-33.31.01-10.19 53.47h33.76a1.23 1.23 0 0 0 1.19-.99l1.66-8.66a1.24 1.24 0 0 0-.26-1 1.201 1.201 0 0 0-.93-.44h-19.75l1.91-9.98h14.26a1.21 1.21 0 0 0 1.19-.99l1.69-8.65c.07-.36-.03-.73-.26-1.01-.22-.28-.57-.45-.93-.45h-13.79l1.85-10.2h20.21a1.22 1.22 0 0 0 1.19-.99l1.69-8.66a1.251 1.251 0 0 0-.25-1.02m179.56-.44h-12.26l-5.08 26.55-9.76-26.05a1.14 1.14 0 0 0-.98-.51l-8.9.01-10.19 53.47h12.62a1.22 1.22 0 0 0 1.19-.99l4.87-25.56 9.96 26.55h8.81a1.2 1.2 0 0 0 1.18-.99l9.73-51.03c.06-.36-.03-.73-.26-1.01a1.201 1.201 0 0 0-.93-.44m34.5 15.29l-4.28 22.43c-.28 1.3-1.01 2.45-2.08 3.25-1.06.91-2.41 1.4-3.8 1.41h-6.35l5.96-31.28h6.82a3.78 3.78 0 0 1 3 1.24 3.22 3.22 0 0 1 .73 2.95m3.21-15.29l-25.21.01-10.18 53.47h25.66c3.6-.02 7.07-1.31 9.81-3.63 2.82-2.14 4.77-5.23 5.47-8.69l5.4-28.37a10.25 10.25 0 0 0-2.27-9.01 10.87 10.87 0 0 0-8.68-3.78m57.29.44a1.2 1.2 0 0 0-.93-.44l-33.31.01-10.19 53.47h33.76a1.23 1.23 0 0 0 1.19-.99l1.66-8.66a1.25 1.25 0 0 0-.26-1 1.201 1.201 0 0 0-.93-.44h-19.75l1.91-9.98H492a1.21 1.21 0 0 0 1.19-.99l1.68-8.65c.07-.36-.03-.73-.26-1.01-.22-.28-.57-.45-.93-.45H479.9l1.85-10.2h20.21a1.22 1.22 0 0 0 1.19-.99l1.69-8.66c.06-.36-.03-.73-.26-1.02m-243.44 14.85l-.22 1.31c-.27 1.32-1.02 2.49-2.1 3.29a5.91 5.91 0 0 1-3.79 1.4h-6.31l1.92-10.2h6.78a3.78 3.78 0 0 1 3 1.24 3.24 3.24 0 0 1 .72 2.96m3.3-15.29l-25.23.01-10.19 53.47h12.55a1.22 1.22 0 0 0 1.19-.99l3.89-20.08h6.78a3.7 3.7 0 0 1 2.99 1.26 3.26 3.26 0 0 1 .73 2.96l-3.27 16.85h12.77a1.22 1.22 0 0 0 1.18-.99l3.83-20.08c.41-1.79-.07-3.66-1.28-5.04a5.85 5.85 0 0 0-2.39-1.68c.86-.52 1.65-1.14 2.35-1.86 2.23-2.15 3.79-4.91 4.46-7.93l.59-3.1c.72-3.19-.12-6.54-2.26-9.01a10.88 10.88 0 0 0-8.69-3.79m13.59 53.48h27.65a1.22 1.22 0 0 0 1.19-.99l1.7-8.66a1.25 1.25 0 0 0-.26-1 1.201 1.201 0 0 0-.93-.44h-13.63l7.75-40.93c.06-.36-.03-.73-.25-1.01-.23-.28-.57-.44-.94-.44l-12.09.01-10.19 53.46zM.91.538h12.72c1.6 0 2.3.76 2.37 2.39.46 11.3.39 34.52.39 34.52L28.54.548h12.83c1.51 0 2.03.03 2.4.5.43.53-.05 1.61-.05 1.61l-19.4 48.8a13.71 13.71 0 0 1-1.07 2c-.67.95-1.53 1.02-3.09 1.02H4.45L.91.538zM0 69.708l498.25.01v7.64L0 77.348z"/></svg>