<svg xmlns="http://www.w3.org/2000/svg" width="505" height="78" stroke="none" stroke-linecap="round"
     stroke-linejoin="round" fill="#fff" fill-rule="nonzero">
    <path d="M71.9002 16.3483l-.93 5.48h-11.49l.82-4.93c.33-1.58 1.23-2.98 2.53-3.94 1.28-1.08 2.9-1.68 4.57-1.69 1.37-.07 2.7.48 3.62 1.51.86.97 1.19 2.31.88 3.57m3.33-16.34h-12.23c-3.65.02-7.19 1.32-9.98 3.67-2.88 2.18-4.86 5.33-5.58 8.87l-7.98 41.91h12.77c.59-.01 1.1-.43 1.21-1.01l3.89-20.45h11.44l-4.09 21.46h12.8c.59 0 1.1-.43 1.21-1.01l7.7-40.43c.74-3.25-.12-6.65-2.31-9.16-2.21-2.57-5.47-3.98-8.85-3.85m270.82 16.34l-.93 5.48h-11.49l.82-4.93c.33-1.58 1.23-2.98 2.53-3.94 1.28-1.08 2.9-1.68 4.57-1.69 1.37-.07 2.7.48 3.62 1.51.86.97 1.19 2.31.88 3.57m3.33-16.34h-12.24c-3.65.02-7.19 1.32-9.98 3.67-2.88 2.18-4.86 5.33-5.58 8.87l-7.98 41.91h12.77c.59-.01 1.1-.43 1.21-1.01l3.89-20.45h11.44l-4.09 21.46h12.8c.59 0 1.1-.43 1.21-1.01l7.7-40.43c.74-3.25-.12-6.65-2.31-9.16-2.2-2.57-5.46-3.98-8.84-3.85"/>
    <path d="M135.0102.9782h-12.26l-5.08 26.55-9.76-26.04c-.22-.33-.59-.52-.99-.51l-8.9.01-10.19 53.47h12.62c.58 0 1.08-.42 1.19-.99l4.87-25.56 9.96 26.55h8.81c.58 0 1.08-.42 1.18-.99l9.73-51.04c.06-.36-.03-.73-.25-1.01a1.201 1.201 0 0 0-.93-.44m34.51 15.2901l-4.28 22.43c-.28 1.3-1.01 2.46-2.08 3.25-1.06.91-2.41 1.4-3.8 1.41h-6.35l5.97-31.28h6.82c1.13-.06 2.24.4 2.99 1.24.71.8.98 1.91.73 2.95m3.2-15.29l-25.21.01-10.17 53.47h25.65c3.6-.02 7.07-1.31 9.82-3.63 2.82-2.14 4.76-5.23 5.47-8.69l5.4-28.37c.73-3.19-.12-6.54-2.27-9.01-2.17-2.52-5.37-3.91-8.69-3.78m57.3.4399a1.201 1.201 0 0 0-.93-.44l-33.31.01-10.19 53.47h33.76c.58-.01 1.08-.42 1.19-.99l1.66-8.66c.06-.36-.03-.72-.26-1a1.201 1.201 0 0 0-.93-.44h-19.75l1.91-9.98h14.26c.58 0 1.08-.41 1.19-.99l1.69-8.65c.07-.36-.03-.73-.26-1.01-.22-.28-.57-.45-.93-.45h-13.79l1.85-10.2h20.21c.58 0 1.08-.42 1.19-.99l1.69-8.66a1.251 1.251 0 0 0-.25-1.02m179.56-.44h-12.26l-5.08 26.55-9.76-26.05c-.22-.33-.59-.52-.98-.51l-8.9.01-10.19 53.47h12.62c.58 0 1.08-.42 1.19-.99l4.87-25.56 9.96 26.55h8.81c.58 0 1.08-.42 1.18-.99l9.73-51.03c.06-.36-.03-.73-.26-1.01a1.201 1.201 0 0 0-.93-.44m34.5 15.2901l-4.28 22.43c-.28 1.3-1.01 2.45-2.08 3.25-1.06.91-2.41 1.4-3.8 1.41h-6.35l5.96-31.28h6.82c1.14-.06 2.24.4 3 1.24.72.81 1 1.91.73 2.95m3.21-15.29l-25.21.01-10.18 53.47h25.66c3.6-.02 7.07-1.31 9.81-3.63 2.82-2.14 4.77-5.23 5.47-8.69l5.4-28.37c.73-3.19-.12-6.54-2.27-9.01-2.16-2.52-5.36-3.91-8.68-3.78m57.2899.4399c-.2299-.28-.5699-.44-.9299-.44l-33.3101.01-10.1899 53.47h33.76c.58-.01 1.08-.42 1.19-.99l1.66-8.66c.06-.35-.03-.72-.26-1a1.201 1.201 0 0 0-.93-.44h-19.75l1.91-9.98h14.27c.5799 0 1.0799-.41 1.19-.99l1.68-8.65c.07-.36-.0301-.73-.26-1.01-.22-.28-.57-.45-.93-.45h-13.78l1.85-10.2h20.2099c.5801 0 1.0801-.42 1.1901-.99l1.6899-8.66c.0601-.36-.0299-.73-.26-1.02M261.1402 16.2683l-.22 1.31c-.27 1.32-1.02 2.49-2.1 3.29-1.06.9-2.4 1.39-3.79 1.4h-6.31l1.92-10.2h6.78c1.14-.06 2.24.4 3 1.24.72.82.99 1.92.72 2.96m3.3-15.29l-25.23.01-10.19 53.47h12.55c.58 0 1.08-.42 1.19-.99l3.89-20.08h6.78c1.14-.06 2.24.4 2.99 1.26.72.81.99 1.91.73 2.96l-3.27 16.85h12.77c.58-.01 1.07-.42 1.18-.99l3.83-20.08c.41-1.79-.07-3.66-1.28-5.04-.64-.75-1.46-1.33-2.39-1.68.86-.52 1.65-1.14 2.35-1.86 2.23-2.15 3.79-4.91 4.46-7.93l.59-3.1c.72-3.19-.12-6.54-2.26-9.01-2.17-2.53-5.37-3.92-8.69-3.79m13.59 53.4799h27.65c.58 0 1.08-.42 1.19-.99l1.7-8.66c.06-.35-.03-.72-.26-1a1.201 1.201 0 0 0-.93-.44h-13.63l7.75-40.93c.06-.36-.03-.73-.25-1.01-.23-.28-.57-.44-.94-.44l-12.09.01-10.19 53.46zM.9102.5382h12.72c1.6 0 2.3.76 2.37 2.39.46 11.3.39 34.52.39 34.52l12.15-36.9h12.83c1.51 0 2.03.03 2.4.5.43.53-.05 1.61-.05 1.61l-19.4 48.8c-.3.7-.66 1.36-1.07 2-.67.95-1.53 1.02-3.09 1.02h-15.71L.9102.5382zm-.91 69.17l498.25.01-.0002 7.64L0 77.3482z"/>
</svg>