<svg xmlns="http://www.w3.org/2000/svg" width="1253" height="397" xmlns:v="https://vecta.io/nano"><g opacity=".4"><path fill-rule="evenodd" d="M59.5 268.1l-2.4-3.7q-1.2-1.9-3-4.6l-4-6.4-4.9-8.2-2.8-4.8q-1.4-2.5-2.9-5.2-.8-1.3-1.6-2.7-.7-1.5-1.5-2.9-1.6-3-3.2-6.1c-2.1-4.3-4.5-8.8-6.6-13.6q-.9-1.9-1.7-3.7-.8-1.9-1.6-3.9c-1.1-2.6-2.2-5.2-3.2-8-1.1-2.7-2.2-5.5-3.2-8.5l-2.9-9c-3.7-12.3-6.7-26.1-8-41-.3-1.9-.3-3.7-.4-5.6q-.1-1.5-.2-2.9l-.1-1.4v-.8-.4-.3c-.1-3.8.1-8 .6-12q.8-6 2.2-12c.3-1 .5-2 .8-3q.4-1.5.8-3l.5-1.6.2-.7.1-.4c.1-.1.2-.5.2-.5l.5-1.4.6-1.5c3.9-8.6 10.7-15 18.1-20.2q5.6-3.9 11.7-7c4.1-2.1 8.3-4 12.7-5.8q3.1-1.2 6.4-2.5 1.6-.6 3.2-1.3l1.6-.6 1.7-.6q3.3-1.2 6.7-2.4c2.2-.8 4.5-1.6 6.8-2.3 9.1-2.9 18.5-5.7 28.1-8.1q3.5-.9 7.2-1.9c2.4-.6 4.8-1.1 7.3-1.7 2.4-.6 4.9-1.2 7.4-1.7q3.7-.8 7.4-1.6l15.1-3.1 1.9-.3 2-.4q1.9-.4 3.8-.7 3.8-.7 7.7-1.5l15.5-2.8q7.9-1.3 15.9-2.6 3.9-.7 8-1.3 4-.6 8-1.1 4.1-.6 8.1-1.2 2.1-.3 4.1-.6 2.1-.2 4.1-.5c21.8-2.9 44.2-5.2 67.1-6.9C322.2 6 345.5 5 369 4.7c23.6-.1 47.4.4 71.4 1.8 24 1.5 48.1 4 72.2 7.4l9 1.3 4.5.7 2.3.3.6.1.6.1 1.1.2 8.9 1.7c1.5.2 3 .6 4.5.9l4.5 1 4.5 1c1.5.3 3 .7 4.5 1.1l8.9 2.2 8.8 2.5 2.2.6 2.2.7 4.5 1.5c5.8 2.2 11.6 4.9 16.7 8.9 2.5 2 4.8 4.3 6.7 7s3.3 5.7 4.2 8.9c.9 3.1 1.1 6.4.9 9.6a36.41 36.41 0 0 1-1.8 9.4c-.4 1.5-1 3-1.5 4.4l-1.6 4.3c-1 2.8-2.3 5.6-3.5 8.4-1.1 2.9-2.5 5.6-3.8 8.4-.7 1.3-1.2 2.8-2 4.1l-2.2 4-2.3 4-2.4 3.8q-2.4 3.9-4.8 7.7c-1.7 2.5-3.2 5.1-4.9 7.6q-2.6 3.7-5.1 7.5-2.6 3.7-5.1 7.4l-1.3 1.9-1.3 1.8-2.7 3.6q-2.7 3.6-5.4 7.2c-1.8 2.4-3.5 4.9-5.4 7.2q-5.5 7-11.1 14L533 194.5c-3.8 4.5-7.8 8.8-11.8 13.2q-2.9 3.2-5.9 6.5c-2 2.2-4.1 4.2-6.1 6.3L497 233q-6.3 6.1-12.5 12l-3.1 3-3.2 2.9q-3.2 2.9-6.4 5.8c-8.4 7.8-17.2 15-25.7 22.3L433 289.4q-3.3 2.6-6.6 5.2c-2.1 1.7-4.4 3.3-6.6 5q-6.6 4.9-13.2 9.7c-4.4 3.2-8.9 6.3-13.3 9.3-8.8 6.3-17.8 11.9-26.6 17.6-4.4 3-8.9 5.6-13.3 8.2q-6.7 4-13.2 8-6.7 3.8-13.2 7.5-3.3 1.8-6.6 3.6-1.6 1-3.2 1.9l-.8.4-.4.2c-.1.1-.4.3-.5.3l-1.7.9q-3.3 1.6-6.6 3.2-1.6.9-3.2 1.7-1.7.7-3.4 1.5c-4.6 1.9-9 3.9-13.5 5.6-4.5 1.8-8.9 3.5-13.3 5-4.4 1.6-8.7 3.2-13.3 4.5-9.1 2.6-18.4 3.8-27.5 3.4a65.52 65.52 0 0 1-13.4-1.7q-1.6-.4-3.2-.8c-1.1-.3-2.2-.7-3.2-1-.5-.2-1-.3-1.6-.6l-1.5-.5q-1.4-.6-2.9-1.1-2.9-1.2-5.8-2.3c-1.9-.7-3.8-1.6-5.7-2.4q-2.8-1.2-5.6-2.4c-1.8-.8-3.6-1.7-5.4-2.6q-2.7-1.2-5.3-2.5c-1.8-.9-3.5-1.9-5.2-2.8q-2.5-1.4-5-2.8c-.4-.2-.8-.4-1.3-.7l-1.2-.7q-1.2-.8-2.3-1.5-2.4-1.4-4.7-2.9c-1.6-.9-3.1-1.9-4.6-2.9q-4.5-3-8.9-6c-5.6-4.1-11.1-7.9-16-12-5.1-4-9.7-8.1-14.2-12-2.2-1.9-4.2-3.9-6.3-5.8q-1.5-1.5-3-2.9-1.5-1.4-2.9-2.8-2.8-2.9-5.5-5.6l-5-5.4c-3.2-3.4-6.1-6.8-8.8-10l-13.7-15.9-11.3-13.4zm.8-.5c.3.4 4.2 5 11.2 13.3 3.7 4.4 8.4 9.6 13.9 15.8q2 2.4 4.2 4.9c1.4 1.6 3.1 3.3 4.7 5l5.1 5.3q2.7 2.6 5.5 5.3 1.4 1.4 2.9 2.9 1.5 1.3 3.1 2.7l6.4 5.7c4.6 3.7 9.2 7.7 14.4 11.4 2.6 2 5.1 4 7.9 5.8a305.85 305.85 0 0 0 8.4 5.7q4.4 2.7 8.9 5.6l4.6 2.7q2.4 1.4 4.8 2.7 1.2.7 2.5 1.4l1.2.7c.3.2.8.4 1.2.6q2.5 1.3 5 2.5c1.7.9 3.4 1.8 5.1 2.6q2.7 1.1 5.4 2.3c1.8.8 3.5 1.6 5.4 2.3q2.7 1.1 5.5 2.2l5.7 2.1q2.9 1 5.9 2 1.4.5 2.9 1l1.5.6c.4.1.9.2 1.4.4 1 .3 1.9.6 2.9.8q1.5.4 3 .6c3.9.8 8.1 1.2 12.2 1.2 8.4.1 17-1.3 25.4-3.8 4.1-1.2 8.4-3 12.7-4.7 2.2-.8 4.4-1.6 6.5-2.5q3.3-1.3 6.5-2.6c4.4-1.7 8.6-3.7 13-5.7q1.6-.7 3.2-1.4 1.6-.8 3.3-1.6 3.2-1.7 6.5-3.4l1.6-.8 1.5-.9q1.6-.9 3.2-1.8 3.3-1.8 6.5-3.7 6.5-3.6 13.1-7.3 6.5-3.9 13.2-7.9l13.2-8c8.8-5.6 17.8-11 26.6-17.1l13.4-8.9q6.7-4.7 13.4-9.4 3.3-2.4 6.7-4.8 3.3-2.4 6.6-4.9l13.3-10c8.7-7 17.6-13.9 26.2-21.4q3.2-2.7 6.5-5.5l3.2-2.8 3.2-2.9q6.3-5.8 12.7-11.7c4.2-3.9 8.3-8 12.4-12.1l6.2-6.2q3-3.2 6-6.4c4-4.3 8.1-8.5 11.9-13l11.5-13.4q5.6-6.9 11.2-13.9c1.9-2.2 3.6-4.7 5.4-7.1q2.6-3.6 5.3-7.2l2.6-3.6 1.4-1.8 1.2-1.8q2.5-3.7 5.1-7.5 2.5-3.7 5-7.4c1.7-2.5 3.2-5.1 4.8-7.6q2.4-3.9 4.8-7.7l2.3-3.9 2.2-3.9 2.1-3.9c.7-1.4 1.3-2.7 1.9-4.1 1.3-2.7 2.6-5.4 3.6-8.2l3.3-8.4 1.5-4.3c.5-1.5 1-2.8 1.4-4.2.8-2.8 1.3-5.7 1.4-8.5.1-2.9-.2-5.7-.9-8.4-1.6-5.4-5.2-10-9.8-13.4s-10-5.9-15.5-7.8c-23-6.8-47-11.4-70.9-13.9-5.9-.8-12-1.4-17.9-2q-4.5-.5-9-.9l-9-.8q-4.5-.3-9-.7l-8.9-.7q-9-.5-17.9-1c-23.8-1.1-47.5-1.5-70.9-1.1-23.3.5-46.4 1.8-69 3.5l-33.6 3.2q-4.2.5-8.3.9l-8.3 1q-8.2 1-16.3 2-2.1.3-4.1.6-2 .3-4 .5-4.1.6-8.1 1.2l-15.9 2.4q-7.9 1.3-15.7 2.5c-5.2.8-10.4 1.8-15.5 2.7C129.2 41.1 90.8 49.6 57 62.4c-4.1 1.6-8.3 3.3-12.2 5.2-3.9 1.8-7.6 3.9-11.2 6.1-3.5 2.3-6.7 4.8-9.6 7.6-.7.7-1.3 1.4-2 2.2-.7.7-1.2 1.5-1.8 2.2-.7.8-1.1 1.6-1.7 2.4-.2.4-.5.8-.7 1.2l-.6 1.2c-.2.4-.4.9-.6 1.4l-.6 1.4c-.1.2 0 .1-.1.2l-.1.4-.2.7-.5 1.4q-.5 1.5-1 2.9c-.2 1-.6 1.9-.8 2.9q-1.6 5.7-2.6 11.4l-.7 5.6c0 .9-.1 1.8-.2 2.8q0 1.4-.1 2.8v.4.3.7l.1 1.4q0 1.4 0 2.8c.1 1.9 0 3.7.2 5.5.8 14.7 3.2 28.3 6.5 40.6.8 3.1 1.8 6.1 2.6 9 .9 3 1.9 5.8 2.9 8.5.9 2.8 2 5.5 3 8.1q.8 1.9 1.5 3.8.9 1.9 1.7 3.7c2 4.9 4.2 9.4 6.2 13.7 2.2 4.2 4.1 8.2 6.2 11.8q1.5 2.7 2.8 5.2l2.8 4.7a165.76 165.76 0 0 0 4.8 8.2l4 6.5q1.7 2.7 2.9 4.6l2.4 3.7z" fill="#fff"/></g><g opacity=".8"><path fill-rule="evenodd" d="M40.9 236.9l-.9-4.4q-.4-2.1-1-5.3-.6-3.3-1.4-7.5l-1.5-9.4-1.5-11.4c-.9-8.2-2-17.7-2.3-28.3-.2-2.7-.2-5.4-.2-8.2q0-2.1 0-4.3 0-2.2.1-4.4 0-2.2.1-4.5c0-1.5.1-3 .2-4.5q.1-2.3.3-4.7c0-1.6.2-3.2.4-4.8 1.2-12.8 3.5-26.6 7.4-41q.3-1.4.7-2.8c.2-.9.5-1.8.8-2.7q.8-2.7 1.7-5.5l.4-1.4c.1-.2.1-.4.2-.7l.3-.7q.5-1.3.9-2.7c.8-1.8 1.5-3.8 2.3-5.6 3.3-7.3 7.3-14.6 12-21.6l.8-1.3.5-.7.2-.3c0-.1.2-.4.3-.4q.9-1.3 1.8-2.6 1.2-1.3 2.3-2.6 1.2-1.3 2.4-2.5c3.2-3.1 6.9-5.8 10.7-8.2 7.8-4.8 16.4-8.4 25.3-11.1 1.1-.4 2.2-.7 3.4-1q1.6-.5 3.3-1l1.8-.4.4-.1.5-.2.8-.2q1.7-.4 3.4-.8c4.5-1 9.1-2.2 13.8-3q3.6-.7 7.2-1.4c2.4-.5 4.8-.8 7.2-1.2q3.6-.6 7.2-1.2 3.7-.4 7.4-.9c9.8-1.4 19.8-2.3 30-3.1l15.4-1 15.6-.8c20.8-.9 42.5-1.3 64.5-1 22.1.4 44.6 1.2 67.4 3.1s46 4.5 69.3 8.1c23.2 3.7 46.7 8.3 70 14.1q4.4 1.1 8.8 2.2l4.4 1.1c1.4.4 2.9.9 4.3 1.3l17.5 5q8.6 2.7 17.3 5.5l17.2 6 2.2.8 1.1.4 1.1.4 4.2 1.7c2.8 1.1 5.6 2.2 8.4 3.5l8.4 3.8 8.3 4.1 8.1 4.3 2 1.1 2 1.2 2.1 1.2 2 1.3c5.2 3.6 10.1 8.2 13.2 14.1.7 1.5 1.3 3 1.9 4.6.4 1.6.8 3.3.9 4.9.4 3.4.1 6.7-.6 9.9-1.6 6.3-4.7 11.9-8.3 17-7.2 9.9-14.7 19.5-23 28.5l-6.4 6.6-6.5 6.3-6.5 6.3-3.2 3.2-3.4 3q-6.6 6.1-13.3 12.2c-4.5 4.1-9.1 7.9-13.6 11.9-2.3 1.9-4.5 3.9-6.8 5.8q-3.5 2.9-6.9 5.7-3.5 2.8-6.9 5.7c-2.4 1.9-4.6 3.8-7 5.6q-7 5.4-14.1 10.8c-1.1.9-2.3 1.9-3.5 2.7l-3.5 2.7q-3.6 2.6-7.1 5.2c-9.4 7.1-19.2 13.5-28.6 20.2-4.8 3.3-9.7 6.4-14.5 9.6q-3.6 2.3-7.2 4.7c-2.4 1.6-4.9 3-7.3 4.5-38.8 24.3-77.9 45.2-116.2 62.1q-7.2 3.2-14.3 6.3l-7.1 3q-3.6 1.5-7.1 2.9-7.1 2.9-14.1 5.7-1.7.7-3.5 1.4-1.7.7-3.5 1.3-3.5 1.3-6.9 2.6-7 2.6-13.8 5.1l-1.7.6-.8.3-.5.2-.5.2q-1.7.5-3.4 1.1-3.4 1.1-6.8 2.2c-2.2.7-4.6 1.3-6.9 1.9q-3.5.9-6.9 1.9l-13.6 3.1c-4.5 1-8.9 1.8-13.3 2.7l-1.7.4-1.7.3-1.6.2-1.7.3c-2.4.3-4.6.5-6.9.7-9 .6-18-.2-26.3-2.8-4.2-1.3-8.2-3.1-11.8-5.4l-.7-.5c-.2-.1-.2-.1-.3-.2l-.4-.2-1.2-.9q-1.2-.9-2.5-1.7-2.4-1.7-4.8-3.4-2.4-1.9-4.7-3.7-1.2-.9-2.3-1.8c-.8-.6-1.6-1.2-2.3-1.8q-2.2-1.9-4.4-3.8c-1.4-1.3-2.8-2.5-4.1-3.8q-2-2-4-4-1-1-2-1.9-.9-1.1-1.8-2.1-1.8-2-3.5-4-.9-1-1.7-1.9-.9-1-1.7-2-3.3-4.1-6.5-8.1c-2-2.7-3.8-5.4-5.7-8q-.7-1-1.4-2-.7-1-1.3-2-1.3-1.9-2.5-3.9c-.9-1.3-1.7-2.6-2.5-3.9q-1.1-1.9-2.2-3.8-1.1-2-2.2-3.8-.6-1-1.1-1.9-.5-.9-1-1.9-1.9-3.7-3.8-7.3c-4.6-9.6-8.3-18.4-11-26.2l-7.2-19.7-5.7-16.6zm.9-.2c.1.5 2.1 6.2 5.7 16.5 1.9 5.4 4.4 11.9 7.3 19.7 2.8 7.7 6.7 16.4 11.5 25.9 4.8 9.4 10.9 19.4 18.5 29.7l5.9 7.7q3.2 3.8 6.6 7.7.8 1 1.7 2 .9.9 1.8 1.9 1.8 1.9 3.7 3.8.9 1 1.8 1.9 1 1 2 1.9 2 1.8 4 3.7c1.3 1.2 2.8 2.4 4.2 3.5q2.2 1.8 4.4 3.6c.7.6 1.5 1.1 2.2 1.7q1.2.8 2.4 1.6 2.3 1.7 4.6 3.4 2.5 1.6 5 3.2 1.3.8 2.5 1.7l1.3.8.3.2c.1 0 .3.2.3.2l.6.3c3.3 1.9 6.9 3.4 10.7 4.5 7.6 2.1 15.9 2.5 24.2 1.7 2.1-.2 4.2-.5 6.3-.8l1.5-.3 1.7-.3 1.6-.4 1.6-.3 13.1-3c4.4-1.2 8.9-2.2 13.3-3.4q3.3-1 6.6-1.9c2.2-.7 4.4-1.2 6.7-2q3.3-1.2 6.7-2.3 1.7-.6 3.4-1.2c.1 0 .4-.1.4-.1l.4-.1.8-.3 1.7-.7q6.8-2.6 13.6-5.2c9.2-3.4 18.4-7.2 27.8-10.9 9.5-3.7 18.8-8 28.4-12 38.2-16.5 77.7-35.9 116.9-58.9 2.5-1.5 5-2.8 7.4-4.3q3.6-2.3 7.3-4.6l14.6-9.1c9.6-6.4 19.4-12.7 28.9-19.6 19.2-13.4 37.8-28.1 55.9-43.7l13.5-11.8q6.6-6.1 13.2-12.3l3.3-3 3.2-3.2 6.4-6.4 6.5-6.4c2.1-2.1 4.1-4.4 6.1-6.6 8-8.9 15.2-18.6 22.1-28.5 3.3-4.9 6.1-10.2 7.2-15.7 1.2-5.5.6-11.2-2.1-16-2.7-4.9-7-8.8-11.8-12l-1.9-1.1-1.8-1.1-2-1.1-2-1-8.1-4-8.2-3.8c-2.7-1.3-5.5-2.4-8.2-3.5-1.4-.6-2.7-1.2-4.2-1.7l-4.2-1.6-4.3-1.6-1.1-.4-1-.3-2.1-.7c-22.8-7.8-46-14.3-69.1-19.7-23.2-5.5-46.4-9.8-69.5-13.3-23.1-3.3-46.1-5.7-68.7-7.3q-8.5-.6-16.9-1.1-8.4-.4-16.8-.8l-8.3-.4q-4.2-.1-8.3-.2-4.2-.1-8.3-.2c-2.7 0-5.5-.1-8.2-.1q-8.2-.1-16.3-.1-2 0-4 0-2 0-4.1 0-4 .1-8 .1l-31.7.7-15.4.7-15.2.9q-3.8.2-7.5.5-1.9.2-3.8.3-1.8.2-3.7.4l-14.7 1.4q-3.6.5-7.2.9-3.6.5-7.1 1c-2.4.3-4.8.6-7.1 1q-3.5.6-6.9 1.3-1.7.3-3.5.6-1.7.2-3.4.6-3.4.7-6.9 1.4-1.7.4-3.4.7l-.8.2-.4.1-.4.1-1.6.4q-1.7.4-3.3.8l-3.2.9q-6.5 1.8-12.5 4.1c-4 1.6-7.9 3.4-11.5 5.5a59.59 59.59 0 0 0-10 7q-1.1 1.1-2.1 2.1-1 1.1-2 2.1-1 1.2-1.9 2.5-.9 1.2-1.8 2.4c-4.7 6.6-8.8 13.5-12.2 20.4-.5.9-.8 1.7-1.2 2.6-.4.8-.8 1.7-1.2 2.6q-.5 1.3-1.1 2.7l-.2.6c-.1.2-.2.5-.2.7l-.5 1.3q-.9 2.7-1.9 5.3l-.9 2.7q-.4 1.3-.8 2.6c-4.3 14-7.1 27.6-8.6 40.2-.2 1.6-.5 3.2-.6 4.7q-.2 2.4-.4 4.7c-.1 1.5-.3 3-.4 4.5q-.1 2.2-.2 4.4-.1 2.2-.2 4.4 0 2.1 0 4.2c0 2.8-.1 5.5 0 8.2.3 21.2 2.9 37.8 4.7 49q.7 4.2 1.2 7.4.6 3.2 1 5.4c.5 2.7.8 4.1.9 4.3zm196.1 132.8q0 0 0 0z" fill="#fff"/></g><path d="M196.4 184h-14.9l-37-97h13.7l30.7 81.7L219.7 87h13.7zm92.6-73.8l.1 12.3q-2-1.2-4.4-1.7-2.4-.6-5.2-.6-10.1 0-15.6 6.6-5.4 6.6-5.4 18.9V184h-12v-72.7h12v11.3q3.8-6.6 9.8-9.8 6.1-3.2 14.7-3.2 1.2 0 2.7.1 1.5.2 3.3.5zm37.9 9.5q-9.6 0-15.2 7.5-5.6 7.5-5.6 20.5 0 13.1 5.5 20.6 5.6 7.5 15.3 7.5 9.5 0 15.1-7.5 5.6-7.6 5.6-20.6 0-12.9-5.6-20.4-5.6-7.6-15.1-7.6zm0-10.1q15.6 0 24.5 10.1 8.9 10.1 8.9 28 0 17.9-8.9 28.1-8.9 10.1-24.5 10.1-15.7 0-24.6-10.1-8.8-10.2-8.8-28.1 0-17.9 8.8-28 8.9-10.1 24.6-10.1zm51.9 45.7v-44h12v43.6q0 10.3 4 15.5 4 5.1 12.1 5.1 9.7 0 15.3-6.1 5.6-6.2 5.6-16.9v-41.2h12V184h-12v-11.1q-4.3 6.6-10.1 9.8-5.7 3.2-13.3 3.2-12.6 0-19.1-7.8-6.5-7.8-6.5-22.8zm30.1-45.7zm67.5 74.4l-19-72.7h12l14.9 56.8 14.9-56.8h14.1l14.9 56.8 14.9-56.8H555L536 184h-14.1l-15.6-59.6-15.8 59.6zm-341 29.5l1.6-8.2h6.5l-1.6 8.2zm-9.1 46.5l7.7-39.3h6.5l-7.7 39.3zm57.6-23.7l-4.6 23.7h-6.5l4.6-23.5q.3-1.6.5-2.9.1-1.3.1-2 0-3-1.8-4.6-1.9-1.7-5.2-1.7-5.2 0-9 3.5-3.7 3.5-4.9 9.4l-4.3 21.8h-6.5l7.6-39.3h6.5l-1.3 6.2q2.7-3.5 6.5-5.3 3.8-1.9 8-1.9 5.2 0 8 2.8 2.9 2.8 2.9 7.9 0 1.3-.2 2.7-.1 1.5-.4 3.2zm68.5 0l-4.6 23.7h-6.5l4.6-23.5q.3-1.6.5-2.9.2-1.3.2-2 0-3-1.9-4.6-1.9-1.7-5.2-1.7-5.2 0-9 3.6-3.8 3.5-5 9.3l-4.2 21.8h-6.5l10.7-54.7h6.4l-4.1 21.6q2.4-3.3 6.3-5.2 3.8-2 8-2 5.2 0 8.1 2.8 2.8 2.8 2.8 7.9 0 1.3-.1 2.7-.2 1.5-.5 3.2zm16.9.6l23.3-.1q.1-.5.1-1.1.1-.6.1-1.2 0-4.3-2.6-6.8-2.5-2.5-6.8-2.5-4.8 0-8.5 3.1-3.7 3-5.6 8.6zm28.9 5h-30.1q-.2 1.3-.3 2.1-.1.8-.1 1.3 0 4.9 3 7.6 3 2.7 8.5 2.7 4.2 0 8-1 3.8-.9 7-2.7l-1.2 6.3q-3.5 1.5-7.2 2.2-3.7.7-7.6.7-8.1 0-12.6-3.9-4.4-4-4.4-11.2 0-6.1 2.2-11.4 2.2-5.3 6.5-9.5 2.7-2.6 6.5-4 3.8-1.4 8-1.4 6.7 0 10.6 4 4 4 4 10.8 0 1.6-.2 3.5-.2 1.8-.6 3.9zm21.5-21.2h13l-1 5h-12.9l-4.2 21.4q-.2 1.2-.3 2-.1.8-.1 1.2 0 2.3 1.3 3.3 1.4 1 4.4 1h6.5l-1.1 5.4h-6.2q-5.7 0-8.6-2.2-2.8-2.3-2.8-6.8 0-.8.1-1.8.1-1 .3-2.1l4.2-21.4h-5.5l1-5h5.4l2.2-11.2h6.5zm46.6 86.4v-97h55.8v11h-42.6v28.6h38.4v11.1h-38.4v46.3zM475 270.5h-11.9q-14.5 0-20.1 3.3-5.6 3.3-5.6 11.3 0 6.4 4.2 10.1 4.2 3.7 11.4 3.7 9.9 0 15.9-7 6.1-7 6.1-18.7zm11.9-5V307H475v-11q-4.1 6.6-10.2 9.8-6.1 3.1-15 3.1-11.1 0-17.8-6.2-6.5-6.3-6.5-16.8 0-12.3 8.2-18.6 8.2-6.2 24.5-6.2H475v-1.2q0-8.2-5.5-12.7-5.4-4.5-15.2-4.5-6.2 0-12.1 1.5-5.9 1.5-11.4 4.4v-11q6.6-2.5 12.7-3.8 6.2-1.3 12-1.3 15.8 0 23.6 8.2 7.8 8.2 7.8 24.8zm81.3-17.2q4.4-8.1 10.7-11.9 6.2-3.9 14.6-3.9 11.4 0 17.6 8 6.2 7.9 6.2 22.6V307h-12.1v-43.5q0-10.4-3.7-15.5-3.7-5.1-11.3-5.1-9.3 0-14.6 6.2-5.4 6.2-5.4 16.8V307h-12v-43.5q0-10.5-3.7-15.5-3.7-5.1-11.5-5.1-9.1 0-14.5 6.3-5.4 6.1-5.4 16.7V307h-12v-72.7h12v11.3q4.1-6.7 9.8-9.9 5.7-3.2 13.6-3.2 7.9 0 13.4 4.1 5.6 4 8.3 11.7zm72.9 58.7v-72.7H653V307zm0-85.9V206h12v15.1zM678 307V206h12v101zm36.9 0v-72.7h12V307zm0-85.9V206h11.9v15.1zm99.2 46.6v5.8h-54.9q.7 12.4 7.4 18.8 6.7 6.5 18.5 6.5 6.9 0 13.3-1.7 6.5-1.7 12.9-5.1v11.3q-6.4 2.8-13.2 4.2-6.7 1.4-13.7 1.4-17.4 0-27.6-10.1-10.1-10.2-10.1-27.4 0-17.9 9.6-28.3 9.7-10.6 26-10.6 14.7 0 23.2 9.5 8.6 9.4 8.6 25.7zm-54.6-3.5h42.6q-.1-9.8-5.5-15.7-5.3-5.8-14.1-5.8-10 0-16.1 5.6-5.9 5.7-6.9 15.9zm126.4 6.5q0-13.2-5.4-20.6-5.4-7.6-14.9-7.6-9.5 0-14.9 7.6-5.4 7.4-5.4 20.6 0 13.2 5.4 20.7 5.4 7.5 14.9 7.5 9.5 0 14.9-7.5 5.4-7.5 5.4-20.7zM845.3 206v39.3q3.7-6.5 9.5-9.6 5.7-3.2 13.7-3.2 13.3 0 21.5 10.6 8.3 10.5 8.3 27.6 0 17.2-8.3 27.7-8.2 10.5-21.5 10.5-8 0-13.7-3.1-5.8-3.2-9.5-9.7V307h-12V206zm135 61.7v5.8h-54.9q.8 12.4 7.4 18.8 6.7 6.5 18.6 6.5 6.9 0 13.3-1.7 6.5-1.7 12.8-5.1v11.3q-6.4 2.8-13.1 4.2-6.8 1.4-13.7 1.4-17.4 0-27.6-10.1-10.2-10.2-10.2-27.4 0-17.9 9.6-28.3 9.7-10.6 26.1-10.6 14.7 0 23.2 9.5 8.5 9.4 8.5 25.7zm-54.5-3.5h42.6q-.1-9.8-5.5-15.7-5.4-5.8-14.2-5.8-10 0-16 5.6-6 5.7-6.9 15.9zm122-18.9V206h12v101h-12v-10.9q-3.8 6.5-9.5 9.7-5.8 3.1-13.8 3.1-13.2 0-21.5-10.5-8.2-10.5-8.2-27.7 0-17.1 8.2-27.6 8.3-10.6 21.5-10.6 8 0 13.8 3.2 5.7 3.1 9.5 9.6zm-40.7 25.4q0 13.2 5.4 20.7 5.4 7.5 14.9 7.5 9.5 0 15-7.5 5.4-7.5 5.4-20.7 0-13.2-5.4-20.6-5.5-7.6-15-7.6-9.5 0-14.9 7.6-5.4 7.4-5.4 20.6zm119.4-37.5v12.3q-2-1.2-4.4-1.7-2.3-.6-5.2-.6-10.1 0-15.6 6.6-5.4 6.6-5.4 18.9V307h-12v-72.7h12v11.3q3.8-6.6 9.8-9.8 6.1-3.3 14.7-3.3 1.2 0 2.7.2 1.5.2 3.4.5zm12.6 73.8v-72.7h11.9V307zm0-85.9V206h11.9v15.1zm37 87.2v-74h12v74q0 13.9-5.4 20.2-5.2 6.2-17 6.2h-4.5v-10.1h3.1q6.9 0 9.3-3.2 2.5-3.1 2.5-13.1zm0-87.2V206h12v15.1zm62.4-15.1h11.3v9.9h-11.4q-6.4 0-9 2.6-2.4 2.6-2.4 9.4v6.4h19.6v9.3H1227V307h-12v-63.4h-11.5v-9.3h11.5v-5.1q0-12.1 5.6-17.6 5.7-5.6 17.9-5.6z" fill="#fff"/></svg>