<svg xmlns="http://www.w3.org/2000/svg" width="491" height="510" fill="#fff"><path fill-rule="evenodd" d="M1 0h490v138l-1 138c-.6 0-1-.6-1-1.3 0-.6-1.8-5-4.1-9.7-3.2-6.3-6-10.3-11.3-15.6-4.7-4.6-9.3-8.1-13.6-10.2-3.6-1.8-9.6-3.9-13.5-4.7S437 233 434 233s-8.1.7-11.3 1.5c-3.1.8-7.6 2.5-10 3.7-2.3 1.2-6.2 4.1-8.7 6.4-2.5 2.4-4.8 4.3-5.3 4.4-.4 0-.7-2.7-.7-6 0-5.5-.2-6.1-2.5-7-1.4-.6-7.7-1-14-1s-12.6.4-16.5 2v190H.5zm313.5 236.5c-3.3 1.4-7.4 3.6-9 4.9-1.7 1.2-4.7 4.4-6.8 6.9-2 2.6-4.2 4.5-4.7 4.2-.6-.3-1-3.9-1-8 0-6.5-.3-7.6-2-8.5-1.1-.5-7.5-1-14.3-1-8.3 0-12.8.4-14 1.2-1.6 1.2-1.7 5.6-1.5 73.8l.3 72.5h31c1-91 1-92.1 3.2-97 1.3-2.7 4-6.6 6-8.7 2.1-2 5.8-4.7 8.3-6 4.1-2.1 5.8-2.3 17.9-2.3 12.5 0 13.4-.1 14.1-2 .4-1.1 1.7-7.6 3-14.5l2.2-12.5c-3.6-2.8-6.3-4-8.2-4.6-1.9-.5-6.9-.9-11-.9-5.7 0-8.9.6-13.5 2.5zm-202.3-.9c-1.3.2-2.2 1.1-2.2 2.2 0 .9 8.6 27.8 19.1 59.7l23.1 70.5c2.2 6.9 4.6 13.1 5.2 13.8.8 1 5.3 1.3 17.8 1.2 15 0 16.9-.2 17.7-1.7.5-1 4.8-13.5 9.5-27.8l22.9-70.5c8-24.5 14.3-45.1 14.1-45.7-.3-1-4.6-1.4-15.7-1.6-10.3-.2-15.9 0-17.2.8-1.6 1-4.9 11.4-16.1 50.1-9.8 34.2-14.4 48.9-15.4 48.9-.8 0-2.2-2.9-3.6-7.5l-13.9-48.5c-6.4-22.5-12.3-41.7-13.1-42.5-1.2-1.2-4.5-1.5-15.7-1.6-7.8-.1-15.2 0-16.5.2zM432 261.8c2.5.2 6.9 1.5 9.7 2.8 3.7 1.7 6.3 3.8 8.7 7.2 1.9 2.6 4.7 8.3 6.1 12.7 2.1 6.2 2.8 10.7 3.2 20 .4 8.8.1 14.2-1.1 20.5-.9 4.7-2.9 11.1-4.4 14.4s-4.7 7.7-7.2 10.1c-3 2.8-6.4 4.8-10 5.9-3 .9-6.9 1.6-8.5 1.6-1.7 0-5.3-.6-8-1.5-2.8-.8-6.7-2.8-8.8-4.5-2.2-1.8-4.9-5.6-6.7-9.2-1.7-3.5-3.7-9.4-4.5-13.3-.8-3.8-1.5-12.2-1.5-18.5s.5-14.3 1-17.7c.5-3.5 1.9-8.7 2.9-11.5 1.1-2.9 3.9-7.5 6.3-10.2s5.6-5.6 7.3-6.4c1.6-.9 4.8-1.9 7-2.2s6-.4 8.5-.2zm58 81.2c.6 0 1 14.7 1 84h-93v-28c0-15.4.3-28.2.7-28.5.5-.2 1.9.7 3.3 2.2 1.4 1.4 4.7 4 7.5 5.8 2.7 1.8 7.5 4 10.5 4.9 3.3 1 9.1 1.6 14.5 1.6 4.9 0 11.7-.7 15-1.5 3.3-.9 8.5-2.8 11.5-4.2 3.3-1.6 8.3-5.5 12.6-9.7 5.3-5.3 8.1-9.3 11.3-15.6 2.3-4.7 4.1-9.1 4.1-9.7 0-.7.4-1.3 1-1.3z"/><path d="M40.2 506H28.7q-.8-1.5-1.2-3.8-4.1 4.6-10.8 4.6-6.3 0-10.4-3.6-4.1-3.7-4.1-9.2 0-6.8 5-10.5 5.1-3.6 14.6-3.6h5.3v-2.5q0-3-1.6-4.7-1.5-1.8-4.8-1.8-2.9 0-4.5 1.4-1.6 1.3-1.6 3.8H3.1q0-3.8 2.3-6.9 2.3-3.2 6.5-5 4.2-1.8 9.4-1.8 7.9 0 12.6 4 4.6 4 4.6 11.2v18.5q.1 6.1 1.7 9.2zm-21-7.9q2.6 0 4.7-1.1 2.1-1.2 3.2-3.1v-7.3h-4.3q-8.6 0-9.2 5.9v.7q0 2.1 1.5 3.5 1.5 1.4 4.1 1.4zM79.6 463l-.1 11q-2.4-.4-4.2-.4-6.4 0-8.5 4.4v28H55.4v-42.8h10.8l.3 5.1q3.5-5.9 9.6-5.9 1.9 0 3.5.6zm30.5 34.6q3.2 0 5.1-1.7 2-1.8 2.1-4.7H128q0 4.4-2.4 8-2.3 3.6-6.4 5.6-4 2-8.9 2-9.2 0-14.5-5.8-5.3-5.8-5.3-16.1v-.8q0-9.9 5.3-15.8 5.2-5.9 14.4-5.9 8 0 12.9 4.6 4.8 4.6 4.9 12.2h-10.7q-.1-3.3-2.1-5.4-1.9-2.1-5.2-2.1-4 0-6 2.9-2.1 2.9-2.1 9.4v1.2q0 6.6 2.1 9.5 2 2.9 6.1 2.9zm43.7-52.3v22.6q4.5-5.5 11.4-5.5 13.9 0 14.1 16.2V506h-11.4v-27.1q0-3.6-1.6-5.4-1.6-1.8-5.2-1.8-5.1 0-7.3 3.9V506h-11.4v-60.7zm54.3 17.9V506h-11.5v-42.8zm-12.1-11q0-2.6 1.7-4.3 1.7-1.6 4.7-1.6 2.9 0 4.7 1.6 1.7 1.7 1.7 4.3 0 2.6-1.8 4.2-1.7 1.7-4.6 1.7-2.9 0-4.7-1.7-1.7-1.6-1.7-4.2zm31.9.5h11.4v10.5h7.3v8.4h-7.3V493q0 2.3.9 3.4.9 1 3.5 1 1.9 0 3.4-.3v8.7q-3.4 1-6.9 1-12.1 0-12.3-12.1v-23.1h-6.3v-8.4h6.3zm52.9 54.1q-9.4 0-15.3-5.7-5.9-5.8-5.9-15.4v-1.1q0-6.5 2.5-11.5 2.5-5.1 7-7.9 4.6-2.7 10.4-2.7 8.8 0 13.8 5.5 5.1 5.5 5.1 15.7v4.7h-27.2q.5 4.2 3.3 6.7 2.8 2.5 7.1 2.5 6.6 0 10.3-4.8l5.6 6.3q-2.6 3.7-7 5.7-4.4 2-9.7 2zm-1.3-35.1q-3.4 0-5.5 2.3-2.1 2.3-2.7 6.6h15.9v-.9q-.1-3.8-2.1-5.9-2-2.1-5.6-2.1zm51.3 25.9q3.2 0 5.1-1.7 2-1.8 2.1-4.6h10.7q0 4.3-2.4 7.9-2.3 3.6-6.4 5.7-4 1.9-8.9 1.9-9.2 0-14.5-5.8-5.3-5.8-5.3-16.1v-.8q0-9.9 5.3-15.7 5.2-5.9 14.4-5.9 8 0 12.9 4.6 4.8 4.5 4.9 12.1H338q-.1-3.3-2.1-5.4-1.9-2.1-5.2-2.1-4 0-6 2.9-2.1 2.9-2.1 9.5v1.1q0 6.6 2.1 9.5 2 2.9 6.1 2.9zm34.8-44.9H377v10.6h7.3v8.3H377V493q0 2.4.9 3.4.9 1 3.5 1 1.9 0 3.4-.3v8.7q-3.4 1-7 1-12 0-12.2-12.1v-23.1h-6.3v-8.3h6.3zm52.9 54.1q-9.4 0-15.3-5.8-5.9-5.8-5.9-15.4v-1.1q0-6.5 2.5-11.5 2.4-5.1 7-7.8 4.6-2.8 10.4-2.8 8.8 0 13.8 5.5 5.1 5.6 5.1 15.7v4.7h-27.3q.6 4.2 3.4 6.7 2.8 2.5 7 2.5 6.7 0 10.4-4.7l5.6 6.2q-2.6 3.7-7 5.7-4.4 2.1-9.7 2.1zm-1.3-35.2q-3.4 0-5.5 2.3-2.1 2.3-2.7 6.6h15.9v-.9q-.1-3.8-2.1-5.9-2-2.1-5.6-2.1zm33.2-8.4h10.8l.4 4.9q4.5-5.7 12.3-5.7 6.8 0 10.1 4 3.3 4 3.4 11.9V506H476v-27.4q0-3.6-1.6-5.3-1.6-1.6-5.3-1.6-4.8 0-7.2 4.1V506h-11.5z"/></svg>